CSLSans-Bold.ufo
<glyph name="exclam" format="2">
  <advance width="313"/>
  <unicode hex="0021"/>
  <outline>
    <contour>
      <point x="156" y="-12" type="qcurve" smooth="yes"/>
      <point x="73" y="-12"/>
      <point x="73" y="61" type="qcurve" smooth="yes"/>
      <point x="73" y="82" type="line" smooth="yes"/>
      <point x="73" y="155"/>
      <point x="156" y="155" type="qcurve" smooth="yes"/>
      <point x="202" y="155"/>
      <point x="240" y="112"/>
      <point x="240" y="82" type="qcurve" smooth="yes"/>
      <point x="240" y="61" type="line" smooth="yes"/>
      <point x="240" y="-12"/>
    </contour>
    <contour>
      <point x="187" y="213" type="line"/>
      <point x="128" y="213" type="line"/>
      <point x="85" y="502" type="line"/>
      <point x="85" y="698" type="line"/>
      <point x="228" y="698" type="line"/>
      <point x="228" y="502" type="line"/>
    </contour>
  </outline>
</glyph>
<glyph name="percent" format="2">
  <advance width="965"/>
  <unicode hex="0025"/>
  <outline>
    <contour>
      <point x="229" y="314" type="qcurve"/>
      <point x="53" y="316"/>
      <point x="53" y="512" type="qcurve"/>
      <point x="55" y="710"/>
      <point x="229" y="710" type="qcurve"/>
      <point x="404" y="709"/>
      <point x="404" y="512" type="qcurve"/>
      <point x="402" y="314"/>
    </contour>
    <contour>
      <point x="301" y="0" type="line"/>
      <point x="180" y="0" type="line"/>
      <point x="664" y="698" type="line"/>
      <point x="785" y="698" type="line"/>
    </contour>
    <contour>
      <point x="231" y="394" type="qcurve" smooth="yes"/>
      <point x="287" y="394"/>
      <point x="287" y="485" type="qcurve" smooth="yes"/>
      <point x="287" y="541" type="line" smooth="yes"/>
      <point x="287" y="630"/>
      <point x="228" y="630" type="qcurve" smooth="yes"/>
      <point x="170" y="630"/>
      <point x="170" y="542" type="qcurve" smooth="yes"/>
      <point x="170" y="485" type="line" smooth="yes"/>
      <point x="170" y="394"/>
    </contour>
    <contour>
      <point x="736" y="-12" type="qcurve"/>
      <point x="561" y="-10"/>
      <point x="561" y="186" type="qcurve"/>
      <point x="563" y="384"/>
      <point x="736" y="384" type="qcurve"/>
      <point x="912" y="382"/>
      <point x="912" y="186" type="qcurve"/>
      <point x="909" y="-12"/>
    </contour>
    <contour>
      <point x="739" y="68" type="line" smooth="yes"/>
      <point x="795" y="68"/>
      <point x="795" y="159" type="qcurve" smooth="yes"/>
      <point x="795" y="215" type="line" smooth="yes"/>
      <point x="795" y="304"/>
      <point x="736" y="304" type="qcurve" smooth="yes"/>
      <point x="678" y="304"/>
      <point x="678" y="216" type="qcurve" smooth="yes"/>
      <point x="678" y="159" type="line" smooth="yes"/>
      <point x="678" y="68"/>
      <point x="736" y="68" type="qcurve" smooth="yes"/>
    </contour>
  </outline>
</glyph>
<glyph name="comma" format="2">
  <advance width="300"/>
  <unicode hex="002C"/>
  <outline>
    <contour>
      <point x="130" y="-144" type="qcurve"/>
      <point x="36" y="-144" type="line"/>
      <point x="106" y="-81"/>
      <point x="130" y="-9" type="qcurve"/>
      <point x="68" y="3"/>
      <point x="68" y="64" type="qcurve" smooth="yes"/>
      <point x="68" y="83" type="line" smooth="yes"/>
      <point x="68" y="114"/>
      <point x="105" y="159"/>
      <point x="151" y="159" type="qcurve" smooth="yes"/>
      <point x="197" y="159"/>
      <point x="234" y="114"/>
      <point x="234" y="83" type="qcurve" smooth="yes"/>
      <point x="234" y="64" type="line" smooth="yes"/>
      <point x="234" y="-51"/>
    </contour>
  </outline>
</glyph>
<glyph name="period" format="2">
  <advance width="300"/>
  <unicode hex="002E"/>
  <outline>
    <contour>
      <point x="150" y="-11" type="qcurve" smooth="yes"/>
      <point x="104" y="-11"/>
      <point x="67" y="34"/>
      <point x="67" y="65" type="qcurve" smooth="yes"/>
      <point x="67" y="83" type="line" smooth="yes"/>
      <point x="67" y="113"/>
      <point x="104" y="159"/>
      <point x="150" y="159" type="qcurve" smooth="yes"/>
      <point x="195" y="159"/>
      <point x="233" y="114"/>
      <point x="233" y="83" type="qcurve" smooth="yes"/>
      <point x="233" y="65" type="line" smooth="yes"/>
      <point x="233" y="34"/>
      <point x="196" y="-11"/>
    </contour>
  </outline>
</glyph>
<glyph name="zero" format="2">
  <advance width="600"/>
  <unicode hex="0030"/>
  <outline>
    <contour>
      <point x="300" y="-12" type="qcurve" smooth="yes"/>
      <point x="207" y="-12"/>
      <point x="90" y="75"/>
      <point x="36" y="237"/>
      <point x="36" y="349" type="qcurve" smooth="yes"/>
      <point x="36" y="459"/>
      <point x="91" y="621"/>
      <point x="208" y="710"/>
      <point x="300" y="710" type="qcurve" smooth="yes"/>
      <point x="394" y="710"/>
      <point x="510" y="619"/>
      <point x="564" y="456"/>
      <point x="564" y="349" type="qcurve" smooth="yes"/>
      <point x="564" y="240"/>
      <point x="509" y="78"/>
      <point x="393" y="-12"/>
    </contour>
    <contour>
      <point x="300" y="105" type="qcurve" smooth="yes"/>
      <point x="368" y="105"/>
      <point x="415" y="208"/>
      <point x="415" y="302" type="qcurve" smooth="yes"/>
      <point x="415" y="413" type="line" smooth="yes"/>
      <point x="415" y="507"/>
      <point x="358" y="593"/>
      <point x="300" y="593" type="qcurve" smooth="yes"/>
      <point x="231" y="593"/>
      <point x="185" y="488"/>
      <point x="185" y="396" type="qcurve" smooth="yes"/>
      <point x="185" y="285" type="line" smooth="yes"/>
      <point x="185" y="191"/>
      <point x="242" y="105"/>
    </contour>
  </outline>
</glyph>
<glyph name="semicolon" format="2">
  <advance width="300"/>
  <unicode hex="003B"/>
  <outline>
    <contour>
      <point x="128" y="-144" type="qcurve"/>
      <point x="35" y="-144" type="line"/>
      <point x="104" y="-83"/>
      <point x="128" y="-9" type="qcurve"/>
      <point x="66" y="6"/>
      <point x="66" y="64" type="qcurve" smooth="yes"/>
      <point x="66" y="83" type="line" smooth="yes"/>
      <point x="66" y="114"/>
      <point x="103" y="159"/>
      <point x="149" y="159" type="qcurve" smooth="yes"/>
      <point x="195" y="159"/>
      <point x="232" y="114"/>
      <point x="232" y="83" type="qcurve" smooth="yes"/>
      <point x="232" y="64" type="line" smooth="yes"/>
      <point x="232" y="-51"/>
    </contour>
    <contour>
      <point x="149" y="362" type="qcurve" smooth="yes"/>
      <point x="103" y="362"/>
      <point x="66" y="407"/>
      <point x="66" y="438" type="qcurve" smooth="yes"/>
      <point x="66" y="456" type="line" smooth="yes"/>
      <point x="66" y="486"/>
      <point x="103" y="532"/>
      <point x="149" y="532" type="qcurve" smooth="yes"/>
      <point x="194" y="532"/>
      <point x="232" y="488"/>
      <point x="232" y="456" type="qcurve" smooth="yes"/>
      <point x="232" y="438" type="line" smooth="yes"/>
      <point x="232" y="407"/>
      <point x="195" y="362"/>
    </contour>
  </outline>
</glyph>
<glyph name="equal" format="2">
  <advance width="600"/>
  <unicode hex="003D"/>
  <outline>
    <contour>
      <point x="533" y="138" type="line"/>
      <point x="67" y="138" type="line"/>
      <point x="67" y="246" type="line"/>
      <point x="533" y="246" type="line"/>
    </contour>
    <contour>
      <point x="533" y="364" type="line"/>
      <point x="67" y="364" type="line"/>
      <point x="67" y="472" type="line"/>
      <point x="533" y="472" type="line"/>
    </contour>
  </outline>
</glyph>
<glyph name="question" format="2">
  <advance width="496"/>
  <unicode hex="003F"/>
  <outline>
    <contour>
      <point x="228" y="-12" type="qcurve" smooth="yes"/>
      <point x="144" y="-12"/>
      <point x="144" y="61" type="qcurve" smooth="yes"/>
      <point x="144" y="82" type="line" smooth="yes"/>
      <point x="144" y="155"/>
      <point x="228" y="155" type="qcurve" smooth="yes"/>
      <point x="274" y="155"/>
      <point x="311" y="113"/>
      <point x="311" y="82" type="qcurve" smooth="yes"/>
      <point x="311" y="61" type="line" smooth="yes"/>
      <point x="311" y="-12"/>
    </contour>
    <contour>
      <point x="290" y="228" type="line"/>
      <point x="162" y="228" type="line"/>
      <point x="162" y="383" type="line"/>
      <point x="323" y="385"/>
      <point x="323" y="496" type="qcurve" smooth="yes"/>
      <point x="323" y="523"/>
      <point x="314" y="558"/>
      <point x="299" y="572" type="qcurve" smooth="yes"/>
      <point x="275" y="594"/>
      <point x="235" y="594" type="qcurve" smooth="yes"/>
      <point x="187" y="594"/>
      <point x="136" y="541"/>
      <point x="129" y="503" type="qcurve"/>
      <point x="16" y="550" type="line"/>
      <point x="33" y="618"/>
      <point x="144" y="710"/>
      <point x="240" y="710" type="qcurve" smooth="yes"/>
      <point x="336" y="710"/>
      <point x="467" y="603"/>
      <point x="467" y="507" type="qcurve" smooth="yes"/>
      <point x="467" y="449"/>
      <point x="417" y="366"/>
      <point x="337" y="315"/>
      <point x="290" y="307" type="qcurve"/>
    </contour>
  </outline>
</glyph>
<glyph name="P" format="2">
  <advance width="646"/>
  <unicode hex="0050"/>
  <outline>
    <contour>
      <point x="219" y="0" type="line"/>
      <point x="80" y="0" type="line"/>
      <point x="80" y="698" type="line"/>
      <point x="400" y="698" type="line" smooth="yes"/>
      <point x="468" y="698"/>
      <point x="561" y="639"/>
      <point x="609" y="540"/>
      <point x="609" y="479" type="qcurve" smooth="yes"/>
      <point x="609" y="385"/>
      <point x="503" y="261"/>
      <point x="400" y="261" type="qcurve" smooth="yes"/>
      <point x="219" y="261" type="line"/>
    </contour>
    <contour>
      <point x="386" y="382" type="line" smooth="yes"/>
      <point x="465" y="382"/>
      <point x="465" y="457" type="qcurve" smooth="yes"/>
      <point x="465" y="502" type="line" smooth="yes"/>
      <point x="465" y="534"/>
      <point x="435" y="566"/>
      <point x="386" y="577"/>
      <point x="359" y="577" type="qcurve" smooth="yes"/>
      <point x="219" y="577" type="line"/>
      <point x="219" y="382" type="line"/>
    </contour>
  </outline>
</glyph>
<glyph name="Q" format="2">
  <advance width="713"/>
  <unicode hex="0051"/>
  <outline>
    <contour>
      <point x="528" y="36" type="line"/>
      <point x="521" y="31"/>
      <point x="514" y="28" type="qcurve"/>
      <point x="445" y="-12"/>
      <point x="357" y="-12" type="qcurve" smooth="yes"/>
      <point x="267" y="-12"/>
      <point x="130" y="68"/>
      <point x="52" y="229"/>
      <point x="52" y="349" type="qcurve" smooth="yes"/>
      <point x="52" y="526"/>
      <point x="220" y="710"/>
      <point x="357" y="710" type="qcurve" smooth="yes"/>
      <point x="460" y="710"/>
      <point x="595" y="618"/>
      <point x="662" y="455"/>
      <point x="662" y="349" type="qcurve" smooth="yes"/>
      <point x="662" y="227"/>
      <point x="623" y="147" type="qcurve" smooth="yes"/>
      <point x="613" y="127"/>
      <point x="601" y="109" type="qcurve"/>
      <point x="718" y="0" type="line"/>
      <point x="566" y="0" type="line"/>
    </contour>
    <contour>
      <point x="430" y="127" type="qcurve"/>
      <point x="295" y="253" type="line"/>
      <point x="447" y="253" type="line"/>
      <point x="498" y="205" type="line"/>
      <point x="514" y="249"/>
      <point x="514" y="313" type="qcurve" smooth="yes"/>
      <point x="514" y="402" type="line" smooth="yes"/>
      <point x="514" y="498"/>
      <point x="424" y="586"/>
      <point x="357" y="586" type="qcurve" smooth="yes"/>
      <point x="199" y="586"/>
      <point x="199" y="385" type="qcurve" smooth="yes"/>
      <point x="199" y="296" type="line" smooth="yes"/>
      <point x="199" y="201"/>
      <point x="289" y="112"/>
      <point x="357" y="112" type="qcurve" smooth="yes"/>
      <point x="399" y="112"/>
    </contour>
  </outline>
</glyph>
<glyph name="g" format="2">
  <advance width="556"/>
  <unicode hex="0067"/>
  <outline>
    <contour>
      <point x="271" y="-212" type="qcurve" smooth="yes"/>
      <point x="146" y="-212"/>
      <point x="26" y="-150"/>
      <point x="26" y="-89" type="qcurve" smooth="yes"/>
      <point x="26" y="-3"/>
      <point x="121" y="11" type="qcurve"/>
      <point x="121" y="22" type="line"/>
      <point x="51" y="41"/>
      <point x="51" y="110" type="qcurve" smooth="yes"/>
      <point x="51" y="179"/>
      <point x="147" y="203" type="qcurve"/>
      <point x="147" y="207" type="line"/>
      <point x="52" y="251"/>
      <point x="52" y="358" type="qcurve" smooth="yes"/>
      <point x="52" y="408"/>
      <point x="97" y="488"/>
      <point x="193" y="535"/>
      <point x="271" y="535" type="qcurve" smooth="yes"/>
      <point x="327" y="535"/>
      <point x="366" y="523" type="qcurve"/>
      <point x="538" y="523" type="line"/>
      <point x="538" y="431" type="line"/>
      <point x="471" y="431" type="line"/>
      <point x="491" y="399"/>
      <point x="491" y="358" type="qcurve" smooth="yes"/>
      <point x="491" y="311"/>
      <point x="448" y="231"/>
      <point x="352" y="183"/>
      <point x="272" y="183" type="qcurve" smooth="yes"/>
      <point x="226" y="183"/>
      <point x="187" y="193" type="qcurve"/>
      <point x="155" y="178"/>
      <point x="155" y="148" type="qcurve" smooth="yes"/>
      <point x="155" y="108"/>
      <point x="221" y="108" type="qcurve" smooth="yes"/>
      <point x="349" y="108" type="line" smooth="yes"/>
      <point x="450" y="108"/>
      <point x="548" y="37"/>
      <point x="548" y="-42" type="qcurve" smooth="yes"/>
      <point x="548" y="-131"/>
      <point x="413" y="-212"/>
    </contour>
    <contour>
      <point x="272" y="274" type="line" smooth="yes"/>
      <point x="363" y="274"/>
      <point x="363" y="352" type="qcurve" smooth="yes"/>
      <point x="363" y="379"/>
      <point x="350" y="421"/>
      <point x="311" y="444"/>
      <point x="272" y="444" type="qcurve" smooth="yes"/>
      <point x="225" y="444"/>
      <point x="180" y="405"/>
      <point x="180" y="358" type="qcurve" smooth="yes"/>
      <point x="180" y="274"/>
      <point x="264" y="274" type="qcurve" smooth="yes"/>
    </contour>
    <contour>
      <point x="306" y="-120" type="line" smooth="yes"/>
      <point x="421" y="-120"/>
      <point x="421" y="-61" type="qcurve" smooth="yes"/>
      <point x="421" y="-8"/>
      <point x="345" y="-8" type="qcurve" smooth="yes"/>
      <point x="157" y="-8" type="line"/>
      <point x="132" y="-27"/>
      <point x="132" y="-59" type="qcurve" smooth="yes"/>
      <point x="132" y="-120"/>
      <point x="236" y="-120" type="qcurve" smooth="yes"/>
    </contour>
  </outline>
</glyph>
<glyph name="n" format="2">
  <advance width="591"/>
  <unicode hex="006E"/>
  <outline>
    <contour>
      <point x="524" y="0" type="line"/>
      <point x="389" y="0" type="line"/>
      <point x="389" y="317" type="line" smooth="yes"/>
      <point x="389" y="424"/>
      <point x="311" y="424" type="qcurve" smooth="yes"/>
      <point x="286" y="424"/>
      <point x="263" y="416" type="qcurve" smooth="yes"/>
      <point x="207" y="397"/>
      <point x="207" y="343" type="qcurve" smooth="yes"/>
      <point x="207" y="0" type="line"/>
      <point x="72" y="0" type="line"/>
      <point x="72" y="523" type="line"/>
      <point x="207" y="523" type="line"/>
      <point x="207" y="435" type="line"/>
      <point x="213" y="435" type="line"/>
      <point x="247" y="535"/>
      <point x="359" y="535" type="qcurve" smooth="yes"/>
      <point x="418" y="535"/>
      <point x="491" y="482"/>
      <point x="524" y="389"/>
      <point x="524" y="329" type="qcurve" smooth="yes"/>
    </contour>
  </outline>
</glyph>
<glyph name="q" format="2">
  <advance width="603"/>
  <unicode hex="0071"/>
  <outline>
    <contour>
      <point x="531" y="-200" type="line"/>
      <point x="396" y="-200" type="line"/>
      <point x="396" y="87" type="line"/>
      <point x="391" y="87" type="line"/>
      <point x="370" y="36"/>
      <point x="293" y="-12"/>
      <point x="248" y="-12" type="qcurve" smooth="yes"/>
      <point x="175" y="-12"/>
      <point x="85" y="57"/>
      <point x="44" y="180"/>
      <point x="44" y="262" type="qcurve" smooth="yes"/>
      <point x="47" y="535"/>
      <point x="248" y="535" type="qcurve" smooth="yes"/>
      <point x="294" y="535"/>
      <point x="373" y="486"/>
      <point x="391" y="436" type="qcurve"/>
      <point x="396" y="436" type="line"/>
      <point x="396" y="523" type="line"/>
      <point x="531" y="523" type="line"/>
    </contour>
    <contour>
      <point x="292" y="99" type="qcurve" smooth="yes"/>
      <point x="346" y="99"/>
      <point x="396" y="150"/>
      <point x="396" y="193" type="qcurve" smooth="yes"/>
      <point x="396" y="343" type="line" smooth="yes"/>
      <point x="396" y="384"/>
      <point x="332" y="424"/>
      <point x="292" y="424" type="qcurve" smooth="yes"/>
      <point x="233" y="424"/>
      <point x="185" y="348"/>
      <point x="185" y="295" type="qcurve" smooth="yes"/>
      <point x="185" y="216" type="line" smooth="yes"/>
      <point x="185" y="168"/>
      <point x="239" y="99"/>
    </contour>
  </outline>
</glyph>
<glyph name="z" format="2">
  <advance width="508"/>
  <unicode hex="007A"/>
  <outline>
    <contour>
      <point x="470" y="0" type="line"/>
      <point x="38" y="0" type="line"/>
      <point x="38" y="107" type="line"/>
      <point x="305" y="417" type="line"/>
      <point x="47" y="417" type="line"/>
      <point x="47" y="523" type="line"/>
      <point x="463" y="523" type="line"/>
      <point x="463" y="418" type="line"/>
      <point x="194" y="106" type="line"/>
      <point x="470" y="106" type="line"/>
    </contour>
  </outline>
</glyph>
<glyph name="yen" format="2">
  <advance width="641"/>
  <unicode hex="00A5"/>
  <outline>
    <contour>
      <point x="389" y="0" type="line"/>
      <point x="249" y="0" type="line"/>
      <point x="249" y="135" type="line"/>
      <point x="80" y="135" type="line"/>
      <point x="80" y="221" type="line"/>
      <point x="249" y="221" type="line"/>
      <point x="249" y="294" type="line"/>
      <point x="80" y="294" type="line"/>
      <point x="80" y="380" type="line"/>
      <point x="195" y="380" type="line"/>
      <point x="22" y="698" type="line"/>
      <point x="179" y="698" type="line"/>
      <point x="324" y="415" type="line"/>
      <point x="327" y="415" type="line"/>
      <point x="470" y="698" type="line"/>
      <point x="619" y="698" type="line"/>
      <point x="443" y="380" type="line"/>
      <point x="558" y="380" type="line"/>
      <point x="558" y="294" type="line"/>
      <point x="389" y="294" type="line"/>
      <point x="389" y="221" type="line"/>
      <point x="558" y="221" type="line"/>
      <point x="558" y="135" type="line"/>
      <point x="389" y="135" type="line"/>
    </contour>
  </outline>
</glyph>
<glyph name="registered" format="2">
  <advance width="467"/>
  <unicode hex="00AE"/>
  <outline>
    <contour>
      <point x="233" y="298" type="qcurve" smooth="yes"/>
      <point x="173" y="298"/>
      <point x="82" y="356"/>
      <point x="32" y="450"/>
      <point x="32" y="504" type="qcurve" smooth="yes"/>
      <point x="32" y="589"/>
      <point x="146" y="710"/>
      <point x="233" y="710" type="qcurve" smooth="yes"/>
      <point x="324" y="710"/>
      <point x="435" y="587"/>
      <point x="435" y="504" type="qcurve" smooth="yes"/>
      <point x="435" y="419"/>
      <point x="321" y="298"/>
    </contour>
    <contour>
      <point x="233" y="344" type="qcurve" smooth="yes"/>
      <point x="301" y="344"/>
      <point x="383" y="426"/>
      <point x="383" y="489" type="qcurve" smooth="yes"/>
      <point x="383" y="519" type="line" smooth="yes"/>
      <point x="383" y="588"/>
      <point x="293" y="664"/>
      <point x="233" y="664" type="qcurve" smooth="yes"/>
      <point x="164" y="664"/>
      <point x="84" y="579"/>
      <point x="84" y="519" type="qcurve" smooth="yes"/>
      <point x="84" y="489" type="line" smooth="yes"/>
      <point x="84" y="419"/>
      <point x="175" y="344"/>
    </contour>
    <contour>
      <point x="332" y="399" type="line"/>
      <point x="267" y="399" type="line"/>
      <point x="233" y="464" type="line"/>
      <point x="208" y="464" type="line"/>
      <point x="208" y="399" type="line"/>
      <point x="148" y="399" type="line"/>
      <point x="148" y="608" type="line"/>
      <point x="248" y="608" type="line" smooth="yes"/>
      <point x="291" y="608"/>
      <point x="325" y="567"/>
      <point x="325" y="540" type="qcurve" smooth="yes"/>
      <point x="325" y="490"/>
      <point x="288" y="475" type="qcurve"/>
    </contour>
    <contour>
      <point x="237" y="508" type="line" smooth="yes"/>
      <point x="254" y="508"/>
      <point x="264" y="522"/>
      <point x="264" y="542" type="qcurve" smooth="yes"/>
      <point x="264" y="563"/>
      <point x="237" y="563" type="qcurve" smooth="yes"/>
      <point x="208" y="563" type="line"/>
      <point x="208" y="508" type="line"/>
    </contour>
  </outline>
</glyph>
<glyph name="degree" format="2">
  <advance width="470"/>
  <unicode hex="00B0"/>
  <outline>
    <contour>
      <point x="235" y="429" type="qcurve" smooth="yes"/>
      <point x="281" y="429"/>
      <point x="322" y="488"/>
      <point x="322" y="525" type="qcurve" smooth="yes"/>
      <point x="322" y="562"/>
      <point x="280" y="621"/>
      <point x="235" y="621" type="qcurve" smooth="yes"/>
      <point x="189" y="621"/>
      <point x="148" y="563"/>
      <point x="148" y="525" type="qcurve" smooth="yes"/>
      <point x="148" y="487"/>
      <point x="190" y="429"/>
    </contour>
    <contour>
      <point x="235" y="340" type="qcurve" smooth="yes"/>
      <point x="152" y="340"/>
      <point x="53" y="451"/>
      <point x="53" y="525" type="qcurve" smooth="yes"/>
      <point x="53" y="608"/>
      <point x="161" y="710"/>
      <point x="235" y="710" type="qcurve" smooth="yes"/>
      <point x="317" y="710"/>
      <point x="417" y="601"/>
      <point x="417" y="525" type="qcurve" smooth="yes"/>
      <point x="417" y="446"/>
      <point x="313" y="340"/>
    </contour>
  </outline>
</glyph>
<glyph name="plusminus" format="2">
  <advance width="600"/>
  <unicode hex="00B1"/>
  <outline>
    <contour>
      <point x="359" y="178" type="line"/>
      <point x="241" y="178" type="line"/>
      <point x="241" y="351" type="line"/>
      <point x="67" y="351" type="line"/>
      <point x="67" y="460" type="line"/>
      <point x="241" y="460" type="line"/>
      <point x="241" y="632" type="line"/>
      <point x="359" y="632" type="line"/>
      <point x="359" y="460" type="line"/>
      <point x="533" y="460" type="line"/>
      <point x="533" y="351" type="line"/>
      <point x="359" y="351" type="line"/>
    </contour>
    <contour>
      <point x="533" y="0" type="line"/>
      <point x="67" y="0" type="line"/>
      <point x="67" y="109" type="line"/>
      <point x="533" y="109" type="line"/>
    </contour>
  </outline>
</glyph>
<glyph name="twosuperior" format="2">
  <advance width="347"/>
  <unicode hex="00B2"/>
  <outline>
    <contour>
      <point x="320" y="329" type="line"/>
      <point x="34" y="329" type="line"/>
      <point x="34" y="411" type="line"/>
      <point x="147" y="498" type="line"/>
      <point x="182" y="523"/>
      <point x="213" y="561"/>
      <point x="213" y="585" type="qcurve" smooth="yes"/>
      <point x="213" y="625"/>
      <point x="166" y="625" type="qcurve" smooth="yes"/>
      <point x="118" y="625"/>
      <point x="106" y="577" type="qcurve"/>
      <point x="24" y="608" type="line"/>
      <point x="37" y="651"/>
      <point x="111" y="704"/>
      <point x="175" y="704" type="qcurve" smooth="yes"/>
      <point x="247" y="704"/>
      <point x="314" y="638"/>
      <point x="314" y="591" type="qcurve" smooth="yes"/>
      <point x="314" y="507"/>
      <point x="204" y="447" type="qcurve"/>
      <point x="137" y="406" type="line"/>
      <point x="320" y="406" type="line"/>
    </contour>
  </outline>
</glyph>
<glyph name="mu" format="2">
  <advance width="596"/>
  <unicode hex="00B5"/>
  <outline>
    <contour>
      <point x="206" y="-200" type="line"/>
      <point x="72" y="-200" type="line"/>
      <point x="72" y="523" type="line"/>
      <point x="207" y="523" type="line"/>
      <point x="207" y="205" type="line" smooth="yes"/>
      <point x="207" y="99"/>
      <point x="283" y="99" type="qcurve" smooth="yes"/>
      <point x="325" y="99"/>
      <point x="389" y="137"/>
      <point x="389" y="179" type="qcurve" smooth="yes"/>
      <point x="389" y="523" type="line"/>
      <point x="524" y="523" type="line"/>
      <point x="524" y="0" type="line"/>
      <point x="389" y="0" type="line"/>
      <point x="389" y="87" type="line"/>
      <point x="385" y="87" type="line"/>
      <point x="354" y="-12"/>
      <point x="264" y="-12" type="qcurve" smooth="yes"/>
      <point x="207" y="-12"/>
      <point x="186" y="32" type="qcurve"/>
      <point x="182" y="32" type="line"/>
      <point x="190" y="-7"/>
      <point x="196" y="-37"/>
      <point x="198" y="-50"/>
      <point x="200" y="-62"/>
      <point x="203" y="-84"/>
      <point x="206" y="-109" type="qcurve"/>
    </contour>
  </outline>
</glyph>
<glyph name="u00B9" format="2">
  <advance width="317"/>
  <unicode hex="00B9"/>
  <outline>
    <contour>
      <point x="240" y="329" type="line"/>
      <point x="146" y="329" type="line"/>
      <point x="146" y="613" type="line"/>
      <point x="66" y="576" type="line"/>
      <point x="66" y="661" type="line"/>
      <point x="141" y="698" type="line"/>
      <point x="240" y="698" type="line"/>
    </contour>
  </outline>
</glyph>
<glyph name="threequarters" format="2">
  <advance width="828"/>
  <unicode hex="00BE"/>
  <outline>
    <contour>
      <point x="670" y="141" type="line"/>
      <point x="670" y="269" type="line"/>
      <point x="664" y="269" type="line"/>
      <point x="574" y="141" type="line"/>
    </contour>
    <contour>
      <point x="761" y="0" type="line"/>
      <point x="670" y="0" type="line"/>
      <point x="670" y="70" type="line"/>
      <point x="500" y="70" type="line"/>
      <point x="500" y="149" type="line"/>
      <point x="652" y="369" type="line"/>
      <point x="761" y="369" type="line"/>
      <point x="761" y="141" type="line"/>
      <point x="809" y="141" type="line"/>
      <point x="809" y="70" type="line"/>
      <point x="761" y="70" type="line"/>
    </contour>
    <contour>
      <point x="159" y="323" type="qcurve" smooth="yes"/>
      <point x="47" y="323"/>
      <point x="8" y="396" type="qcurve"/>
      <point x="78" y="450" type="line"/>
      <point x="104" y="396"/>
      <point x="159" y="396" type="qcurve"/>
      <point x="214" y="399"/>
      <point x="214" y="442" type="qcurve" smooth="yes"/>
      <point x="214" y="480"/>
      <point x="150" y="480" type="qcurve" smooth="yes"/>
      <point x="116" y="480" type="line"/>
      <point x="116" y="556" type="line"/>
      <point x="152" y="556" type="line" smooth="yes"/>
      <point x="181" y="556"/>
      <point x="207" y="574"/>
      <point x="207" y="587" type="qcurve" smooth="yes"/>
      <point x="207" y="631"/>
      <point x="158" y="631" type="qcurve" smooth="yes"/>
      <point x="113" y="631"/>
      <point x="78" y="587" type="qcurve"/>
      <point x="19" y="641" type="line"/>
      <point x="63" y="704"/>
      <point x="161" y="704" type="qcurve" smooth="yes"/>
      <point x="223" y="704"/>
      <point x="307" y="654"/>
      <point x="307" y="604" type="qcurve" smooth="yes"/>
      <point x="307" y="533"/>
      <point x="231" y="522" type="qcurve"/>
      <point x="231" y="519" type="line"/>
      <point x="313" y="506"/>
      <point x="313" y="433" type="qcurve" smooth="yes"/>
      <point x="313" y="377"/>
      <point x="222" y="323"/>
    </contour>
    <contour>
      <point x="215" y="0" type="line"/>
      <point x="113" y="0" type="line"/>
      <point x="634" y="698" type="line"/>
      <point x="735" y="698" type="line"/>
    </contour>
  </outline>
</glyph>
<glyph name="Aring" format="2">
  <advance width="677"/>
  <unicode hex="00C5"/>
  <outline>
    <contour>
      <point x="424" y="292" type="line"/>
      <point x="338" y="571" type="line"/>
      <point x="333" y="571" type="line"/>
      <point x="248" y="292" type="line"/>
    </contour>
    <contour>
      <point x="336" y="794" type="qcurve"/>
      <point x="388" y="796"/>
      <point x="388" y="846" type="qcurve" smooth="yes"/>
      <point x="388" y="878" type="line"/>
      <point x="386" y="929"/>
      <point x="336" y="929" type="qcurve" smooth="yes"/>
      <point x="308" y="929"/>
      <point x="284" y="899"/>
      <point x="284" y="878" type="qcurve" smooth="yes"/>
      <point x="284" y="846" type="line" smooth="yes"/>
      <point x="284" y="794"/>
    </contour>
    <contour>
      <point x="657" y="0" type="line"/>
      <point x="512" y="0" type="line"/>
      <point x="458" y="174" type="line"/>
      <point x="215" y="174" type="line"/>
      <point x="162" y="0" type="line"/>
      <point x="21" y="0" type="line"/>
      <point x="253" y="698" type="line"/>
      <point x="426" y="698" type="line"/>
    </contour>
    <contour>
      <point x="336" y="724" type="qcurve" smooth="yes"/>
      <point x="279" y="724"/>
      <point x="194" y="799"/>
      <point x="194" y="862" type="qcurve" smooth="yes"/>
      <point x="194" y="925"/>
      <point x="280" y="999"/>
      <point x="336" y="999" type="qcurve" smooth="yes"/>
      <point x="392" y="999"/>
      <point x="478" y="925"/>
      <point x="478" y="862" type="qcurve" smooth="yes"/>
      <point x="478" y="799"/>
      <point x="391" y="724"/>
    </contour>
  </outline>
</glyph>
<glyph name="Otilde" format="2">
  <advance width="713"/>
  <unicode hex="00D5"/>
  <outline>
    <contour>
      <point x="357" y="112" type="qcurve" smooth="yes"/>
      <point x="514" y="112"/>
      <point x="514" y="313" type="qcurve" smooth="yes"/>
      <point x="514" y="402" type="line" smooth="yes"/>
      <point x="514" y="498"/>
      <point x="424" y="586"/>
      <point x="357" y="586" type="qcurve" smooth="yes"/>
      <point x="199" y="586"/>
      <point x="199" y="385" type="qcurve" smooth="yes"/>
      <point x="199" y="296" type="line" smooth="yes"/>
      <point x="199" y="201"/>
      <point x="289" y="112"/>
    </contour>
    <contour>
      <point x="357" y="-12" type="qcurve" smooth="yes"/>
      <point x="267" y="-12"/>
      <point x="130" y="68"/>
      <point x="52" y="229"/>
      <point x="52" y="349" type="qcurve" smooth="yes"/>
      <point x="52" y="526"/>
      <point x="220" y="710"/>
      <point x="357" y="710" type="qcurve" smooth="yes"/>
      <point x="460" y="710"/>
      <point x="595" y="618"/>
      <point x="662" y="455"/>
      <point x="662" y="349" type="qcurve" smooth="yes"/>
      <point x="662" y="227"/>
      <point x="583" y="67"/>
      <point x="445" y="-12"/>
    </contour>
    <contour>
      <point x="432" y="766" type="qcurve" smooth="yes"/>
      <point x="411" y="766"/>
      <point x="381" y="775"/>
      <point x="365" y="782" type="qcurve" smooth="yes"/>
      <point x="312" y="804" type="line"/>
      <point x="296" y="809"/>
      <point x="278" y="809" type="qcurve" smooth="yes"/>
      <point x="243" y="809"/>
      <point x="219" y="784" type="qcurve"/>
      <point x="171" y="847" type="line"/>
      <point x="210" y="909"/>
      <point x="281" y="909" type="qcurve" smooth="yes"/>
      <point x="312" y="909"/>
      <point x="336" y="897" type="qcurve" smooth="yes"/>
      <point x="398" y="865"/>
      <point x="435" y="865" type="qcurve" smooth="yes"/>
      <point x="468" y="865"/>
      <point x="494" y="890" type="qcurve"/>
      <point x="542" y="828" type="line"/>
      <point x="504" y="766"/>
    </contour>
  </outline>
</glyph>
<glyph name="Thorn" format="2">
  <advance width="646"/>
  <unicode hex="00DE"/>
  <outline>
    <contour>
      <point x="386" y="257" type="line"/>
      <point x="465" y="259"/>
      <point x="465" y="332" type="qcurve" smooth="yes"/>
      <point x="465" y="377" type="line" smooth="yes"/>
      <point x="465" y="418"/>
      <point x="419" y="452"/>
      <point x="386" y="452" type="qcurve" smooth="yes"/>
      <point x="219" y="452" type="line"/>
      <point x="219" y="257" type="line"/>
    </contour>
    <contour>
      <point x="219" y="0" type="line"/>
      <point x="80" y="0" type="line"/>
      <point x="80" y="698" type="line"/>
      <point x="219" y="698" type="line"/>
      <point x="219" y="573" type="line"/>
      <point x="400" y="573" type="line" smooth="yes"/>
      <point x="469" y="573"/>
      <point x="562" y="514"/>
      <point x="609" y="415"/>
      <point x="609" y="355" type="qcurve" smooth="yes"/>
      <point x="609" y="258"/>
      <point x="496" y="136"/>
      <point x="400" y="136" type="qcurve" smooth="yes"/>
      <point x="219" y="136" type="line"/>
    </contour>
  </outline>
</glyph>
<glyph name="germandbls" format="2">
  <advance width="682"/>
  <unicode hex="00DF"/>
  <outline>
    <contour>
      <point x="465" y="-12" type="qcurve" smooth="yes"/>
      <point x="342" y="-12"/>
      <point x="281" y="65" type="qcurve"/>
      <point x="359" y="143" type="line"/>
      <point x="403" y="90"/>
      <point x="465" y="90" type="qcurve" smooth="yes"/>
      <point x="532" y="90"/>
      <point x="532" y="152" type="qcurve" smooth="yes"/>
      <point x="532" y="196"/>
      <point x="485" y="212" type="qcurve"/>
      <point x="461" y="221" type="line" smooth="yes"/>
      <point x="409" y="240"/>
      <point x="347" y="272"/>
      <point x="316" y="327"/>
      <point x="316" y="374" type="qcurve" smooth="yes"/>
      <point x="316" y="497"/>
      <point x="464" y="528" type="qcurve"/>
      <point x="464" y="650"/>
      <point x="352" y="650" type="qcurve" smooth="yes"/>
      <point x="281" y="650"/>
      <point x="233" y="578"/>
      <point x="233" y="510" type="qcurve" smooth="yes"/>
      <point x="233" y="0" type="line"/>
      <point x="98" y="0" type="line"/>
      <point x="98" y="417" type="line"/>
      <point x="23" y="417" type="line"/>
      <point x="23" y="523" type="line"/>
      <point x="98" y="523" type="line"/>
      <point x="98" y="599"/>
      <point x="163" y="701"/>
      <point x="275" y="752"/>
      <point x="345" y="752" type="qcurve" smooth="yes"/>
      <point x="460" y="752"/>
      <point x="589" y="628"/>
      <point x="589" y="529" type="qcurve" smooth="yes"/>
      <point x="589" y="439" type="line"/>
      <point x="534" y="439" type="line" smooth="yes"/>
      <point x="440" y="439"/>
      <point x="440" y="391" type="qcurve" smooth="yes"/>
      <point x="440" y="360"/>
      <point x="472" y="333"/>
      <point x="521" y="320" type="qcurve"/>
      <point x="557" y="309"/>
      <point x="582" y="298" type="qcurve" smooth="yes"/>
      <point x="657" y="263"/>
      <point x="657" y="168" type="qcurve" smooth="yes"/>
      <point x="657" y="107"/>
      <point x="604" y="27"/>
      <point x="517" y="-12"/>
    </contour>
  </outline>
</glyph>
<glyph name="atilde" format="2">
  <advance width="548"/>
  <unicode hex="00E3"/>
  <outline>
    <contour>
      <point x="248" y="84" type="qcurve" smooth="yes"/>
      <point x="285" y="84"/>
      <point x="347" y="115"/>
      <point x="347" y="157" type="qcurve" smooth="yes"/>
      <point x="347" y="224" type="line"/>
      <point x="277" y="224" type="line" smooth="yes"/>
      <point x="172" y="224"/>
      <point x="172" y="164" type="qcurve" smooth="yes"/>
      <point x="172" y="145" type="line" smooth="yes"/>
      <point x="172" y="84"/>
    </contour>
    <contour>
      <point x="201" y="-12" type="qcurve" smooth="yes"/>
      <point x="117" y="-12"/>
      <point x="36" y="75"/>
      <point x="36" y="142" type="qcurve" smooth="yes"/>
      <point x="36" y="227"/>
      <point x="158" y="303"/>
      <point x="260" y="303" type="qcurve" smooth="yes"/>
      <point x="347" y="303" type="line"/>
      <point x="347" y="340" type="line" smooth="yes"/>
      <point x="347" y="428"/>
      <point x="253" y="428" type="qcurve" smooth="yes"/>
      <point x="209" y="428"/>
      <point x="155" y="392"/>
      <point x="136" y="363" type="qcurve"/>
      <point x="56" y="435" type="line"/>
      <point x="117" y="535"/>
      <point x="263" y="535" type="qcurve" smooth="yes"/>
      <point x="482" y="535"/>
      <point x="482" y="347" type="qcurve" smooth="yes"/>
      <point x="482" y="0" type="line"/>
      <point x="360" y="0" type="line"/>
      <point x="360" y="90" type="line"/>
      <point x="354" y="90" type="line"/>
      <point x="337" y="35"/>
      <point x="255" y="-12"/>
    </contour>
    <contour>
      <point x="341" y="603" type="qcurve" smooth="yes"/>
      <point x="311" y="603"/>
      <point x="265" y="626"/>
      <point x="239" y="634" type="qcurve"/>
      <point x="210" y="647"/>
      <point x="187" y="647" type="qcurve" smooth="yes"/>
      <point x="169" y="647"/>
      <point x="143" y="633"/>
      <point x="129" y="621" type="qcurve"/>
      <point x="80" y="684" type="line"/>
      <point x="119" y="746"/>
      <point x="191" y="746" type="qcurve" smooth="yes"/>
      <point x="221" y="746"/>
      <point x="268" y="723"/>
      <point x="293" y="715" type="qcurve"/>
      <point x="322" y="702"/>
      <point x="345" y="702" type="qcurve" smooth="yes"/>
      <point x="378" y="702"/>
      <point x="403" y="728" type="qcurve"/>
      <point x="452" y="665" type="line"/>
      <point x="414" y="603"/>
    </contour>
  </outline>
</glyph>
<glyph name="edieresis" format="2">
  <advance width="560"/>
  <unicode hex="00EB"/>
  <outline>
    <contour>
      <point x="180" y="603" type="qcurve" smooth="yes"/>
      <point x="106" y="603"/>
      <point x="106" y="663" type="qcurve" smooth="yes"/>
      <point x="106" y="686" type="line" smooth="yes"/>
      <point x="106" y="745"/>
      <point x="180" y="745" type="qcurve" smooth="yes"/>
      <point x="254" y="745"/>
      <point x="254" y="686" type="qcurve" smooth="yes"/>
      <point x="254" y="663" type="line" smooth="yes"/>
      <point x="254" y="603"/>
    </contour>
    <contour>
      <point x="393" y="603" type="qcurve" smooth="yes"/>
      <point x="319" y="603"/>
      <point x="319" y="663" type="qcurve" smooth="yes"/>
      <point x="319" y="686" type="line" smooth="yes"/>
      <point x="319" y="745"/>
      <point x="393" y="745" type="qcurve" smooth="yes"/>
      <point x="467" y="745"/>
      <point x="467" y="686" type="qcurve" smooth="yes"/>
      <point x="467" y="663" type="line" smooth="yes"/>
      <point x="467" y="603"/>
    </contour>
    <contour>
      <point x="286" y="-12" type="qcurve" smooth="yes"/>
      <point x="204" y="-12"/>
      <point x="94" y="58"/>
      <point x="38" y="182"/>
      <point x="38" y="262" type="qcurve" smooth="yes"/>
      <point x="38" y="339"/>
      <point x="91" y="463"/>
      <point x="200" y="535"/>
      <point x="282" y="535" type="qcurve" smooth="yes"/>
      <point x="370" y="535"/>
      <point x="475" y="459"/>
      <point x="522" y="337"/>
      <point x="522" y="270" type="qcurve" smooth="yes"/>
      <point x="522" y="227" type="line"/>
      <point x="178" y="227" type="line"/>
      <point x="178" y="95"/>
      <point x="301" y="95" type="qcurve" smooth="yes"/>
      <point x="381" y="95"/>
      <point x="433" y="163" type="qcurve"/>
      <point x="503" y="81" type="line"/>
      <point x="430" y="-12"/>
    </contour>
    <contour>
      <point x="381" y="309" type="line"/>
      <point x="381" y="434"/>
      <point x="284" y="434" type="qcurve" smooth="yes"/>
      <point x="245" y="434"/>
      <point x="198" y="399"/>
      <point x="178" y="342"/>
      <point x="178" y="309" type="qcurve"/>
    </contour>
  </outline>
</glyph>
<glyph name="idieresis" format="2">
  <advance width="279"/>
  <unicode hex="00EF"/>
  <outline>
    <contour>
      <point x="34" y="603" type="qcurve" smooth="yes"/>
      <point x="-40" y="603"/>
      <point x="-40" y="663" type="qcurve" smooth="yes"/>
      <point x="-40" y="686" type="line" smooth="yes"/>
      <point x="-40" y="745"/>
      <point x="34" y="745" type="qcurve" smooth="yes"/>
      <point x="108" y="745"/>
      <point x="108" y="686" type="qcurve" smooth="yes"/>
      <point x="108" y="663" type="line" smooth="yes"/>
      <point x="108" y="603"/>
    </contour>
    <contour>
      <point x="247" y="603" type="qcurve" smooth="yes"/>
      <point x="173" y="603"/>
      <point x="173" y="663" type="qcurve" smooth="yes"/>
      <point x="173" y="686" type="line" smooth="yes"/>
      <point x="173" y="745"/>
      <point x="247" y="745" type="qcurve" smooth="yes"/>
      <point x="321" y="745"/>
      <point x="321" y="686" type="qcurve" smooth="yes"/>
      <point x="321" y="663" type="line" smooth="yes"/>
      <point x="321" y="603"/>
    </contour>
    <contour>
      <point x="207" y="0" type="line"/>
      <point x="72" y="0" type="line"/>
      <point x="72" y="523" type="line"/>
      <point x="207" y="523" type="line"/>
    </contour>
  </outline>
</glyph>
<glyph name="otilde" format="2">
  <advance width="564"/>
  <unicode hex="00F5"/>
  <outline>
    <contour>
      <point x="357" y="603" type="qcurve" smooth="yes"/>
      <point x="327" y="603"/>
      <point x="281" y="626"/>
      <point x="255" y="634" type="qcurve"/>
      <point x="226" y="647"/>
      <point x="203" y="647" type="qcurve" smooth="yes"/>
      <point x="185" y="647"/>
      <point x="159" y="633"/>
      <point x="145" y="621" type="qcurve"/>
      <point x="96" y="684" type="line"/>
      <point x="135" y="746"/>
      <point x="207" y="746" type="qcurve" smooth="yes"/>
      <point x="237" y="746"/>
      <point x="284" y="723"/>
      <point x="309" y="715" type="qcurve"/>
      <point x="338" y="702"/>
      <point x="361" y="702" type="qcurve" smooth="yes"/>
      <point x="394" y="702"/>
      <point x="419" y="728" type="qcurve"/>
      <point x="468" y="665" type="line"/>
      <point x="430" y="603"/>
    </contour>
    <contour>
      <point x="282" y="-12" type="qcurve" smooth="yes"/>
      <point x="201" y="-12"/>
      <point x="92" y="60"/>
      <point x="38" y="184"/>
      <point x="38" y="262" type="qcurve" smooth="yes"/>
      <point x="38" y="395"/>
      <point x="174" y="535"/>
      <point x="282" y="535" type="qcurve" smooth="yes"/>
      <point x="397" y="535"/>
      <point x="526" y="387"/>
      <point x="526" y="262" type="qcurve" smooth="yes"/>
      <point x="526" y="138"/>
      <point x="398" y="-12"/>
    </contour>
    <contour>
      <point x="282" y="96" type="qcurve" smooth="yes"/>
      <point x="342" y="96"/>
      <point x="385" y="172"/>
      <point x="385" y="235" type="qcurve" smooth="yes"/>
      <point x="385" y="312" type="line"/>
      <point x="380" y="427"/>
      <point x="282" y="427" type="qcurve" smooth="yes"/>
      <point x="221" y="427"/>
      <point x="179" y="350"/>
      <point x="179" y="288" type="qcurve" smooth="yes"/>
      <point x="179" y="211" type="line"/>
      <point x="182" y="96"/>
    </contour>
  </outline>
</glyph>
<glyph name="divide" format="2">
  <advance width="600"/>
  <unicode hex="00F7"/>
  <outline>
    <contour>
      <point x="300" y="33" type="qcurve" smooth="yes"/>
      <point x="255" y="33"/>
      <point x="218" y="71"/>
      <point x="218" y="98" type="qcurve" smooth="yes"/>
      <point x="218" y="121" type="line" smooth="yes"/>
      <point x="218" y="186"/>
      <point x="300" y="186" type="qcurve" smooth="yes"/>
      <point x="345" y="186"/>
      <point x="382" y="148"/>
      <point x="382" y="121" type="qcurve" smooth="yes"/>
      <point x="382" y="98" type="line" smooth="yes"/>
      <point x="382" y="73"/>
      <point x="345" y="33"/>
    </contour>
    <contour>
      <point x="300" y="424" type="qcurve" smooth="yes"/>
      <point x="255" y="424"/>
      <point x="218" y="462"/>
      <point x="218" y="489" type="qcurve" smooth="yes"/>
      <point x="218" y="512" type="line" smooth="yes"/>
      <point x="218" y="577"/>
      <point x="300" y="577" type="qcurve" smooth="yes"/>
      <point x="345" y="577"/>
      <point x="382" y="539"/>
      <point x="382" y="512" type="qcurve" smooth="yes"/>
      <point x="382" y="489" type="line" smooth="yes"/>
      <point x="382" y="464"/>
      <point x="345" y="424"/>
    </contour>
    <contour>
      <point x="532" y="252" type="line"/>
      <point x="67" y="252" type="line"/>
      <point x="67" y="360" type="line"/>
      <point x="532" y="360" type="line"/>
    </contour>
  </outline>
</glyph>
<glyph name="uacute" format="2">
  <advance width="591"/>
  <unicode hex="00FA"/>
  <outline>
    <contour>
      <point x="232" y="-12" type="qcurve" smooth="yes"/>
      <point x="172" y="-12"/>
      <point x="99" y="40"/>
      <point x="66" y="133"/>
      <point x="66" y="193" type="qcurve" smooth="yes"/>
      <point x="66" y="523" type="line"/>
      <point x="201" y="523" type="line"/>
      <point x="201" y="206" type="line" smooth="yes"/>
      <point x="201" y="99"/>
      <point x="285" y="99" type="qcurve" smooth="yes"/>
      <point x="321" y="99"/>
      <point x="384" y="138"/>
      <point x="384" y="180" type="qcurve" smooth="yes"/>
      <point x="384" y="523" type="line"/>
      <point x="519" y="523" type="line"/>
      <point x="519" y="0" type="line"/>
      <point x="384" y="0" type="line"/>
      <point x="384" y="87" type="line"/>
      <point x="379" y="87" type="line"/>
      <point x="349" y="-12"/>
    </contour>
    <contour>
      <point x="308" y="580" type="line"/>
      <point x="227" y="620" type="line"/>
      <point x="323" y="809" type="line"/>
      <point x="437" y="753" type="line"/>
    </contour>
  </outline>
</glyph>
<glyph name="ucircumflex" format="2">
  <advance width="591"/>
  <unicode hex="00FB"/>
  <outline>
    <contour>
      <point x="232" y="-12" type="qcurve" smooth="yes"/>
      <point x="172" y="-12"/>
      <point x="99" y="40"/>
      <point x="66" y="133"/>
      <point x="66" y="193" type="qcurve" smooth="yes"/>
      <point x="66" y="523" type="line"/>
      <point x="201" y="523" type="line"/>
      <point x="201" y="206" type="line" smooth="yes"/>
      <point x="201" y="99"/>
      <point x="285" y="99" type="qcurve" smooth="yes"/>
      <point x="321" y="99"/>
      <point x="384" y="138"/>
      <point x="384" y="180" type="qcurve" smooth="yes"/>
      <point x="384" y="523" type="line"/>
      <point x="519" y="523" type="line"/>
      <point x="519" y="0" type="line"/>
      <point x="384" y="0" type="line"/>
      <point x="384" y="87" type="line"/>
      <point x="379" y="87" type="line"/>
      <point x="349" y="-12"/>
    </contour>
    <contour>
      <point x="414" y="580" type="line"/>
      <point x="294" y="696" type="line"/>
      <point x="173" y="580" type="line"/>
      <point x="106" y="633" type="line"/>
      <point x="234" y="789" type="line"/>
      <point x="353" y="789" type="line"/>
      <point x="481" y="633" type="line"/>
    </contour>
  </outline>
</glyph>
<glyph name="yacute" format="2">
  <advance width="527"/>
  <unicode hex="00FD"/>
  <outline>
    <contour>
      <point x="159" y="-200" type="qcurve" smooth="yes"/>
      <point x="76" y="-200" type="line"/>
      <point x="76" y="-94" type="line"/>
      <point x="172" y="-94" type="line"/>
      <point x="194" y="-26" type="line"/>
      <point x="8" y="523" type="line"/>
      <point x="142" y="523" type="line"/>
      <point x="237" y="224"/>
      <point x="241" y="205" type="qcurve"/>
      <point x="252" y="161"/>
      <point x="264" y="119" type="qcurve"/>
      <point x="269" y="119" type="line"/>
      <point x="298" y="224" type="line"/>
      <point x="392" y="523" type="line"/>
      <point x="519" y="523" type="line"/>
      <point x="312" y="-88" type="line"/>
      <point x="294" y="-146"/>
      <point x="222" y="-200"/>
    </contour>
    <contour>
      <point x="282" y="580" type="line"/>
      <point x="201" y="620" type="line"/>
      <point x="297" y="809" type="line"/>
      <point x="411" y="753" type="line"/>
    </contour>
  </outline>
</glyph>
<glyph name="ydieresis" format="2">
  <advance width="527"/>
  <unicode hex="00FF"/>
  <outline>
    <contour>
      <point x="159" y="-200" type="qcurve" smooth="yes"/>
      <point x="76" y="-200" type="line"/>
      <point x="76" y="-94" type="line"/>
      <point x="172" y="-94" type="line"/>
      <point x="194" y="-26" type="line"/>
      <point x="8" y="523" type="line"/>
      <point x="142" y="523" type="line"/>
      <point x="237" y="224"/>
      <point x="241" y="205" type="qcurve"/>
      <point x="252" y="161"/>
      <point x="264" y="119" type="qcurve"/>
      <point x="269" y="119" type="line"/>
      <point x="298" y="224" type="line"/>
      <point x="392" y="523" type="line"/>
      <point x="519" y="523" type="line"/>
      <point x="312" y="-88" type="line"/>
      <point x="294" y="-146"/>
      <point x="222" y="-200"/>
    </contour>
    <contour>
      <point x="161" y="603" type="qcurve" smooth="yes"/>
      <point x="87" y="603"/>
      <point x="87" y="663" type="qcurve" smooth="yes"/>
      <point x="87" y="686" type="line" smooth="yes"/>
      <point x="87" y="745"/>
      <point x="161" y="745" type="qcurve" smooth="yes"/>
      <point x="235" y="745"/>
      <point x="235" y="686" type="qcurve" smooth="yes"/>
      <point x="235" y="663" type="line" smooth="yes"/>
      <point x="235" y="603"/>
    </contour>
    <contour>
      <point x="375" y="603" type="qcurve" smooth="yes"/>
      <point x="301" y="603"/>
      <point x="301" y="663" type="qcurve" smooth="yes"/>
      <point x="301" y="686" type="line" smooth="yes"/>
      <point x="301" y="745"/>
      <point x="375" y="745" type="qcurve" smooth="yes"/>
      <point x="449" y="745"/>
      <point x="449" y="686" type="qcurve" smooth="yes"/>
      <point x="449" y="663" type="line" smooth="yes"/>
      <point x="449" y="603"/>
    </contour>
  </outline>
</glyph>
<glyph name="abreve" format="2">
  <advance width="548"/>
  <unicode hex="0103"/>
  <outline>
    <contour>
      <point x="266" y="582" type="qcurve" smooth="yes"/>
      <point x="216" y="582"/>
      <point x="143" y="627"/>
      <point x="95" y="700"/>
      <point x="83" y="744" type="qcurve"/>
      <point x="157" y="782" type="line"/>
      <point x="164" y="770" type="line"/>
      <point x="187" y="728"/>
      <point x="230" y="678"/>
      <point x="266" y="678" type="qcurve" smooth="yes"/>
      <point x="301" y="678"/>
      <point x="342" y="726"/>
      <point x="369" y="771" type="qcurve"/>
      <point x="375" y="782" type="line"/>
      <point x="448" y="744" type="line"/>
      <point x="427" y="673"/>
      <point x="335" y="582"/>
    </contour>
    <contour>
      <point x="201" y="-12" type="qcurve" smooth="yes"/>
      <point x="117" y="-12"/>
      <point x="36" y="75"/>
      <point x="36" y="142" type="qcurve" smooth="yes"/>
      <point x="36" y="227"/>
      <point x="158" y="303"/>
      <point x="260" y="303" type="qcurve" smooth="yes"/>
      <point x="347" y="303" type="line"/>
      <point x="347" y="340" type="line" smooth="yes"/>
      <point x="347" y="428"/>
      <point x="253" y="428" type="qcurve" smooth="yes"/>
      <point x="209" y="428"/>
      <point x="155" y="392"/>
      <point x="136" y="363" type="qcurve"/>
      <point x="56" y="435" type="line"/>
      <point x="117" y="535"/>
      <point x="263" y="535" type="qcurve" smooth="yes"/>
      <point x="482" y="535"/>
      <point x="482" y="347" type="qcurve" smooth="yes"/>
      <point x="482" y="0" type="line"/>
      <point x="360" y="0" type="line"/>
      <point x="360" y="90" type="line"/>
      <point x="354" y="90" type="line"/>
      <point x="337" y="35"/>
      <point x="255" y="-12"/>
    </contour>
    <contour>
      <point x="248" y="84" type="qcurve" smooth="yes"/>
      <point x="285" y="84"/>
      <point x="347" y="115"/>
      <point x="347" y="157" type="qcurve" smooth="yes"/>
      <point x="347" y="224" type="line"/>
      <point x="277" y="224" type="line" smooth="yes"/>
      <point x="172" y="224"/>
      <point x="172" y="164" type="qcurve" smooth="yes"/>
      <point x="172" y="145" type="line" smooth="yes"/>
      <point x="172" y="84"/>
    </contour>
  </outline>
</glyph>
<glyph name="Aogonek" format="2">
  <advance width="677"/>
  <unicode hex="0104"/>
  <outline>
    <contour>
      <point x="571" y="-211" type="qcurve" smooth="yes"/>
      <point x="452" y="-211"/>
      <point x="452" y="-128" type="qcurve" smooth="yes"/>
      <point x="452" y="-87"/>
      <point x="510" y="-30"/>
      <point x="568" y="-4" type="qcurve"/>
      <point x="567" y="0" type="line"/>
      <point x="512" y="0" type="line"/>
      <point x="458" y="174" type="line"/>
      <point x="215" y="174" type="line"/>
      <point x="162" y="0" type="line"/>
      <point x="21" y="0" type="line"/>
      <point x="253" y="698" type="line"/>
      <point x="426" y="698" type="line"/>
      <point x="657" y="0" type="line"/>
      <point x="588" y="-44"/>
      <point x="545" y="-90"/>
      <point x="545" y="-108" type="qcurve" smooth="yes"/>
      <point x="545" y="-141"/>
      <point x="582" y="-141" type="qcurve" smooth="yes"/>
      <point x="612" y="-141"/>
      <point x="636" y="-114" type="qcurve"/>
      <point x="686" y="-162" type="line"/>
      <point x="662" y="-211"/>
    </contour>
    <contour>
      <point x="424" y="292" type="line"/>
      <point x="338" y="571" type="line"/>
      <point x="333" y="571" type="line"/>
      <point x="248" y="292" type="line"/>
    </contour>
  </outline>
</glyph>
<glyph name="cacute" format="2">
  <advance width="515"/>
  <unicode hex="0107"/>
  <outline>
    <contour>
      <point x="290" y="580" type="line"/>
      <point x="209" y="620" type="line"/>
      <point x="305" y="809" type="line"/>
      <point x="419" y="753" type="line"/>
    </contour>
    <contour>
      <point x="280" y="-12" type="qcurve" smooth="yes"/>
      <point x="166" y="-12"/>
      <point x="38" y="134"/>
      <point x="38" y="262" type="qcurve" smooth="yes"/>
      <point x="38" y="385"/>
      <point x="162" y="535"/>
      <point x="280" y="535" type="qcurve" smooth="yes"/>
      <point x="437" y="535"/>
      <point x="487" y="401" type="qcurve"/>
      <point x="377" y="353" type="line"/>
      <point x="360" y="427"/>
      <point x="280" y="427" type="qcurve" smooth="yes"/>
      <point x="224" y="427"/>
      <point x="179" y="358"/>
      <point x="179" y="309" type="qcurve" smooth="yes"/>
      <point x="179" y="213" type="line" smooth="yes"/>
      <point x="179" y="163"/>
      <point x="225" y="95"/>
      <point x="280" y="95" type="qcurve" smooth="yes"/>
      <point x="361" y="95"/>
      <point x="386" y="177" type="qcurve"/>
      <point x="491" y="129" type="line"/>
      <point x="437" y="-12"/>
    </contour>
  </outline>
</glyph>
<glyph name="Ccircumflex" format="2">
  <advance width="645"/>
  <unicode hex="0108"/>
  <outline>
    <contour>
      <point x="355" y="-12" type="qcurve" smooth="yes"/>
      <point x="265" y="-12"/>
      <point x="128" y="66"/>
      <point x="52" y="225"/>
      <point x="52" y="346" type="qcurve" smooth="yes"/>
      <point x="52" y="470"/>
      <point x="130" y="631"/>
      <point x="267" y="710"/>
      <point x="355" y="710" type="qcurve" smooth="yes"/>
      <point x="450" y="710"/>
      <point x="575" y="629"/>
      <point x="612" y="548" type="qcurve"/>
      <point x="493" y="485" type="line"/>
      <point x="465" y="586"/>
      <point x="355" y="586" type="qcurve" smooth="yes"/>
      <point x="288" y="586"/>
      <point x="199" y="499"/>
      <point x="199" y="404" type="qcurve" smooth="yes"/>
      <point x="199" y="294" type="line" smooth="yes"/>
      <point x="199" y="197"/>
      <point x="289" y="112"/>
      <point x="355" y="112" type="qcurve" smooth="yes"/>
      <point x="466" y="112"/>
      <point x="502" y="220" type="qcurve"/>
      <point x="615" y="153" type="line"/>
      <point x="537" y="-12"/>
    </contour>
    <contour>
      <point x="472" y="743" type="line"/>
      <point x="352" y="859" type="line"/>
      <point x="231" y="743" type="line"/>
      <point x="164" y="796" type="line"/>
      <point x="292" y="952" type="line"/>
      <point x="411" y="952" type="line"/>
      <point x="539" y="796" type="line"/>
    </contour>
  </outline>
</glyph>
<glyph name="Dcaron" format="2">
  <advance width="692"/>
  <unicode hex="010E"/>
  <outline>
    <contour>
      <point x="338" y="123" type="line" smooth="yes"/>
      <point x="493" y="123"/>
      <point x="493" y="294" type="qcurve" smooth="yes"/>
      <point x="493" y="404" type="line" smooth="yes"/>
      <point x="493" y="494"/>
      <point x="407" y="575"/>
      <point x="338" y="575" type="qcurve" smooth="yes"/>
      <point x="219" y="575" type="line"/>
      <point x="219" y="123" type="line"/>
    </contour>
    <contour>
      <point x="338" y="0" type="qcurve" smooth="yes"/>
      <point x="80" y="0" type="line"/>
      <point x="80" y="698" type="line"/>
      <point x="338" y="698" type="line" smooth="yes"/>
      <point x="441" y="698"/>
      <point x="576" y="608"/>
      <point x="641" y="451"/>
      <point x="641" y="349" type="qcurve" smooth="yes"/>
      <point x="641" y="230"/>
      <point x="561" y="75"/>
      <point x="424" y="0"/>
    </contour>
    <contour>
      <point x="380" y="752" type="line"/>
      <point x="260" y="752" type="line"/>
      <point x="132" y="908" type="line"/>
      <point x="200" y="961" type="line"/>
      <point x="320" y="845" type="line"/>
      <point x="440" y="961" type="line"/>
      <point x="508" y="908" type="line"/>
    </contour>
  </outline>
</glyph>
<glyph name="Edot" format="2">
  <advance width="602"/>
  <unicode hex="0116"/>
  <outline>
    <contour>
      <point x="313" y="757" type="qcurve" smooth="yes"/>
      <point x="233" y="757"/>
      <point x="230" y="824" type="qcurve"/>
      <point x="230" y="850" type="line" smooth="yes"/>
      <point x="230" y="917"/>
      <point x="313" y="917" type="qcurve" smooth="yes"/>
      <point x="396" y="917"/>
      <point x="396" y="850" type="qcurve" smooth="yes"/>
      <point x="396" y="824" type="line" smooth="yes"/>
      <point x="396" y="757"/>
    </contour>
    <contour>
      <point x="546" y="0" type="line"/>
      <point x="80" y="0" type="line"/>
      <point x="80" y="698" type="line"/>
      <point x="546" y="698" type="line"/>
      <point x="546" y="575" type="line"/>
      <point x="219" y="575" type="line"/>
      <point x="219" y="415" type="line"/>
      <point x="505" y="415" type="line"/>
      <point x="505" y="292" type="line"/>
      <point x="219" y="292" type="line"/>
      <point x="219" y="123" type="line"/>
      <point x="546" y="123" type="line"/>
    </contour>
  </outline>
</glyph>
<glyph name="Ecaron" format="2">
  <advance width="602"/>
  <unicode hex="011A"/>
  <outline>
    <contour>
      <point x="546" y="0" type="line"/>
      <point x="80" y="0" type="line"/>
      <point x="80" y="698" type="line"/>
      <point x="546" y="698" type="line"/>
      <point x="546" y="575" type="line"/>
      <point x="219" y="575" type="line"/>
      <point x="219" y="415" type="line"/>
      <point x="505" y="415" type="line"/>
      <point x="505" y="292" type="line"/>
      <point x="219" y="292" type="line"/>
      <point x="219" y="123" type="line"/>
      <point x="546" y="123" type="line"/>
    </contour>
    <contour>
      <point x="373" y="752" type="line"/>
      <point x="253" y="752" type="line"/>
      <point x="125" y="908" type="line"/>
      <point x="193" y="961" type="line"/>
      <point x="313" y="845" type="line"/>
      <point x="433" y="961" type="line"/>
      <point x="501" y="908" type="line"/>
    </contour>
  </outline>
</glyph>
<glyph name="Gcircumflex" format="2">
  <advance width="668"/>
  <unicode hex="011C"/>
  <outline>
    <contour>
      <point x="282" y="954" type="line"/>
      <point x="403" y="954" type="line"/>
      <point x="533" y="796" type="line"/>
      <point x="463" y="741" type="line"/>
      <point x="342" y="856" type="line"/>
      <point x="222" y="741" type="line"/>
      <point x="152" y="796" type="line"/>
    </contour>
    <contour>
      <point x="41" y="349" type="qcurve" smooth="yes"/>
      <point x="41" y="438"/>
      <point x="87" y="573"/>
      <point x="169" y="664"/>
      <point x="284" y="710"/>
      <point x="353" y="710" type="qcurve" smooth="yes"/>
      <point x="408" y="710"/>
      <point x="493" y="683"/>
      <point x="558" y="638"/>
      <point x="605" y="578"/>
      <point x="622" y="544" type="qcurve"/>
      <point x="502" y="486" type="line"/>
      <point x="487" y="530"/>
      <point x="417" y="590"/>
      <point x="356" y="590" type="qcurve" smooth="yes"/>
      <point x="317" y="590"/>
      <point x="257" y="562"/>
      <point x="216" y="513"/>
      <point x="196" y="447"/>
      <point x="196" y="409" type="qcurve" smooth="yes"/>
      <point x="196" y="309" type="line" smooth="yes"/>
      <point x="196" y="264"/>
      <point x="212" y="189"/>
      <point x="248" y="137"/>
      <point x="308" y="108"/>
      <point x="352" y="108" type="qcurve" smooth="yes"/>
      <point x="380" y="108"/>
      <point x="432" y="124"/>
      <point x="471" y="156"/>
      <point x="494" y="206"/>
      <point x="494" y="240" type="qcurve" smooth="yes"/>
      <point x="494" y="266" type="line"/>
      <point x="323" y="266" type="line"/>
      <point x="323" y="387" type="line"/>
      <point x="634" y="387" type="line"/>
      <point x="634" y="268" type="line" smooth="yes"/>
      <point x="634" y="205"/>
      <point x="595" y="102"/>
      <point x="520" y="28"/>
      <point x="410" y="-12"/>
      <point x="339" y="-12" type="qcurve" smooth="yes"/>
      <point x="276" y="-12"/>
      <point x="167" y="34"/>
      <point x="87" y="126"/>
      <point x="41" y="260"/>
    </contour>
  </outline>
</glyph>
<glyph name="Hcircumflex" format="2">
  <advance width="721"/>
  <unicode hex="0124"/>
  <outline>
    <contour>
      <point x="481" y="743" type="line"/>
      <point x="360" y="859" type="line"/>
      <point x="240" y="743" type="line"/>
      <point x="173" y="796" type="line"/>
      <point x="301" y="952" type="line"/>
      <point x="420" y="952" type="line"/>
      <point x="548" y="796" type="line"/>
    </contour>
    <contour>
      <point x="641" y="0" type="line"/>
      <point x="502" y="0" type="line"/>
      <point x="502" y="292" type="line"/>
      <point x="219" y="292" type="line"/>
      <point x="219" y="0" type="line"/>
      <point x="80" y="0" type="line"/>
      <point x="80" y="698" type="line"/>
      <point x="219" y="698" type="line"/>
      <point x="219" y="415" type="line"/>
      <point x="502" y="415" type="line"/>
      <point x="502" y="698" type="line"/>
      <point x="641" y="698" type="line"/>
    </contour>
  </outline>
</glyph>
<glyph name="u0136" format="2">
  <advance width="684"/>
  <unicode hex="0136"/>
  <outline>
    <contour>
      <point x="359" y="-269" type="qcurve"/>
      <point x="279" y="-269" type="line"/>
      <point x="325" y="-231"/>
      <point x="339" y="-174" type="qcurve"/>
      <point x="312" y="-171"/>
      <point x="292" y="-135"/>
      <point x="292" y="-108" type="qcurve"/>
      <point x="296" y="-47"/>
      <point x="358" y="-47" type="qcurve" smooth="yes"/>
      <point x="425" y="-47"/>
      <point x="425" y="-106" type="qcurve" smooth="yes"/>
      <point x="425" y="-211"/>
    </contour>
    <contour>
      <point x="670" y="0" type="line"/>
      <point x="506" y="0" type="line"/>
      <point x="312" y="311" type="line"/>
      <point x="219" y="201" type="line"/>
      <point x="219" y="0" type="line"/>
      <point x="80" y="0" type="line"/>
      <point x="80" y="698" type="line"/>
      <point x="219" y="698" type="line"/>
      <point x="219" y="359" type="line"/>
      <point x="224" y="359" type="line"/>
      <point x="294" y="453" type="line" smooth="yes"/>
      <point x="329" y="499"/>
      <point x="376" y="556" type="qcurve" smooth="yes"/>
      <point x="456" y="653"/>
      <point x="491" y="698" type="qcurve"/>
      <point x="650" y="698" type="line"/>
      <point x="410" y="409" type="line"/>
    </contour>
  </outline>
</glyph>
<glyph name="kcedilla" format="2">
  <advance width="567"/>
  <unicode hex="0137"/>
  <outline>
    <contour>
      <point x="564" y="0" type="line"/>
      <point x="403" y="0" type="line"/>
      <point x="275" y="231" type="line"/>
      <point x="207" y="155" type="line"/>
      <point x="207" y="0" type="line"/>
      <point x="72" y="0" type="line"/>
      <point x="72" y="740" type="line"/>
      <point x="207" y="740" type="line"/>
      <point x="207" y="297" type="line"/>
      <point x="213" y="297" type="line"/>
      <point x="280" y="393" type="line"/>
      <point x="392" y="523" type="line"/>
      <point x="543" y="523" type="line"/>
      <point x="366" y="322" type="line"/>
    </contour>
    <contour>
      <point x="318" y="-269" type="qcurve"/>
      <point x="238" y="-269" type="line"/>
      <point x="284" y="-231"/>
      <point x="298" y="-174" type="qcurve"/>
      <point x="269" y="-171"/>
      <point x="251" y="-133"/>
      <point x="251" y="-106" type="qcurve"/>
      <point x="254" y="-47"/>
      <point x="317" y="-47" type="qcurve" smooth="yes"/>
      <point x="383" y="-47"/>
      <point x="383" y="-106" type="qcurve" smooth="yes"/>
      <point x="383" y="-134"/>
      <point x="376" y="-177"/>
      <point x="366" y="-201" type="qcurve" smooth="yes"/>
      <point x="348" y="-242"/>
    </contour>
  </outline>
</glyph>
<glyph name="u013B" format="2">
  <advance width="524"/>
  <unicode hex="013B"/>
  <outline>
    <contour>
      <point x="288" y="-269" type="qcurve"/>
      <point x="208" y="-269" type="line"/>
      <point x="254" y="-232"/>
      <point x="268" y="-174" type="qcurve"/>
      <point x="221" y="-167"/>
      <point x="221" y="-117" type="qcurve" smooth="yes"/>
      <point x="221" y="-47"/>
      <point x="283" y="-47" type="qcurve" smooth="yes"/>
      <point x="287" y="-47" type="line" smooth="yes"/>
      <point x="354" y="-47"/>
      <point x="354" y="-106" type="qcurve" smooth="yes"/>
      <point x="354" y="-211"/>
    </contour>
    <contour>
      <point x="491" y="0" type="line"/>
      <point x="80" y="0" type="line"/>
      <point x="80" y="698" type="line"/>
      <point x="219" y="698" type="line"/>
      <point x="219" y="123" type="line"/>
      <point x="491" y="123" type="line"/>
    </contour>
  </outline>
</glyph>
<glyph name="lcedilla" format="2">
  <advance width="297"/>
  <unicode hex="013C"/>
  <outline>
    <contour>
      <point x="275" y="0" type="line"/>
      <point x="207" y="0" type="line" smooth="yes"/>
      <point x="72" y="0"/>
      <point x="72" y="132" type="qcurve" smooth="yes"/>
      <point x="72" y="740" type="line"/>
      <point x="207" y="740" type="line"/>
      <point x="207" y="106" type="line"/>
      <point x="275" y="106" type="line"/>
    </contour>
    <contour>
      <point x="173" y="-269" type="qcurve"/>
      <point x="93" y="-269" type="line"/>
      <point x="139" y="-232"/>
      <point x="153" y="-174" type="qcurve"/>
      <point x="124" y="-171"/>
      <point x="106" y="-133"/>
      <point x="106" y="-106" type="qcurve"/>
      <point x="109" y="-47"/>
      <point x="172" y="-47" type="qcurve" smooth="yes"/>
      <point x="238" y="-47"/>
      <point x="238" y="-106" type="qcurve" smooth="yes"/>
      <point x="238" y="-135"/>
      <point x="231" y="-178"/>
      <point x="220" y="-202" type="qcurve" smooth="yes"/>
      <point x="202" y="-243"/>
    </contour>
  </outline>
</glyph>
<glyph name="ldot" format="2">
  <advance width="431"/>
  <unicode hex="0140"/>
  <outline>
    <contour>
      <point x="275" y="0" type="line"/>
      <point x="207" y="0" type="line" smooth="yes"/>
      <point x="72" y="0"/>
      <point x="72" y="132" type="qcurve" smooth="yes"/>
      <point x="72" y="740" type="line"/>
      <point x="207" y="740" type="line"/>
      <point x="207" y="106" type="line"/>
      <point x="275" y="106" type="line"/>
    </contour>
    <contour>
      <point x="352" y="270" type="qcurve" smooth="yes"/>
      <point x="270" y="270"/>
      <point x="270" y="336" type="qcurve" smooth="yes"/>
      <point x="270" y="361" type="line" smooth="yes"/>
      <point x="270" y="427"/>
      <point x="352" y="427" type="qcurve" smooth="yes"/>
      <point x="434" y="427"/>
      <point x="434" y="361" type="qcurve" smooth="yes"/>
      <point x="434" y="336" type="line" smooth="yes"/>
      <point x="434" y="270"/>
    </contour>
  </outline>
</glyph>
<glyph name="Ncaron" format="2">
  <advance width="721"/>
  <unicode hex="0147"/>
  <outline>
    <contour>
      <point x="419" y="752" type="line"/>
      <point x="300" y="752" type="line"/>
      <point x="172" y="908" type="line"/>
      <point x="239" y="961" type="line"/>
      <point x="360" y="845" type="line"/>
      <point x="480" y="961" type="line"/>
      <point x="547" y="908" type="line"/>
    </contour>
    <contour>
      <point x="641" y="0" type="line"/>
      <point x="488" y="0" type="line"/>
      <point x="285" y="349" type="line"/>
      <point x="214" y="491" type="line"/>
      <point x="211" y="491" type="line"/>
      <point x="211" y="0" type="line"/>
      <point x="80" y="0" type="line"/>
      <point x="80" y="698" type="line"/>
      <point x="233" y="698" type="line"/>
      <point x="436" y="349" type="line"/>
      <point x="506" y="207" type="line"/>
      <point x="509" y="207" type="line"/>
      <point x="509" y="698" type="line"/>
      <point x="641" y="698" type="line"/>
    </contour>
  </outline>
</glyph>
<glyph name="odblacute" format="2">
  <advance width="564"/>
  <unicode hex="0151"/>
  <outline>
    <contour>
      <point x="195" y="580" type="line"/>
      <point x="121" y="616" type="line"/>
      <point x="217" y="806" type="line"/>
      <point x="324" y="753" type="line"/>
    </contour>
    <contour>
      <point x="392" y="580" type="line"/>
      <point x="317" y="616" type="line"/>
      <point x="413" y="806" type="line"/>
      <point x="520" y="753" type="line"/>
    </contour>
    <contour>
      <point x="282" y="-12" type="qcurve" smooth="yes"/>
      <point x="201" y="-12"/>
      <point x="92" y="60"/>
      <point x="38" y="184"/>
      <point x="38" y="262" type="qcurve" smooth="yes"/>
      <point x="38" y="395"/>
      <point x="174" y="535"/>
      <point x="282" y="535" type="qcurve" smooth="yes"/>
      <point x="397" y="535"/>
      <point x="526" y="387"/>
      <point x="526" y="262" type="qcurve" smooth="yes"/>
      <point x="526" y="138"/>
      <point x="398" y="-12"/>
    </contour>
    <contour>
      <point x="282" y="96" type="qcurve" smooth="yes"/>
      <point x="342" y="96"/>
      <point x="385" y="172"/>
      <point x="385" y="235" type="qcurve" smooth="yes"/>
      <point x="385" y="312" type="line"/>
      <point x="380" y="427"/>
      <point x="282" y="427" type="qcurve" smooth="yes"/>
      <point x="221" y="427"/>
      <point x="179" y="350"/>
      <point x="179" y="288" type="qcurve" smooth="yes"/>
      <point x="179" y="211" type="line"/>
      <point x="182" y="96"/>
    </contour>
  </outline>
</glyph>
<glyph name="oe" format="2">
  <advance width="908"/>
  <unicode hex="0153"/>
  <outline>
    <contour>
      <point x="638" y="-12" type="qcurve" smooth="yes"/>
      <point x="501" y="-12"/>
      <point x="458" y="70" type="qcurve"/>
      <point x="452" y="70" type="line"/>
      <point x="407" y="-12"/>
      <point x="282" y="-12" type="qcurve" smooth="yes"/>
      <point x="201" y="-12"/>
      <point x="93" y="61"/>
      <point x="38" y="186"/>
      <point x="38" y="264" type="qcurve" smooth="yes"/>
      <point x="38" y="385"/>
      <point x="163" y="535"/>
      <point x="282" y="535" type="qcurve" smooth="yes"/>
      <point x="403" y="535"/>
      <point x="452" y="453" type="qcurve"/>
      <point x="458" y="453" type="line"/>
      <point x="504" y="535"/>
      <point x="633" y="535" type="qcurve" smooth="yes"/>
      <point x="750" y="535"/>
      <point x="869" y="387"/>
      <point x="869" y="270" type="qcurve" smooth="yes"/>
      <point x="869" y="227" type="line"/>
      <point x="525" y="227" type="line"/>
      <point x="525" y="95"/>
      <point x="651" y="95" type="qcurve" smooth="yes"/>
      <point x="733" y="95"/>
      <point x="783" y="163" type="qcurve"/>
      <point x="854" y="81" type="line"/>
      <point x="779" y="-12"/>
    </contour>
    <contour>
      <point x="728" y="309" type="line"/>
      <point x="728" y="434"/>
      <point x="631" y="434" type="qcurve" smooth="yes"/>
      <point x="576" y="434"/>
      <point x="525" y="361"/>
      <point x="525" y="309" type="qcurve"/>
    </contour>
    <contour>
      <point x="282" y="96" type="qcurve" smooth="yes"/>
      <point x="342" y="96"/>
      <point x="385" y="172"/>
      <point x="385" y="235" type="qcurve" smooth="yes"/>
      <point x="385" y="312" type="line"/>
      <point x="380" y="427"/>
      <point x="282" y="427" type="qcurve" smooth="yes"/>
      <point x="221" y="427"/>
      <point x="179" y="350"/>
      <point x="179" y="288" type="qcurve" smooth="yes"/>
      <point x="179" y="211" type="line"/>
      <point x="182" y="96"/>
    </contour>
  </outline>
</glyph>
<glyph name="u0157" format="2">
  <advance width="397"/>
  <unicode hex="0157"/>
  <outline>
    <contour>
      <point x="140" y="-269" type="qcurve"/>
      <point x="60" y="-269" type="line"/>
      <point x="106" y="-232"/>
      <point x="120" y="-174" type="qcurve"/>
      <point x="91" y="-171"/>
      <point x="73" y="-133"/>
      <point x="73" y="-106" type="qcurve"/>
      <point x="76" y="-47"/>
      <point x="139" y="-47" type="qcurve" smooth="yes"/>
      <point x="205" y="-47"/>
      <point x="205" y="-106" type="qcurve" smooth="yes"/>
      <point x="205" y="-135"/>
      <point x="198" y="-178"/>
      <point x="187" y="-202" type="qcurve" smooth="yes"/>
      <point x="169" y="-243"/>
    </contour>
    <contour>
      <point x="207" y="0" type="line"/>
      <point x="72" y="0" type="line"/>
      <point x="72" y="523" type="line"/>
      <point x="207" y="523" type="line"/>
      <point x="207" y="414" type="line"/>
      <point x="212" y="414" type="line"/>
      <point x="219" y="457"/>
      <point x="286" y="523"/>
      <point x="349" y="523" type="qcurve" smooth="yes"/>
      <point x="376" y="523" type="line"/>
      <point x="376" y="396" type="line"/>
      <point x="337" y="396" type="line" smooth="yes"/>
      <point x="271" y="396"/>
      <point x="207" y="360"/>
      <point x="207" y="315" type="qcurve" smooth="yes"/>
    </contour>
  </outline>
</glyph>
<glyph name="scedilla" format="2">
  <advance width="501"/>
  <unicode hex="015F"/>
  <outline>
    <contour>
      <point x="260" y="-211" type="qcurve" smooth="yes"/>
      <point x="174" y="-211"/>
      <point x="141" y="-168" type="qcurve"/>
      <point x="185" y="-114" type="line"/>
      <point x="208" y="-143"/>
      <point x="250" y="-143" type="qcurve" smooth="yes"/>
      <point x="294" y="-143"/>
      <point x="294" y="-117" type="qcurve" smooth="yes"/>
      <point x="294" y="-82"/>
      <point x="198" y="-75" type="qcurve"/>
      <point x="211" y="-10" type="line"/>
      <point x="94" y="2"/>
      <point x="28" y="83" type="qcurve"/>
      <point x="109" y="163" type="line"/>
      <point x="165" y="94"/>
      <point x="251" y="94" type="qcurve" smooth="yes"/>
      <point x="297" y="94"/>
      <point x="335" y="123"/>
      <point x="335" y="151" type="qcurve" smooth="yes"/>
      <point x="335" y="194"/>
      <point x="275" y="202" type="qcurve"/>
      <point x="221" y="208" type="line" smooth="yes"/>
      <point x="46" y="229"/>
      <point x="46" y="368" type="qcurve" smooth="yes"/>
      <point x="46" y="444"/>
      <point x="153" y="535"/>
      <point x="246" y="535" type="qcurve" smooth="yes"/>
      <point x="316" y="535"/>
      <point x="414" y="496"/>
      <point x="453" y="453" type="qcurve"/>
      <point x="374" y="374" type="line"/>
      <point x="319" y="429"/>
      <point x="251" y="429" type="qcurve" smooth="yes"/>
      <point x="175" y="429"/>
      <point x="175" y="378" type="qcurve" smooth="yes"/>
      <point x="175" y="351"/>
      <point x="208" y="327"/>
      <point x="248" y="322" type="qcurve" smooth="yes"/>
      <point x="294" y="316" type="line" smooth="yes"/>
      <point x="464" y="292"/>
      <point x="464" y="160" type="qcurve" smooth="yes"/>
      <point x="464" y="82"/>
      <point x="358" y="-3"/>
      <point x="275" y="-11" type="qcurve"/>
      <point x="266" y="-56" type="line"/>
      <point x="270" y="-60" type="line"/>
      <point x="291" y="-53"/>
      <point x="316" y="-53" type="qcurve" smooth="yes"/>
      <point x="346" y="-53"/>
      <point x="388" y="-85"/>
      <point x="388" y="-122" type="qcurve" smooth="yes"/>
      <point x="388" y="-171"/>
      <point x="312" y="-211"/>
    </contour>
  </outline>
</glyph>
<glyph name="tcedilla" format="2">
  <advance width="377"/>
  <unicode hex="0163"/>
  <outline>
    <contour>
      <point x="226" y="-269" type="qcurve"/>
      <point x="146" y="-269" type="line"/>
      <point x="192" y="-232"/>
      <point x="206" y="-174" type="qcurve"/>
      <point x="177" y="-171"/>
      <point x="159" y="-133"/>
      <point x="159" y="-106" type="qcurve"/>
      <point x="162" y="-47"/>
      <point x="225" y="-47" type="qcurve" smooth="yes"/>
      <point x="291" y="-47"/>
      <point x="291" y="-106" type="qcurve" smooth="yes"/>
      <point x="291" y="-134"/>
      <point x="284" y="-177"/>
      <point x="274" y="-201" type="qcurve" smooth="yes"/>
      <point x="256" y="-242"/>
    </contour>
    <contour>
      <point x="333" y="0" type="line"/>
      <point x="243" y="0" type="line" smooth="yes"/>
      <point x="168" y="0"/>
      <point x="100" y="76"/>
      <point x="100" y="140" type="qcurve" smooth="yes"/>
      <point x="100" y="417" type="line"/>
      <point x="24" y="417" type="line"/>
      <point x="24" y="523" type="line"/>
      <point x="65" y="523" type="line" smooth="yes"/>
      <point x="114" y="523"/>
      <point x="114" y="572" type="qcurve" smooth="yes"/>
      <point x="114" y="665" type="line"/>
      <point x="235" y="665" type="line"/>
      <point x="235" y="523" type="line"/>
      <point x="341" y="523" type="line"/>
      <point x="341" y="417" type="line"/>
      <point x="235" y="417" type="line"/>
      <point x="235" y="106" type="line"/>
      <point x="333" y="106" type="line"/>
    </contour>
  </outline>
</glyph>
<glyph name="tcaron" format="2">
  <advance width="381"/>
  <unicode hex="0165"/>
  <outline>
    <contour>
      <point x="387" y="574" type="line"/>
      <point x="299" y="574" type="line"/>
      <point x="306" y="783" type="line"/>
      <point x="451" y="783" type="line"/>
    </contour>
    <contour>
      <point x="333" y="0" type="line"/>
      <point x="243" y="0" type="line" smooth="yes"/>
      <point x="168" y="0"/>
      <point x="100" y="76"/>
      <point x="100" y="140" type="qcurve" smooth="yes"/>
      <point x="100" y="417" type="line"/>
      <point x="24" y="417" type="line"/>
      <point x="24" y="523" type="line"/>
      <point x="65" y="523" type="line" smooth="yes"/>
      <point x="114" y="523"/>
      <point x="114" y="572" type="qcurve" smooth="yes"/>
      <point x="114" y="665" type="line"/>
      <point x="235" y="665" type="line"/>
      <point x="235" y="523" type="line"/>
      <point x="341" y="523" type="line"/>
      <point x="341" y="417" type="line"/>
      <point x="235" y="417" type="line"/>
      <point x="235" y="106" type="line"/>
      <point x="333" y="106" type="line"/>
    </contour>
  </outline>
</glyph>
<glyph name="utilde" format="2">
  <advance width="591"/>
  <unicode hex="0169"/>
  <outline>
    <contour>
      <point x="232" y="-12" type="qcurve" smooth="yes"/>
      <point x="172" y="-12"/>
      <point x="99" y="40"/>
      <point x="66" y="133"/>
      <point x="66" y="193" type="qcurve" smooth="yes"/>
      <point x="66" y="523" type="line"/>
      <point x="201" y="523" type="line"/>
      <point x="201" y="206" type="line" smooth="yes"/>
      <point x="201" y="99"/>
      <point x="285" y="99" type="qcurve" smooth="yes"/>
      <point x="321" y="99"/>
      <point x="384" y="138"/>
      <point x="384" y="180" type="qcurve" smooth="yes"/>
      <point x="384" y="523" type="line"/>
      <point x="519" y="523" type="line"/>
      <point x="519" y="0" type="line"/>
      <point x="384" y="0" type="line"/>
      <point x="384" y="87" type="line"/>
      <point x="379" y="87" type="line"/>
      <point x="349" y="-12"/>
    </contour>
    <contour>
      <point x="369" y="603" type="qcurve" smooth="yes"/>
      <point x="339" y="603"/>
      <point x="292" y="626"/>
      <point x="267" y="634" type="qcurve"/>
      <point x="238" y="647"/>
      <point x="215" y="647" type="qcurve" smooth="yes"/>
      <point x="186" y="647"/>
      <point x="156" y="621" type="qcurve"/>
      <point x="108" y="684" type="line"/>
      <point x="147" y="746"/>
      <point x="218" y="746" type="qcurve" smooth="yes"/>
      <point x="249" y="746"/>
      <point x="273" y="735" type="qcurve"/>
      <point x="339" y="702"/>
      <point x="372" y="702" type="qcurve" smooth="yes"/>
      <point x="405" y="702"/>
      <point x="431" y="728" type="qcurve"/>
      <point x="479" y="665" type="line"/>
      <point x="441" y="603"/>
    </contour>
  </outline>
</glyph>
<glyph name="Umacron" format="2">
  <advance width="691"/>
  <unicode hex="016A"/>
  <outline>
    <contour>
      <point x="346" y="-12" type="qcurve" smooth="yes"/>
      <point x="198" y="-12"/>
      <point x="76" y="131"/>
      <point x="76" y="286" type="qcurve" smooth="yes"/>
      <point x="76" y="698" type="line"/>
      <point x="212" y="698" type="line"/>
      <point x="212" y="269" type="line" smooth="yes"/>
      <point x="212" y="185"/>
      <point x="277" y="112"/>
      <point x="346" y="112" type="qcurve" smooth="yes"/>
      <point x="417" y="112"/>
      <point x="480" y="189"/>
      <point x="480" y="269" type="qcurve" smooth="yes"/>
      <point x="480" y="698" type="line"/>
      <point x="615" y="698" type="line"/>
      <point x="615" y="286" type="line" smooth="yes"/>
      <point x="615" y="122"/>
      <point x="485" y="-12"/>
    </contour>
    <contour>
      <point x="496" y="789" type="line"/>
      <point x="195" y="789" type="line"/>
      <point x="195" y="886" type="line"/>
      <point x="496" y="886" type="line"/>
    </contour>
  </outline>
</glyph>
<glyph name="ubreve" format="2">
  <advance width="591"/>
  <unicode hex="016D"/>
  <outline>
    <contour>
      <point x="232" y="-12" type="qcurve" smooth="yes"/>
      <point x="172" y="-12"/>
      <point x="99" y="40"/>
      <point x="66" y="133"/>
      <point x="66" y="193" type="qcurve" smooth="yes"/>
      <point x="66" y="523" type="line"/>
      <point x="201" y="523" type="line"/>
      <point x="201" y="206" type="line" smooth="yes"/>
      <point x="201" y="99"/>
      <point x="285" y="99" type="qcurve" smooth="yes"/>
      <point x="321" y="99"/>
      <point x="384" y="138"/>
      <point x="384" y="180" type="qcurve" smooth="yes"/>
      <point x="384" y="523" type="line"/>
      <point x="519" y="523" type="line"/>
      <point x="519" y="0" type="line"/>
      <point x="384" y="0" type="line"/>
      <point x="384" y="87" type="line"/>
      <point x="379" y="87" type="line"/>
      <point x="349" y="-12"/>
    </contour>
    <contour>
      <point x="293" y="582" type="qcurve" smooth="yes"/>
      <point x="242" y="582"/>
      <point x="169" y="628"/>
      <point x="122" y="702"/>
      <point x="111" y="744" type="qcurve"/>
      <point x="185" y="782" type="line"/>
      <point x="194" y="766"/>
      <point x="204" y="749"/>
      <point x="213" y="734"/>
      <point x="220" y="724" type="qcurve" smooth="yes"/>
      <point x="252" y="678"/>
      <point x="293" y="678" type="qcurve" smooth="yes"/>
      <point x="326" y="678"/>
      <point x="367" y="722"/>
      <point x="392" y="764" type="qcurve" smooth="yes"/>
      <point x="403" y="782" type="line"/>
      <point x="476" y="744" type="line"/>
      <point x="454" y="671"/>
      <point x="361" y="582"/>
    </contour>
  </outline>
</glyph>
<glyph name="uring" format="2">
  <advance width="591"/>
  <unicode hex="016F"/>
  <outline>
    <contour>
      <point x="294" y="561" type="qcurve" smooth="yes"/>
      <point x="231" y="561"/>
      <point x="152" y="642"/>
      <point x="152" y="699" type="qcurve" smooth="yes"/>
      <point x="152" y="761"/>
      <point x="238" y="837"/>
      <point x="294" y="837" type="qcurve" smooth="yes"/>
      <point x="350" y="837"/>
      <point x="436" y="761"/>
      <point x="436" y="699" type="qcurve" smooth="yes"/>
      <point x="436" y="636"/>
      <point x="349" y="561"/>
    </contour>
    <contour>
      <point x="294" y="631" type="qcurve"/>
      <point x="346" y="634"/>
      <point x="346" y="683" type="qcurve" smooth="yes"/>
      <point x="346" y="716" type="line"/>
      <point x="344" y="767"/>
      <point x="294" y="767" type="qcurve"/>
      <point x="241" y="764"/>
      <point x="241" y="715" type="qcurve" smooth="yes"/>
      <point x="241" y="683" type="line" smooth="yes"/>
      <point x="241" y="631"/>
    </contour>
    <contour>
      <point x="232" y="-12" type="qcurve" smooth="yes"/>
      <point x="172" y="-12"/>
      <point x="99" y="40"/>
      <point x="66" y="133"/>
      <point x="66" y="193" type="qcurve" smooth="yes"/>
      <point x="66" y="523" type="line"/>
      <point x="201" y="523" type="line"/>
      <point x="201" y="206" type="line" smooth="yes"/>
      <point x="201" y="99"/>
      <point x="285" y="99" type="qcurve" smooth="yes"/>
      <point x="321" y="99"/>
      <point x="384" y="138"/>
      <point x="384" y="180" type="qcurve" smooth="yes"/>
      <point x="384" y="523" type="line"/>
      <point x="519" y="523" type="line"/>
      <point x="519" y="0" type="line"/>
      <point x="384" y="0" type="line"/>
      <point x="384" y="87" type="line"/>
      <point x="379" y="87" type="line"/>
      <point x="349" y="-12"/>
    </contour>
  </outline>
</glyph>
<glyph name="Wcircumflex" format="2">
  <advance width="957"/>
  <unicode hex="0174"/>
  <outline>
    <contour>
      <point x="765" y="0" type="line"/>
      <point x="607" y="0" type="line"/>
      <point x="524" y="349"/>
      <point x="479" y="545" type="qcurve"/>
      <point x="476" y="545" type="line"/>
      <point x="346" y="0" type="line"/>
      <point x="188" y="0" type="line"/>
      <point x="27" y="698" type="line"/>
      <point x="166" y="698" type="line"/>
      <point x="274" y="156" type="line"/>
      <point x="277" y="156" type="line"/>
      <point x="404" y="698" type="line"/>
      <point x="557" y="698" type="line"/>
      <point x="614" y="459"/>
      <point x="683" y="156" type="qcurve"/>
      <point x="686" y="156" type="line"/>
      <point x="797" y="698" type="line"/>
      <point x="930" y="698" type="line"/>
    </contour>
    <contour>
      <point x="600" y="743" type="line"/>
      <point x="479" y="859" type="line"/>
      <point x="359" y="743" type="line"/>
      <point x="292" y="796" type="line"/>
      <point x="420" y="952" type="line"/>
      <point x="539" y="952" type="line"/>
      <point x="667" y="796" type="line"/>
    </contour>
  </outline>
</glyph>
<glyph name="Ydieresis" format="2">
  <advance width="638"/>
  <unicode hex="0178"/>
  <outline>
    <contour>
      <point x="213" y="766" type="qcurve" smooth="yes"/>
      <point x="139" y="766"/>
      <point x="139" y="826" type="qcurve" smooth="yes"/>
      <point x="139" y="849" type="line" smooth="yes"/>
      <point x="139" y="907"/>
      <point x="213" y="909" type="qcurve"/>
      <point x="287" y="909"/>
      <point x="287" y="849" type="qcurve" smooth="yes"/>
      <point x="287" y="826" type="line" smooth="yes"/>
      <point x="287" y="766"/>
    </contour>
    <contour>
      <point x="426" y="766" type="qcurve" smooth="yes"/>
      <point x="352" y="766"/>
      <point x="352" y="826" type="qcurve" smooth="yes"/>
      <point x="352" y="849" type="line" smooth="yes"/>
      <point x="352" y="907"/>
      <point x="426" y="909" type="qcurve"/>
      <point x="498" y="909"/>
      <point x="501" y="849" type="qcurve"/>
      <point x="501" y="826" type="line" smooth="yes"/>
      <point x="501" y="766"/>
    </contour>
    <contour>
      <point x="389" y="0" type="line"/>
      <point x="249" y="0" type="line"/>
      <point x="249" y="274" type="line"/>
      <point x="10" y="698" type="line"/>
      <point x="166" y="698" type="line"/>
      <point x="323" y="409" type="line"/>
      <point x="325" y="409" type="line"/>
      <point x="477" y="698" type="line"/>
      <point x="629" y="698" type="line"/>
      <point x="389" y="275" type="line"/>
    </contour>
  </outline>
</glyph>
<glyph name="Zcaron" format="2">
  <advance width="602"/>
  <unicode hex="017D"/>
  <outline>
    <contour>
      <point x="563" y="0" type="line"/>
      <point x="38" y="0" type="line"/>
      <point x="38" y="124" type="line"/>
      <point x="395" y="575" type="line"/>
      <point x="56" y="575" type="line"/>
      <point x="56" y="698" type="line"/>
      <point x="554" y="698" type="line"/>
      <point x="554" y="574" type="line"/>
      <point x="197" y="123" type="line"/>
      <point x="563" y="123" type="line"/>
    </contour>
    <contour>
      <point x="362" y="752" type="line"/>
      <point x="242" y="752" type="line"/>
      <point x="114" y="908" type="line"/>
      <point x="182" y="961" type="line"/>
      <point x="302" y="845" type="line"/>
      <point x="422" y="961" type="line"/>
      <point x="490" y="908" type="line"/>
    </contour>
  </outline>
</glyph>
<glyph name="zcaron" format="2">
  <advance width="508"/>
  <unicode hex="017E"/>
  <outline>
    <contour>
      <point x="315" y="589" type="line"/>
      <point x="195" y="589" type="line"/>
      <point x="67" y="745" type="line"/>
      <point x="135" y="798" type="line"/>
      <point x="255" y="683" type="line"/>
      <point x="375" y="798" type="line"/>
      <point x="443" y="745" type="line"/>
    </contour>
    <contour>
      <point x="470" y="0" type="line"/>
      <point x="38" y="0" type="line"/>
      <point x="38" y="107" type="line"/>
      <point x="305" y="417" type="line"/>
      <point x="47" y="417" type="line"/>
      <point x="47" y="523" type="line"/>
      <point x="463" y="523" type="line"/>
      <point x="463" y="418" type="line"/>
      <point x="194" y="106" type="line"/>
      <point x="470" y="106" type="line"/>
    </contour>
  </outline>
</glyph>
<glyph name="u018F" format="2">
  <advance width="713"/>
  <unicode hex="018F"/>
  <outline>
    <contour>
      <point x="356" y="112" type="qcurve" smooth="yes"/>
      <point x="432" y="112"/>
      <point x="510" y="205"/>
      <point x="514" y="279" type="qcurve"/>
      <point x="199" y="279" type="line"/>
      <point x="203" y="206"/>
      <point x="279" y="112"/>
    </contour>
    <contour>
      <point x="356" y="-12" type="qcurve" smooth="yes"/>
      <point x="255" y="-12"/>
      <point x="120" y="79"/>
      <point x="52" y="242"/>
      <point x="52" y="349" type="qcurve" smooth="yes"/>
      <point x="52" y="394" type="line"/>
      <point x="514" y="394" type="line"/>
      <point x="514" y="496"/>
      <point x="424" y="586"/>
      <point x="356" y="586" type="qcurve" smooth="yes"/>
      <point x="230" y="586"/>
      <point x="201" y="470" type="qcurve"/>
      <point x="77" y="517" type="line"/>
      <point x="104" y="601"/>
      <point x="243" y="710"/>
      <point x="356" y="710" type="qcurve" smooth="yes"/>
      <point x="444" y="710"/>
      <point x="583" y="631"/>
      <point x="662" y="471"/>
      <point x="662" y="349" type="qcurve" smooth="yes"/>
      <point x="662" y="228"/>
      <point x="583" y="68"/>
      <point x="445" y="-12"/>
    </contour>
  </outline>
</glyph>
<glyph name="Aringacute" format="2">
  <advance width="677"/>
  <unicode hex="01FA"/>
  <outline>
    <contour>
      <point x="336" y="727" type="qcurve" smooth="yes"/>
      <point x="279" y="727"/>
      <point x="191" y="786"/>
      <point x="191" y="846" type="qcurve" smooth="yes"/>
      <point x="191" y="905"/>
      <point x="236" y="935" type="qcurve" smooth="yes"/>
      <point x="262" y="953"/>
      <point x="294" y="960" type="qcurve"/>
      <point x="399" y="1064" type="line"/>
      <point x="473" y="994" type="line"/>
      <point x="410" y="951" type="line"/>
      <point x="441" y="939"/>
      <point x="461" y="914" type="qcurve" smooth="yes"/>
      <point x="481" y="887"/>
      <point x="481" y="846" type="qcurve" smooth="yes"/>
      <point x="481" y="806"/>
      <point x="438" y="753"/>
      <point x="371" y="727"/>
    </contour>
    <contour>
      <point x="332" y="899" type="line"/>
      <point x="280" y="897"/>
      <point x="280" y="852" type="qcurve" smooth="yes"/>
      <point x="280" y="840" type="line" smooth="yes"/>
      <point x="280" y="793"/>
      <point x="336" y="793" type="qcurve" smooth="yes"/>
      <point x="369" y="793"/>
      <point x="392" y="820"/>
      <point x="392" y="849" type="qcurve" smooth="yes"/>
      <point x="392" y="899"/>
      <point x="336" y="899" type="qcurve"/>
      <point x="336" y="899"/>
      <point x="336" y="899" type="qcurve"/>
      <point x="336" y="899"/>
      <point x="336" y="899" type="qcurve"/>
      <point x="336" y="899"/>
      <point x="335" y="899" type="qcurve"/>
      <point x="335" y="899"/>
      <point x="335" y="899" type="qcurve"/>
      <point x="335" y="899"/>
      <point x="335" y="899" type="qcurve"/>
      <point x="335" y="899"/>
      <point x="335" y="899" type="qcurve"/>
      <point x="334" y="899" type="line"/>
      <point x="334" y="899"/>
      <point x="334" y="899" type="qcurve"/>
      <point x="334" y="899"/>
      <point x="334" y="899" type="qcurve"/>
    </contour>
    <contour>
      <point x="657" y="0" type="line"/>
      <point x="512" y="0" type="line"/>
      <point x="458" y="174" type="line"/>
      <point x="215" y="174" type="line"/>
      <point x="162" y="0" type="line"/>
      <point x="21" y="0" type="line"/>
      <point x="253" y="698" type="line"/>
      <point x="426" y="698" type="line"/>
    </contour>
    <contour>
      <point x="424" y="292" type="line"/>
      <point x="338" y="571" type="line"/>
      <point x="333" y="571" type="line"/>
      <point x="248" y="292" type="line"/>
    </contour>
  </outline>
</glyph>
<glyph name="AEacute" format="2">
  <advance width="956"/>
  <unicode hex="01FC"/>
  <outline>
    <contour>
      <point x="434" y="292" type="line"/>
      <point x="434" y="575" type="line"/>
      <point x="413" y="575" type="line"/>
      <point x="278" y="292" type="line"/>
    </contour>
    <contour>
      <point x="900" y="0" type="line"/>
      <point x="434" y="0" type="line"/>
      <point x="434" y="173" type="line"/>
      <point x="222" y="173" type="line"/>
      <point x="139" y="0" type="line"/>
      <point x="0" y="0" type="line"/>
      <point x="344" y="698" type="line"/>
      <point x="900" y="698" type="line"/>
      <point x="900" y="575" type="line"/>
      <point x="572" y="575" type="line"/>
      <point x="572" y="415" type="line"/>
      <point x="859" y="415" type="line"/>
      <point x="859" y="292" type="line"/>
      <point x="572" y="292" type="line"/>
      <point x="572" y="123" type="line"/>
      <point x="900" y="123" type="line"/>
    </contour>
    <contour>
      <point x="602" y="743" type="line"/>
      <point x="521" y="782" type="line"/>
      <point x="617" y="972" type="line"/>
      <point x="731" y="916" type="line"/>
    </contour>
  </outline>
</glyph>
<glyph name="aeacute" format="2">
  <advance width="864"/>
  <unicode hex="01FD"/>
  <outline>
    <contour>
      <point x="250" y="84" type="qcurve" smooth="yes"/>
      <point x="347" y="84"/>
      <point x="347" y="168" type="qcurve" smooth="yes"/>
      <point x="347" y="227" type="line"/>
      <point x="268" y="227" type="line" smooth="yes"/>
      <point x="172" y="227"/>
      <point x="172" y="164" type="qcurve" smooth="yes"/>
      <point x="172" y="149" type="line"/>
      <point x="174" y="84"/>
    </contour>
    <contour>
      <point x="686" y="309" type="line"/>
      <point x="686" y="434"/>
      <point x="588" y="434" type="qcurve" smooth="yes"/>
      <point x="533" y="434"/>
      <point x="482" y="361"/>
      <point x="482" y="309" type="qcurve"/>
    </contour>
    <contour>
      <point x="595" y="-12" type="qcurve" smooth="yes"/>
      <point x="511" y="-12"/>
      <point x="411" y="50"/>
      <point x="393" y="93" type="qcurve"/>
      <point x="387" y="93" type="line"/>
      <point x="374" y="51"/>
      <point x="286" y="-12"/>
      <point x="201" y="-12" type="qcurve" smooth="yes"/>
      <point x="143" y="-12"/>
      <point x="70" y="31"/>
      <point x="36" y="102"/>
      <point x="36" y="144" type="qcurve" smooth="yes"/>
      <point x="36" y="205"/>
      <point x="100" y="277"/>
      <point x="208" y="309"/>
      <point x="274" y="309" type="qcurve" smooth="yes"/>
      <point x="347" y="309" type="line"/>
      <point x="347" y="340" type="line" smooth="yes"/>
      <point x="347" y="428"/>
      <point x="253" y="428" type="qcurve" smooth="yes"/>
      <point x="208" y="428"/>
      <point x="154" y="392"/>
      <point x="136" y="364" type="qcurve"/>
      <point x="56" y="435" type="line"/>
      <point x="117" y="535"/>
      <point x="263" y="535" type="qcurve" smooth="yes"/>
      <point x="369" y="535"/>
      <point x="413" y="453" type="qcurve"/>
      <point x="419" y="453" type="line"/>
      <point x="439" y="490"/>
      <point x="524" y="535"/>
      <point x="591" y="535" type="qcurve" smooth="yes"/>
      <point x="674" y="535"/>
      <point x="778" y="463"/>
      <point x="826" y="342"/>
      <point x="826" y="270" type="qcurve" smooth="yes"/>
      <point x="826" y="227" type="line"/>
      <point x="482" y="227" type="line"/>
      <point x="482" y="159"/>
      <point x="548" y="97"/>
      <point x="608" y="97" type="qcurve" smooth="yes"/>
      <point x="693" y="97"/>
      <point x="739" y="163" type="qcurve"/>
      <point x="810" y="81" type="line"/>
      <point x="735" y="-12"/>
    </contour>
    <contour>
      <point x="443" y="580" type="line"/>
      <point x="362" y="620" type="line"/>
      <point x="458" y="809" type="line"/>
      <point x="572" y="753" type="line"/>
    </contour>
  </outline>
</glyph>
<glyph name="Oslashacute" format="2">
  <advance width="713"/>
  <unicode hex="01FE"/>
  <outline>
    <contour>
      <point x="357" y="103" type="qcurve"/>
      <point x="520" y="110"/>
      <point x="520" y="293" type="qcurve" smooth="yes"/>
      <point x="520" y="405" type="line" smooth="yes"/>
      <point x="520" y="454"/>
      <point x="504" y="497" type="qcurve"/>
      <point x="266" y="128" type="line"/>
      <point x="303" y="103"/>
    </contour>
    <contour>
      <point x="209" y="201" type="qcurve"/>
      <point x="447" y="570" type="line"/>
      <point x="412" y="595"/>
      <point x="357" y="595" type="qcurve"/>
      <point x="272" y="591"/>
      <point x="194" y="490"/>
      <point x="194" y="405" type="qcurve" smooth="yes"/>
      <point x="194" y="293" type="line" smooth="yes"/>
      <point x="194" y="241"/>
    </contour>
    <contour>
      <point x="148" y="-54" type="line"/>
      <point x="63" y="1" type="line"/>
      <point x="125" y="92" type="line"/>
      <point x="52" y="181"/>
      <point x="52" y="349" type="qcurve" smooth="yes"/>
      <point x="52" y="526"/>
      <point x="220" y="710"/>
      <point x="357" y="710" type="qcurve" smooth="yes"/>
      <point x="444" y="710"/>
      <point x="511" y="673" type="qcurve"/>
      <point x="565" y="752" type="line"/>
      <point x="651" y="697" type="line"/>
      <point x="588" y="606" type="line"/>
      <point x="662" y="515"/>
      <point x="662" y="349" type="qcurve" smooth="yes"/>
      <point x="662" y="227"/>
      <point x="583" y="67"/>
      <point x="445" y="-12"/>
      <point x="357" y="-12" type="qcurve" smooth="yes"/>
      <point x="269" y="-12"/>
      <point x="202" y="25" type="qcurve"/>
    </contour>
    <contour>
      <point x="371" y="743" type="line"/>
      <point x="290" y="782" type="line"/>
      <point x="386" y="972" type="line"/>
      <point x="500" y="916" type="line"/>
    </contour>
  </outline>
</glyph>
<glyph name="Tcommaaccent" format="2">
  <advance width="582"/>
  <unicode hex="021A"/>
  <outline>
    <contour>
      <point x="290" y="-269" type="qcurve"/>
      <point x="211" y="-269" type="line"/>
      <point x="258" y="-230"/>
      <point x="270" y="-174" type="qcurve"/>
      <point x="223" y="-167"/>
      <point x="223" y="-117" type="qcurve" smooth="yes"/>
      <point x="223" y="-47"/>
      <point x="286" y="-47" type="qcurve" smooth="yes"/>
      <point x="290" y="-47" type="line" smooth="yes"/>
      <point x="356" y="-47"/>
      <point x="356" y="-106" type="qcurve" smooth="yes"/>
      <point x="356" y="-211"/>
    </contour>
    <contour>
      <point x="360" y="0" type="line"/>
      <point x="221" y="0" type="line"/>
      <point x="221" y="575" type="line"/>
      <point x="26" y="575" type="line"/>
      <point x="26" y="698" type="line"/>
      <point x="556" y="698" type="line"/>
      <point x="556" y="575" type="line"/>
      <point x="360" y="575" type="line"/>
    </contour>
  </outline>
</glyph>
<glyph name="u0237" format="2">
  <advance width="279"/>
  <unicode hex="0237"/>
  <outline>
    <contour>
      <point x="66" y="-200" type="qcurve" smooth="yes"/>
      <point x="-7" y="-200" type="line"/>
      <point x="-7" y="-94" type="line"/>
      <point x="72" y="-94" type="line"/>
      <point x="72" y="523" type="line"/>
      <point x="207" y="523" type="line"/>
      <point x="207" y="-61" type="line" smooth="yes"/>
      <point x="207" y="-200"/>
    </contour>
  </outline>
</glyph>
<glyph name="u02BB" format="2">
  <advance width="600"/>
  <unicode hex="02BB"/>
  <outline>
    <contour>
      <point x="301" y="580" type="qcurve" smooth="yes"/>
      <point x="235" y="580"/>
      <point x="235" y="639" type="qcurve" smooth="yes"/>
      <point x="235" y="667"/>
      <point x="242" y="710"/>
      <point x="253" y="735" type="qcurve" smooth="yes"/>
      <point x="270" y="775"/>
      <point x="300" y="802" type="qcurve"/>
      <point x="380" y="802" type="line"/>
      <point x="334" y="765"/>
      <point x="320" y="707" type="qcurve"/>
      <point x="348" y="703"/>
      <point x="367" y="667"/>
      <point x="367" y="640" type="qcurve" smooth="yes"/>
      <point x="366" y="580"/>
    </contour>
  </outline>
</glyph>
<glyph name="apostrophemod" format="2">
  <advance width="600"/>
  <unicode hex="02BC"/>
  <outline>
    <contour>
      <point x="257" y="531" type="line"/>
      <point x="168" y="531" type="line"/>
      <point x="175" y="740" type="line"/>
      <point x="320" y="740" type="line"/>
    </contour>
  </outline>
</glyph>
<glyph name="hungarumlaut" format="2">
  <advance width="600"/>
  <unicode hex="02DD"/>
  <outline>
    <contour>
      <point x="410" y="580" type="line"/>
      <point x="335" y="616" type="line"/>
      <point x="431" y="806" type="line"/>
      <point x="538" y="753" type="line"/>
    </contour>
    <contour>
      <point x="213" y="580" type="line"/>
      <point x="139" y="616" type="line"/>
      <point x="235" y="806" type="line"/>
      <point x="342" y="753" type="line"/>
    </contour>
  </outline>
</glyph>
<glyph name="gravecomb" format="2">
  <unicode hex="0300"/>
  <outline>
    <contour>
      <point x="-13" y="580" type="line"/>
      <point x="-142" y="753" type="line"/>
      <point x="-28" y="809" type="line"/>
      <point x="68" y="620" type="line"/>
    </contour>
  </outline>
</glyph>
<glyph name="acutecomb" format="2">
  <unicode hex="0301"/>
  <outline>
    <contour>
      <point x="15" y="580" type="line"/>
      <point x="-66" y="620" type="line"/>
      <point x="30" y="809" type="line"/>
      <point x="144" y="753" type="line"/>
    </contour>
  </outline>
</glyph>
<glyph name="u0302" format="2">
  <unicode hex="0302"/>
  <outline>
    <contour>
      <point x="121" y="580" type="line"/>
      <point x="1" y="696" type="line"/>
      <point x="-119" y="580" type="line"/>
      <point x="-187" y="633" type="line"/>
      <point x="-59" y="789" type="line"/>
      <point x="61" y="789" type="line"/>
      <point x="189" y="633" type="line"/>
    </contour>
  </outline>
</glyph>
<glyph name="u0304" format="2">
  <advance width="0"/>
  <unicode hex="0304"/>
  <outline>
    <contour>
      <point x="152" y="626" type="line"/>
      <point x="-150" y="626" type="line"/>
      <point x="-150" y="723" type="line"/>
      <point x="152" y="723" type="line"/>
    </contour>
  </outline>
</glyph>
<glyph name="brevecomb" format="2">
  <unicode hex="0306"/>
  <outline>
    <contour>
      <point x="1" y="582" type="qcurve" smooth="yes"/>
      <point x="-71" y="582"/>
      <point x="-162" y="674"/>
      <point x="-182" y="744" type="qcurve"/>
      <point x="-108" y="782" type="line"/>
      <point x="-93" y="755"/>
      <point x="-67" y="716"/>
      <point x="-47" y="696" type="qcurve"/>
      <point x="-30" y="678"/>
      <point x="1" y="678" type="qcurve" smooth="yes"/>
      <point x="29" y="678"/>
      <point x="70" y="714"/>
      <point x="90" y="749" type="qcurve" smooth="yes"/>
      <point x="110" y="782" type="line"/>
      <point x="183" y="744" type="line"/>
      <point x="158" y="664"/>
      <point x="61" y="582"/>
    </contour>
  </outline>
</glyph>
<glyph name="u0307" format="2">
  <unicode hex="0307"/>
  <outline>
    <contour>
      <point x="1" y="596" type="qcurve" smooth="yes"/>
      <point x="-81" y="596"/>
      <point x="-81" y="661" type="qcurve" smooth="yes"/>
      <point x="-81" y="687" type="line" smooth="yes"/>
      <point x="-81" y="752"/>
      <point x="-1" y="752" type="qcurve" smooth="yes"/>
      <point x="83" y="752"/>
      <point x="83" y="687" type="qcurve" smooth="yes"/>
      <point x="83" y="661" type="line" smooth="yes"/>
      <point x="83" y="596"/>
    </contour>
  </outline>
</glyph>
<glyph name="u0308" format="2">
  <advance width="0"/>
  <unicode hex="0308"/>
  <outline>
    <contour>
      <point x="108" y="603" type="qcurve" smooth="yes"/>
      <point x="34" y="603"/>
      <point x="34" y="663" type="qcurve" smooth="yes"/>
      <point x="34" y="686" type="line" smooth="yes"/>
      <point x="34" y="745"/>
      <point x="108" y="745" type="qcurve" smooth="yes"/>
      <point x="182" y="745"/>
      <point x="182" y="686" type="qcurve" smooth="yes"/>
      <point x="182" y="663" type="line" smooth="yes"/>
      <point x="182" y="603"/>
    </contour>
    <contour>
      <point x="-106" y="603" type="qcurve" smooth="yes"/>
      <point x="-180" y="603"/>
      <point x="-180" y="663" type="qcurve" smooth="yes"/>
      <point x="-180" y="686" type="line" smooth="yes"/>
      <point x="-180" y="745"/>
      <point x="-108" y="745" type="qcurve" smooth="yes"/>
      <point x="-32" y="745"/>
      <point x="-32" y="686" type="qcurve" smooth="yes"/>
      <point x="-32" y="663" type="line" smooth="yes"/>
      <point x="-32" y="603"/>
    </contour>
  </outline>
</glyph>
<glyph name="hookabovecomb" format="2">
  <unicode hex="0309"/>
  <outline>
    <contour>
      <point x="33" y="571" type="line"/>
      <point x="-36" y="603" type="line"/>
      <point x="8" y="698" type="line"/>
      <point x="-113" y="698" type="line"/>
      <point x="-113" y="795" type="line"/>
      <point x="23" y="795" type="line" smooth="yes"/>
      <point x="113" y="795"/>
      <point x="113" y="722" type="qcurve"/>
      <point x="112" y="692"/>
      <point x="91" y="639"/>
      <point x="61" y="604" type="qcurve" smooth="yes"/>
    </contour>
  </outline>
</glyph>
<glyph name="caroncmb" format="2">
  <unicode hex="030C"/>
  <outline>
    <contour>
      <point x="61" y="589" type="line"/>
      <point x="-59" y="589" type="line"/>
      <point x="-187" y="745" type="line"/>
      <point x="-119" y="798" type="line"/>
      <point x="1" y="683" type="line"/>
      <point x="121" y="798" type="line"/>
      <point x="189" y="745" type="line"/>
    </contour>
  </outline>
</glyph>
<glyph name="commaturnedabovecmb" format="2">
  <unicode hex="0312"/>
  <outline>
    <contour>
      <point x="2" y="580" type="qcurve" smooth="yes"/>
      <point x="-65" y="580"/>
      <point x="-65" y="639" type="qcurve" smooth="yes"/>
      <point x="-65" y="667"/>
      <point x="-58" y="710"/>
      <point x="-47" y="735" type="qcurve" smooth="yes"/>
      <point x="-30" y="775"/>
      <point x="1" y="802" type="qcurve"/>
      <point x="81" y="802" type="line"/>
      <point x="33" y="763"/>
      <point x="21" y="707" type="qcurve"/>
      <point x="49" y="703"/>
      <point x="68" y="667"/>
      <point x="68" y="640" type="qcurve" smooth="yes"/>
      <point x="67" y="580"/>
    </contour>
  </outline>
</glyph>
<glyph name="dotbelowcmb" format="2">
  <unicode hex="0323"/>
  <outline>
    <contour>
      <point x="0" y="-197" type="qcurve" smooth="yes"/>
      <point x="-75" y="-197"/>
      <point x="-75" y="-138" type="qcurve" smooth="yes"/>
      <point x="-75" y="-114" type="line" smooth="yes"/>
      <point x="-75" y="-55"/>
      <point x="0" y="-55" type="qcurve" smooth="yes"/>
      <point x="72" y="-55"/>
      <point x="75" y="-114" type="qcurve"/>
      <point x="75" y="-138" type="line" smooth="yes"/>
      <point x="75" y="-197"/>
    </contour>
  </outline>
</glyph>
<glyph name="commaaccentcomb" format="2">
  <unicode hex="0326"/>
  <outline>
    <contour>
      <point x="0" y="-269" type="qcurve"/>
      <point x="-80" y="-269" type="line"/>
      <point x="-34" y="-232"/>
      <point x="-20" y="-174" type="qcurve"/>
      <point x="-67" y="-167"/>
      <point x="-67" y="-117" type="qcurve" smooth="yes"/>
      <point x="-67" y="-47"/>
      <point x="-5" y="-47" type="qcurve" smooth="yes"/>
      <point x="-1" y="-47" type="line" smooth="yes"/>
      <point x="65" y="-47"/>
      <point x="65" y="-106" type="qcurve" smooth="yes"/>
      <point x="65" y="-135"/>
      <point x="58" y="-178"/>
      <point x="47" y="-202" type="qcurve" smooth="yes"/>
      <point x="29" y="-243"/>
    </contour>
  </outline>
</glyph>
<glyph name="u0328" format="2">
  <unicode hex="0328"/>
  <outline>
    <contour>
      <point x="-44" y="-211" type="qcurve" smooth="yes"/>
      <point x="-96" y="-211"/>
      <point x="-163" y="-171"/>
      <point x="-163" y="-128" type="qcurve" smooth="yes"/>
      <point x="-163" y="-86"/>
      <point x="-101" y="-28"/>
      <point x="-46" y="-2" type="qcurve"/>
      <point x="-54" y="22" type="line"/>
      <point x="32" y="22" type="line"/>
      <point x="41" y="0" type="line"/>
      <point x="-11" y="-35" type="line" smooth="yes"/>
      <point x="-43" y="-57"/>
      <point x="-67" y="-89"/>
      <point x="-69" y="-111" type="qcurve"/>
      <point x="-67" y="-126"/>
      <point x="-52" y="-141"/>
      <point x="-33" y="-141" type="qcurve" smooth="yes"/>
      <point x="-3" y="-141"/>
      <point x="21" y="-114" type="qcurve"/>
      <point x="71" y="-162" type="line"/>
      <point x="48" y="-211"/>
    </contour>
  </outline>
</glyph>
<glyph name="questiongreek" format="2">
  <advance width="320"/>
  <unicode hex="037E"/>
  <outline>
    <contour>
      <point x="159" y="365" type="qcurve" smooth="yes"/>
      <point x="117" y="365"/>
      <point x="78" y="407"/>
      <point x="78" y="439" type="qcurve" smooth="yes"/>
      <point x="78" y="457" type="line" smooth="yes"/>
      <point x="78" y="491"/>
      <point x="118" y="532"/>
      <point x="159" y="532" type="qcurve" smooth="yes"/>
      <point x="201" y="532"/>
      <point x="240" y="489"/>
      <point x="240" y="457" type="qcurve" smooth="yes"/>
      <point x="240" y="439" type="line" smooth="yes"/>
      <point x="240" y="406"/>
      <point x="200" y="365"/>
    </contour>
    <contour>
      <point x="160" y="156" type="qcurve" smooth="yes"/>
      <point x="201" y="156"/>
      <point x="241" y="114"/>
      <point x="241" y="81" type="qcurve" smooth="yes"/>
      <point x="241" y="63" type="line" smooth="yes"/>
      <point x="241" y="6"/>
      <point x="185" y="-107"/>
      <point x="138" y="-144" type="qcurve"/>
      <point x="46" y="-144" type="line"/>
      <point x="80" y="-111"/>
      <point x="126" y="-48"/>
      <point x="138" y="-9" type="qcurve"/>
      <point x="109" y="-4"/>
      <point x="78" y="34"/>
      <point x="78" y="63" type="qcurve" smooth="yes"/>
      <point x="78" y="81" type="line" smooth="yes"/>
      <point x="78" y="114"/>
      <point x="116" y="156"/>
    </contour>
  </outline>
</glyph>
<glyph name="Etatonos" format="2">
  <advance width="798"/>
  <unicode hex="0389"/>
  <outline>
    <contour>
      <point x="582" y="293" type="line"/>
      <point x="294" y="293" type="line"/>
      <point x="294" y="0" type="line"/>
      <point x="159" y="0" type="line"/>
      <point x="159" y="698" type="line"/>
      <point x="294" y="698" type="line"/>
      <point x="294" y="412" type="line"/>
      <point x="582" y="412" type="line"/>
      <point x="582" y="698" type="line"/>
      <point x="717" y="698" type="line"/>
      <point x="717" y="0" type="line"/>
      <point x="582" y="0" type="line"/>
    </contour>
    <contour>
      <point x="68" y="580" type="line"/>
      <point x="-18" y="593" type="line"/>
      <point x="16" y="807" type="line"/>
      <point x="136" y="789" type="line"/>
    </contour>
  </outline>
</glyph>
<glyph name="Iotatonos" format="2">
  <advance width="499"/>
  <unicode hex="038A"/>
  <outline>
    <contour>
      <point x="316" y="0" type="line"/>
      <point x="177" y="0" type="line"/>
      <point x="177" y="698" type="line"/>
      <point x="316" y="698" type="line"/>
    </contour>
    <contour>
      <point x="58" y="580" type="line"/>
      <point x="-28" y="593" type="line"/>
      <point x="6" y="807" type="line"/>
      <point x="126" y="789" type="line"/>
    </contour>
  </outline>
</glyph>
<glyph name="Omicrontonos" format="2">
  <advance width="745"/>
  <unicode hex="038C"/>
  <outline>
    <contour>
      <point x="388" y="108" type="qcurve" smooth="yes"/>
      <point x="423" y="108"/>
      <point x="482" y="131"/>
      <point x="525" y="177"/>
      <point x="549" y="248"/>
      <point x="549" y="295" type="qcurve" smooth="yes"/>
      <point x="549" y="390" type="line" smooth="yes"/>
      <point x="549" y="432"/>
      <point x="532" y="505"/>
      <point x="493" y="559"/>
      <point x="432" y="590"/>
      <point x="388" y="590" type="qcurve" smooth="yes"/>
      <point x="313" y="590"/>
      <point x="227" y="491"/>
      <point x="227" y="402" type="qcurve" smooth="yes"/>
      <point x="227" y="308" type="line" smooth="yes"/>
      <point x="227" y="265"/>
      <point x="244" y="192"/>
      <point x="283" y="138"/>
      <point x="344" y="108"/>
    </contour>
    <contour>
      <point x="388" y="-12" type="qcurve" smooth="yes"/>
      <point x="321" y="-12"/>
      <point x="209" y="33"/>
      <point x="129" y="123"/>
      <point x="84" y="259"/>
      <point x="84" y="349" type="qcurve" smooth="yes"/>
      <point x="84" y="433"/>
      <point x="124" y="567"/>
      <point x="202" y="660"/>
      <point x="315" y="710"/>
      <point x="388" y="710" type="qcurve" smooth="yes"/>
      <point x="455" y="710"/>
      <point x="566" y="665"/>
      <point x="647" y="575"/>
      <point x="692" y="439"/>
      <point x="692" y="349" type="qcurve" smooth="yes"/>
      <point x="692" y="264"/>
      <point x="651" y="130"/>
      <point x="573" y="37"/>
      <point x="460" y="-12"/>
    </contour>
    <contour>
      <point x="68" y="580" type="line"/>
      <point x="-18" y="593" type="line"/>
      <point x="16" y="807" type="line"/>
      <point x="136" y="789" type="line"/>
    </contour>
  </outline>
</glyph>
<glyph name="Upsilontonos" format="2">
  <advance width="764"/>
  <unicode hex="038E"/>
  <outline>
    <contour>
      <point x="378" y="0" type="line"/>
      <point x="378" y="274" type="line"/>
      <point x="139" y="698" type="line"/>
      <point x="290" y="698" type="line"/>
      <point x="449" y="405" type="line"/>
      <point x="452" y="405" type="line"/>
      <point x="606" y="698" type="line"/>
      <point x="754" y="698" type="line"/>
      <point x="514" y="275" type="line"/>
      <point x="514" y="0" type="line"/>
    </contour>
    <contour>
      <point x="68" y="580" type="line"/>
      <point x="-18" y="593" type="line"/>
      <point x="16" y="807" type="line"/>
      <point x="136" y="789" type="line"/>
    </contour>
  </outline>
</glyph>
<glyph name="Deltagreek" format="2">
  <advance width="675"/>
  <unicode hex="0394"/>
  <outline>
    <contour>
      <point x="49" y="109" type="line"/>
      <point x="254" y="698" type="line"/>
      <point x="422" y="698" type="line"/>
      <point x="627" y="109" type="line"/>
      <point x="627" y="0" type="line"/>
      <point x="49" y="0" type="line"/>
    </contour>
    <contour>
      <point x="338" y="575" type="line"/>
      <point x="333" y="575" type="line"/>
      <point x="186" y="120" type="line"/>
      <point x="485" y="120" type="line"/>
    </contour>
  </outline>
</glyph>
<glyph name="Xi" format="2">
  <advance width="600"/>
  <unicode hex="039E"/>
  <outline>
    <contour>
      <point x="57" y="120" type="line"/>
      <point x="542" y="120" type="line"/>
      <point x="542" y="0" type="line"/>
      <point x="57" y="0" type="line"/>
    </contour>
    <contour>
      <point x="57" y="698" type="line"/>
      <point x="542" y="698" type="line"/>
      <point x="542" y="578" type="line"/>
      <point x="57" y="578" type="line"/>
    </contour>
    <contour>
      <point x="113" y="412" type="line"/>
      <point x="487" y="412" type="line"/>
      <point x="487" y="293" type="line"/>
      <point x="113" y="293" type="line"/>
    </contour>
  </outline>
</glyph>
<glyph name="Rho" format="2">
  <advance width="646"/>
  <unicode hex="03A1"/>
  <outline>
    <contour>
      <point x="80" y="0" type="line"/>
      <point x="80" y="698" type="line"/>
      <point x="397" y="698" type="line" smooth="yes"/>
      <point x="445" y="698"/>
      <point x="522" y="666"/>
      <point x="576" y="609"/>
      <point x="605" y="529"/>
      <point x="605" y="481" type="qcurve" smooth="yes"/>
      <point x="605" y="432"/>
      <point x="576" y="351"/>
      <point x="522" y="294"/>
      <point x="445" y="263"/>
      <point x="397" y="263" type="qcurve" smooth="yes"/>
      <point x="215" y="263" type="line"/>
      <point x="215" y="0" type="line"/>
    </contour>
    <contour>
      <point x="215" y="381" type="line"/>
      <point x="363" y="381" type="line" smooth="yes"/>
      <point x="406" y="381"/>
      <point x="464" y="411"/>
      <point x="464" y="458" type="qcurve" smooth="yes"/>
      <point x="464" y="504" type="line" smooth="yes"/>
      <point x="464" y="540"/>
      <point x="421" y="580"/>
      <point x="383" y="580" type="qcurve" smooth="yes"/>
      <point x="215" y="580" type="line"/>
    </contour>
  </outline>
</glyph>
<glyph name="Upsilon" format="2">
  <advance width="638"/>
  <unicode hex="03A5"/>
  <outline>
    <contour>
      <point x="249" y="0" type="line"/>
      <point x="249" y="274" type="line"/>
      <point x="10" y="698" type="line"/>
      <point x="161" y="698" type="line"/>
      <point x="320" y="405" type="line"/>
      <point x="323" y="405" type="line"/>
      <point x="477" y="698" type="line"/>
      <point x="625" y="698" type="line"/>
      <point x="385" y="275" type="line"/>
      <point x="385" y="0" type="line"/>
    </contour>
  </outline>
</glyph>
<glyph name="Upsilondieresis" format="2">
  <advance width="638"/>
  <unicode hex="03AB"/>
  <outline>
    <contour>
      <point x="212" y="768" type="qcurve" smooth="yes"/>
      <point x="172" y="768"/>
      <point x="140" y="801"/>
      <point x="140" y="827" type="qcurve" smooth="yes"/>
      <point x="140" y="848" type="line" smooth="yes"/>
      <point x="140" y="874"/>
      <point x="174" y="907"/>
      <point x="212" y="907" type="qcurve" smooth="yes"/>
      <point x="252" y="907"/>
      <point x="285" y="874"/>
      <point x="285" y="848" type="qcurve" smooth="yes"/>
      <point x="285" y="833" type="line" smooth="yes"/>
      <point x="285" y="804"/>
      <point x="255" y="768"/>
    </contour>
    <contour>
      <point x="424" y="768" type="qcurve" smooth="yes"/>
      <point x="384" y="768"/>
      <point x="351" y="801"/>
      <point x="351" y="827" type="qcurve" smooth="yes"/>
      <point x="351" y="848" type="line" smooth="yes"/>
      <point x="351" y="874"/>
      <point x="386" y="907"/>
      <point x="424" y="907" type="qcurve" smooth="yes"/>
      <point x="464" y="907"/>
      <point x="496" y="874"/>
      <point x="496" y="848" type="qcurve" smooth="yes"/>
      <point x="496" y="833" type="line" smooth="yes"/>
      <point x="496" y="804"/>
      <point x="467" y="768"/>
    </contour>
    <contour>
      <point x="249" y="0" type="line"/>
      <point x="249" y="274" type="line"/>
      <point x="10" y="698" type="line"/>
      <point x="161" y="698" type="line"/>
      <point x="320" y="405" type="line"/>
      <point x="323" y="405" type="line"/>
      <point x="477" y="698" type="line"/>
      <point x="625" y="698" type="line"/>
      <point x="385" y="275" type="line"/>
      <point x="385" y="0" type="line"/>
    </contour>
  </outline>
</glyph>
<glyph name="gamma" format="2">
  <advance width="530"/>
  <unicode hex="03B3"/>
  <outline>
    <contour>
      <point x="198" y="0" type="line"/>
      <point x="59" y="419" type="line"/>
      <point x="8" y="419" type="line"/>
      <point x="8" y="523" type="line"/>
      <point x="59" y="523" type="line" smooth="yes"/>
      <point x="86" y="523"/>
      <point x="125" y="513"/>
      <point x="155" y="489"/>
      <point x="177" y="447"/>
      <point x="188" y="415" type="qcurve" smooth="yes"/>
      <point x="193" y="399"/>
      <point x="198" y="382" type="qcurve" smooth="yes"/>
      <point x="216" y="317" type="line"/>
      <point x="221" y="301"/>
      <point x="226" y="284" type="qcurve"/>
      <point x="263" y="132" type="line"/>
      <point x="270" y="132" type="line"/>
      <point x="314" y="284" type="line"/>
      <point x="395" y="523" type="line"/>
      <point x="519" y="523" type="line"/>
      <point x="329" y="0" type="line"/>
      <point x="329" y="-200" type="line"/>
      <point x="198" y="-200" type="line"/>
    </contour>
  </outline>
</glyph>
<glyph name="epsilon" format="2">
  <advance width="525"/>
  <unicode hex="03B5"/>
  <outline>
    <contour>
      <point x="501" y="81" type="line"/>
      <point x="464" y="36"/>
      <point x="348" y="-12"/>
      <point x="269" y="-12" type="qcurve" smooth="yes"/>
      <point x="163" y="-12"/>
      <point x="45" y="73"/>
      <point x="45" y="145" type="qcurve" smooth="yes"/>
      <point x="45" y="201"/>
      <point x="110" y="261"/>
      <point x="170" y="271" type="qcurve"/>
      <point x="170" y="276" type="line"/>
      <point x="57" y="291"/>
      <point x="57" y="386" type="qcurve" smooth="yes"/>
      <point x="57" y="419"/>
      <point x="86" y="473"/>
      <point x="142" y="513"/>
      <point x="222" y="535"/>
      <point x="272" y="535" type="qcurve" smooth="yes"/>
      <point x="347" y="535"/>
      <point x="454" y="491"/>
      <point x="493" y="448" type="qcurve"/>
      <point x="415" y="371" type="line"/>
      <point x="375" y="418"/>
      <point x="311" y="427" type="qcurve" smooth="yes"/>
      <point x="299" y="429"/>
      <point x="285" y="429" type="qcurve" smooth="yes"/>
      <point x="276" y="429"/>
      <point x="266" y="428" type="qcurve" smooth="yes"/>
      <point x="191" y="423"/>
      <point x="191" y="375" type="qcurve" smooth="yes"/>
      <point x="191" y="364" type="line" smooth="yes"/>
      <point x="191" y="312"/>
      <point x="259" y="312" type="qcurve" smooth="yes"/>
      <point x="367" y="312" type="line"/>
      <point x="367" y="222" type="line"/>
      <point x="264" y="222" type="line" smooth="yes"/>
      <point x="221" y="222"/>
      <point x="178" y="200"/>
      <point x="178" y="168" type="qcurve" smooth="yes"/>
      <point x="178" y="157" type="line" smooth="yes"/>
      <point x="178" y="124"/>
      <point x="228" y="93"/>
      <point x="284" y="93" type="qcurve" smooth="yes"/>
      <point x="333" y="93"/>
      <point x="404" y="128"/>
      <point x="431" y="160" type="qcurve"/>
    </contour>
  </outline>
</glyph>
<glyph name="zeta" format="2">
  <advance width="435"/>
  <unicode hex="03B6"/>
  <outline>
    <contour>
      <point x="59" y="740" type="line"/>
      <point x="428" y="740" type="line"/>
      <point x="428" y="638" type="line"/>
      <point x="256" y="412" type="line"/>
      <point x="212" y="352"/>
      <point x="176" y="270"/>
      <point x="176" y="233" type="qcurve" smooth="yes"/>
      <point x="176" y="219" type="line" smooth="yes"/>
      <point x="176" y="178"/>
      <point x="218" y="131"/>
      <point x="265" y="119" type="qcurve" smooth="yes"/>
      <point x="338" y="100" type="line" smooth="yes"/>
      <point x="378" y="89"/>
      <point x="418" y="37"/>
      <point x="418" y="5" type="qcurve" smooth="yes"/>
      <point x="418" y="-16"/>
      <point x="409" y="-40" type="qcurve" smooth="yes"/>
      <point x="360" y="-171" type="line"/>
      <point x="251" y="-132" type="line"/>
      <point x="295" y="-12" type="line"/>
      <point x="240" y="2" type="line" smooth="yes"/>
      <point x="135" y="27"/>
      <point x="39" y="122"/>
      <point x="39" y="208" type="qcurve" smooth="yes"/>
      <point x="39" y="241"/>
      <point x="49" y="299"/>
      <point x="77" y="362"/>
      <point x="126" y="434"/>
      <point x="165" y="480" type="qcurve" smooth="yes"/>
      <point x="297" y="640" type="line"/>
      <point x="297" y="645" type="line"/>
      <point x="251" y="640" type="line"/>
      <point x="240" y="638"/>
      <point x="219" y="637"/>
      <point x="208" y="636" type="qcurve"/>
      <point x="59" y="636" type="line"/>
    </contour>
  </outline>
</glyph>
<glyph name="theta" format="2">
  <advance width="572"/>
  <unicode hex="03B8"/>
  <outline>
    <contour>
      <point x="286" y="752" type="qcurve" smooth="yes"/>
      <point x="341" y="752"/>
      <point x="430" y="714"/>
      <point x="493" y="626"/>
      <point x="527" y="479"/>
      <point x="527" y="370" type="qcurve" smooth="yes"/>
      <point x="527" y="265"/>
      <point x="496" y="120"/>
      <point x="434" y="29"/>
      <point x="344" y="-12"/>
      <point x="286" y="-12" type="qcurve" smooth="yes"/>
      <point x="231" y="-12"/>
      <point x="142" y="25"/>
      <point x="79" y="114"/>
      <point x="45" y="260"/>
      <point x="45" y="370" type="qcurve" smooth="yes"/>
      <point x="45" y="473"/>
      <point x="76" y="619"/>
      <point x="137" y="710"/>
      <point x="227" y="752"/>
    </contour>
    <contour>
      <point x="182" y="422" type="line"/>
      <point x="390" y="422" type="line"/>
      <point x="390" y="477" type="line" smooth="yes"/>
      <point x="390" y="568"/>
      <point x="341" y="647"/>
      <point x="286" y="647" type="qcurve" smooth="yes"/>
      <point x="260" y="647"/>
      <point x="222" y="630"/>
      <point x="195" y="591"/>
      <point x="182" y="526"/>
      <point x="182" y="477" type="qcurve" smooth="yes"/>
    </contour>
    <contour>
      <point x="286" y="93" type="qcurve" smooth="yes"/>
      <point x="310" y="93"/>
      <point x="349" y="109"/>
      <point x="376" y="148"/>
      <point x="390" y="213"/>
      <point x="390" y="263" type="qcurve" smooth="yes"/>
      <point x="390" y="318" type="line"/>
      <point x="182" y="318" type="line"/>
      <point x="182" y="276" type="line" smooth="yes"/>
      <point x="182" y="181"/>
      <point x="226" y="93"/>
    </contour>
  </outline>
</glyph>
<glyph name="pi" format="2">
  <advance width="647"/>
  <unicode hex="03C0"/>
  <outline>
    <contour>
      <point x="516" y="104" type="line"/>
      <point x="582" y="104" type="line"/>
      <point x="582" y="0" type="line"/>
      <point x="523" y="0" type="line" smooth="yes"/>
      <point x="450" y="0"/>
      <point x="385" y="79"/>
      <point x="385" y="153" type="qcurve" smooth="yes"/>
      <point x="385" y="419" type="line"/>
      <point x="238" y="419" type="line"/>
      <point x="238" y="0" type="line"/>
      <point x="107" y="0" type="line"/>
      <point x="107" y="419" type="line"/>
      <point x="23" y="419" type="line"/>
      <point x="23" y="523" type="line"/>
      <point x="613" y="523" type="line"/>
      <point x="613" y="419" type="line"/>
      <point x="516" y="419" type="line"/>
    </contour>
  </outline>
</glyph>
<glyph name="rho" format="2">
  <advance width="571"/>
  <unicode hex="03C1"/>
  <outline>
    <contour>
      <point x="50" y="271" type="line" smooth="yes"/>
      <point x="50" y="332"/>
      <point x="77" y="430"/>
      <point x="135" y="499"/>
      <point x="224" y="535"/>
      <point x="286" y="535" type="qcurve" smooth="yes"/>
      <point x="412" y="535"/>
      <point x="526" y="393"/>
      <point x="526" y="263" type="qcurve" smooth="yes"/>
      <point x="526" y="129"/>
      <point x="424" y="-12"/>
      <point x="327" y="-12" type="qcurve" smooth="yes"/>
      <point x="279" y="-12"/>
      <point x="200" y="38"/>
      <point x="186" y="81" type="qcurve"/>
      <point x="181" y="81" type="line"/>
      <point x="181" y="-200" type="line"/>
      <point x="50" y="-200" type="line"/>
    </contour>
    <contour>
      <point x="283" y="94" type="qcurve" smooth="yes"/>
      <point x="331" y="94"/>
      <point x="389" y="158"/>
      <point x="389" y="218" type="qcurve" smooth="yes"/>
      <point x="389" y="286" type="line" smooth="yes"/>
      <point x="389" y="353"/>
      <point x="345" y="429"/>
      <point x="285" y="429" type="qcurve" smooth="yes"/>
      <point x="233" y="429"/>
      <point x="181" y="367"/>
      <point x="181" y="311" type="qcurve" smooth="yes"/>
      <point x="181" y="173" type="line" smooth="yes"/>
      <point x="181" y="135"/>
      <point x="241" y="94"/>
    </contour>
  </outline>
</glyph>
<glyph name="uni0400" format="2">
  <advance width="602"/>
  <unicode hex="0400"/>
  <outline>
    <contour>
      <point x="299" y="743" type="line"/>
      <point x="170" y="916" type="line"/>
      <point x="284" y="972" type="line"/>
      <point x="380" y="782" type="line"/>
    </contour>
    <contour>
      <point x="546" y="0" type="line"/>
      <point x="80" y="0" type="line"/>
      <point x="80" y="698" type="line"/>
      <point x="546" y="698" type="line"/>
      <point x="546" y="575" type="line"/>
      <point x="219" y="575" type="line"/>
      <point x="219" y="415" type="line"/>
      <point x="505" y="415" type="line"/>
      <point x="505" y="292" type="line"/>
      <point x="219" y="292" type="line"/>
      <point x="219" y="123" type="line"/>
      <point x="546" y="123" type="line"/>
    </contour>
  </outline>
</glyph>
<glyph name="Djecyr" format="2">
  <advance width="803"/>
  <unicode hex="0402"/>
  <outline>
    <contour>
      <point x="530" y="-180" type="qcurve" smooth="yes"/>
      <point x="479" y="-180" type="line"/>
      <point x="479" y="-52" type="line"/>
      <point x="578" y="-52" type="line"/>
      <point x="609" y="-15"/>
      <point x="609" y="68" type="qcurve" smooth="yes"/>
      <point x="609" y="194" type="line" smooth="yes"/>
      <point x="609" y="324"/>
      <point x="485" y="324" type="qcurve" smooth="yes"/>
      <point x="399" y="324"/>
      <point x="360" y="305" type="qcurve"/>
      <point x="360" y="0" type="line"/>
      <point x="221" y="0" type="line"/>
      <point x="221" y="575" type="line"/>
      <point x="26" y="575" type="line"/>
      <point x="26" y="698" type="line"/>
      <point x="556" y="698" type="line"/>
      <point x="556" y="575" type="line"/>
      <point x="360" y="575" type="line"/>
      <point x="360" y="421" type="line"/>
      <point x="365" y="421" type="line"/>
      <point x="414" y="444"/>
      <point x="499" y="444" type="qcurve" smooth="yes"/>
      <point x="748" y="444"/>
      <point x="748" y="189" type="qcurve" smooth="yes"/>
      <point x="748" y="63" type="line" smooth="yes"/>
      <point x="748" y="-64"/>
      <point x="630" y="-180"/>
    </contour>
  </outline>
</glyph>
<glyph name="afii10053" format="2">
  <advance width="663"/>
  <unicode hex="0404"/>
  <outline>
    <contour>
      <point x="364" y="-12" type="qcurve" smooth="yes"/>
      <point x="268" y="-12"/>
      <point x="128" y="63"/>
      <point x="52" y="221"/>
      <point x="52" y="344" type="qcurve" smooth="yes"/>
      <point x="52" y="522"/>
      <point x="218" y="710"/>
      <point x="364" y="710" type="qcurve" smooth="yes"/>
      <point x="455" y="710"/>
      <point x="586" y="636"/>
      <point x="629" y="555" type="qcurve"/>
      <point x="513" y="488" type="line"/>
      <point x="482" y="586"/>
      <point x="364" y="586" type="qcurve" smooth="yes"/>
      <point x="278" y="586"/>
      <point x="201" y="491"/>
      <point x="199" y="414" type="qcurve"/>
      <point x="442" y="414" type="line"/>
      <point x="442" y="292" type="line"/>
      <point x="199" y="292" type="line"/>
      <point x="199" y="196"/>
      <point x="291" y="112"/>
      <point x="364" y="112" type="qcurve" smooth="yes"/>
      <point x="485" y="112"/>
      <point x="520" y="217" type="qcurve"/>
      <point x="632" y="147" type="line"/>
      <point x="559" y="-12"/>
    </contour>
  </outline>
</glyph>
<glyph name="u040D" format="2">
  <advance width="721"/>
  <unicode hex="040D"/>
  <outline>
    <contour>
      <point x="641" y="0" type="line"/>
      <point x="505" y="0" type="line"/>
      <point x="505" y="360" type="line"/>
      <point x="520" y="506" type="line"/>
      <point x="517" y="506" type="line"/>
      <point x="447" y="374" type="line"/>
      <point x="205" y="0" type="line"/>
      <point x="80" y="0" type="line"/>
      <point x="80" y="698" type="line"/>
      <point x="215" y="698" type="line"/>
      <point x="215" y="338" type="line"/>
      <point x="201" y="192" type="line"/>
      <point x="204" y="192" type="line"/>
      <point x="273" y="324" type="line"/>
      <point x="516" y="698" type="line"/>
      <point x="641" y="698" type="line"/>
    </contour>
    <contour>
      <point x="347" y="743" type="line"/>
      <point x="219" y="916" type="line"/>
      <point x="332" y="972" type="line"/>
      <point x="429" y="782" type="line"/>
    </contour>
  </outline>
</glyph>
<glyph name="Ushortcyr" format="2">
  <advance width="624"/>
  <unicode hex="040E"/>
  <outline>
    <contour>
      <point x="215" y="0" type="qcurve" smooth="yes"/>
      <point x="124" y="0" type="line"/>
      <point x="124" y="123" type="line"/>
      <point x="242" y="123" type="line"/>
      <point x="260" y="170" type="line"/>
      <point x="14" y="698" type="line"/>
      <point x="160" y="698" type="line"/>
      <point x="281" y="431" type="line"/>
      <point x="325" y="326" type="line"/>
      <point x="329" y="326" type="line"/>
      <point x="367" y="432" type="line"/>
      <point x="472" y="698" type="line"/>
      <point x="609" y="698" type="line"/>
      <point x="363" y="96" type="line"/>
      <point x="344" y="43"/>
      <point x="275" y="0"/>
    </contour>
    <contour>
      <point x="316" y="745" type="qcurve" smooth="yes"/>
      <point x="192" y="745"/>
      <point x="151" y="850" type="qcurve"/>
      <point x="130" y="899" type="line"/>
      <point x="237" y="940" type="line"/>
      <point x="269" y="842" type="line"/>
      <point x="286" y="835"/>
      <point x="316" y="835" type="qcurve" smooth="yes"/>
      <point x="345" y="835"/>
      <point x="362" y="842" type="qcurve"/>
      <point x="395" y="940" type="line"/>
      <point x="501" y="899" type="line"/>
      <point x="480" y="850" type="line" smooth="yes"/>
      <point x="435" y="745"/>
    </contour>
  </outline>
</glyph>
<glyph name="Acyrillic" format="2">
  <advance width="677"/>
  <unicode hex="0410"/>
  <outline>
    <contour>
      <point x="657" y="0" type="line"/>
      <point x="512" y="0" type="line"/>
      <point x="458" y="174" type="line"/>
      <point x="215" y="174" type="line"/>
      <point x="162" y="0" type="line"/>
      <point x="21" y="0" type="line"/>
      <point x="253" y="698" type="line"/>
      <point x="426" y="698" type="line"/>
    </contour>
    <contour>
      <point x="424" y="292" type="line"/>
      <point x="338" y="571" type="line"/>
      <point x="333" y="571" type="line"/>
      <point x="248" y="292" type="line"/>
    </contour>
  </outline>
</glyph>
<glyph name="Becyr" format="2">
  <advance width="653"/>
  <unicode hex="0411"/>
  <outline>
    <contour>
      <point x="388" y="121" type="line" smooth="yes"/>
      <point x="467" y="121"/>
      <point x="467" y="198" type="qcurve" smooth="yes"/>
      <point x="467" y="232" type="line" smooth="yes"/>
      <point x="467" y="308"/>
      <point x="388" y="308" type="qcurve" smooth="yes"/>
      <point x="219" y="308" type="line"/>
      <point x="219" y="121" type="line"/>
    </contour>
    <contour>
      <point x="403" y="0" type="qcurve" smooth="yes"/>
      <point x="80" y="0" type="line"/>
      <point x="80" y="698" type="line"/>
      <point x="543" y="698" type="line"/>
      <point x="543" y="575" type="line"/>
      <point x="219" y="575" type="line"/>
      <point x="219" y="429" type="line"/>
      <point x="403" y="429" type="line" smooth="yes"/>
      <point x="503" y="429"/>
      <point x="612" y="306"/>
      <point x="612" y="214" type="qcurve" smooth="yes"/>
      <point x="612" y="154"/>
      <point x="565" y="57"/>
      <point x="472" y="0"/>
    </contour>
  </outline>
</glyph>
<glyph name="Gecyr" format="2">
  <advance width="511"/>
  <unicode hex="0413"/>
  <outline>
    <contour>
      <point x="219" y="0" type="line"/>
      <point x="80" y="0" type="line"/>
      <point x="80" y="698" type="line"/>
      <point x="484" y="698" type="line"/>
      <point x="484" y="575" type="line"/>
      <point x="219" y="575" type="line"/>
    </contour>
  </outline>
</glyph>
<glyph name="afii10021" format="2">
  <advance width="798"/>
  <unicode hex="0414"/>
  <outline>
    <contour>
      <point x="770" y="-150" type="line"/>
      <point x="640" y="-150" type="line"/>
      <point x="640" y="0" type="line"/>
      <point x="146" y="0" type="line"/>
      <point x="146" y="-150" type="line"/>
      <point x="16" y="-150" type="line"/>
      <point x="16" y="123" type="line"/>
      <point x="91" y="123" type="line"/>
      <point x="174" y="204"/>
      <point x="174" y="479" type="qcurve" smooth="yes"/>
      <point x="174" y="698" type="line"/>
      <point x="660" y="698" type="line"/>
      <point x="660" y="123" type="line"/>
      <point x="770" y="123" type="line"/>
    </contour>
    <contour>
      <point x="521" y="123" type="line"/>
      <point x="521" y="575" type="line"/>
      <point x="309" y="575" type="line"/>
      <point x="309" y="461" type="line" smooth="yes"/>
      <point x="309" y="312"/>
      <point x="277" y="161"/>
      <point x="249" y="127" type="qcurve"/>
      <point x="249" y="123" type="line"/>
    </contour>
  </outline>
</glyph>
<glyph name="Ishortcyr" format="2">
  <advance width="721"/>
  <unicode hex="0419"/>
  <outline>
    <contour>
      <point x="641" y="0" type="line"/>
      <point x="505" y="0" type="line"/>
      <point x="505" y="360" type="line"/>
      <point x="520" y="506" type="line"/>
      <point x="517" y="506" type="line"/>
      <point x="432" y="351" type="line"/>
      <point x="205" y="0" type="line"/>
      <point x="80" y="0" type="line"/>
      <point x="80" y="698" type="line"/>
      <point x="215" y="698" type="line"/>
      <point x="215" y="338" type="line"/>
      <point x="201" y="192" type="line"/>
      <point x="204" y="192" type="line"/>
      <point x="237" y="257"/>
      <point x="277" y="327" type="qcurve" smooth="yes"/>
      <point x="288" y="347"/>
      <point x="516" y="698" type="qcurve"/>
      <point x="641" y="698" type="line"/>
    </contour>
    <contour>
      <point x="361" y="745" type="qcurve" smooth="yes"/>
      <point x="237" y="745"/>
      <point x="197" y="850" type="qcurve"/>
      <point x="176" y="899" type="line"/>
      <point x="282" y="940" type="line"/>
      <point x="315" y="842" type="line"/>
      <point x="332" y="835"/>
      <point x="361" y="835" type="qcurve" smooth="yes"/>
      <point x="391" y="835"/>
      <point x="408" y="842" type="qcurve"/>
      <point x="440" y="940" type="line"/>
      <point x="547" y="899" type="line"/>
      <point x="526" y="850" type="line" smooth="yes"/>
      <point x="481" y="745"/>
    </contour>
  </outline>
</glyph>
<glyph name="afii10029" format="2">
  <advance width="728"/>
  <unicode hex="041B"/>
  <outline>
    <contour>
      <point x="67" y="-5" type="qcurve" smooth="yes"/>
      <point x="18" y="-5" type="line"/>
      <point x="18" y="123" type="line"/>
      <point x="99" y="123" type="line"/>
      <point x="135" y="152"/>
      <point x="169" y="315"/>
      <point x="169" y="482" type="qcurve" smooth="yes"/>
      <point x="169" y="698" type="line"/>
      <point x="648" y="698" type="line"/>
      <point x="648" y="0" type="line"/>
      <point x="509" y="0" type="line"/>
      <point x="509" y="575" type="line"/>
      <point x="304" y="575" type="line"/>
      <point x="304" y="463" type="line" smooth="yes"/>
      <point x="304" y="282"/>
      <point x="252" y="78"/>
      <point x="147" y="-5"/>
    </contour>
  </outline>
</glyph>
<glyph name="afii10031" format="2">
  <advance width="721"/>
  <unicode hex="041D"/>
  <outline>
    <contour>
      <point x="641" y="0" type="line"/>
      <point x="502" y="0" type="line"/>
      <point x="502" y="292" type="line"/>
      <point x="219" y="292" type="line"/>
      <point x="219" y="0" type="line"/>
      <point x="80" y="0" type="line"/>
      <point x="80" y="698" type="line"/>
      <point x="219" y="698" type="line"/>
      <point x="219" y="415" type="line"/>
      <point x="502" y="415" type="line"/>
      <point x="502" y="698" type="line"/>
      <point x="641" y="698" type="line"/>
    </contour>
  </outline>
</glyph>
<glyph name="afii10033" format="2">
  <advance width="706"/>
  <unicode hex="041F"/>
  <outline>
    <contour>
      <point x="626" y="0" type="line"/>
      <point x="487" y="0" type="line"/>
      <point x="487" y="575" type="line"/>
      <point x="219" y="575" type="line"/>
      <point x="219" y="0" type="line"/>
      <point x="80" y="0" type="line"/>
      <point x="80" y="698" type="line"/>
      <point x="626" y="698" type="line"/>
    </contour>
  </outline>
</glyph>
<glyph name="Tecyr" format="2">
  <advance width="582"/>
  <unicode hex="0422"/>
  <outline>
    <contour>
      <point x="360" y="0" type="line"/>
      <point x="221" y="0" type="line"/>
      <point x="221" y="575" type="line"/>
      <point x="26" y="575" type="line"/>
      <point x="26" y="698" type="line"/>
      <point x="556" y="698" type="line"/>
      <point x="556" y="575" type="line"/>
      <point x="360" y="575" type="line"/>
    </contour>
  </outline>
</glyph>
<glyph name="u0423" format="2">
  <advance width="624"/>
  <unicode hex="0423"/>
  <outline>
    <contour>
      <point x="215" y="0" type="qcurve" smooth="yes"/>
      <point x="124" y="0" type="line"/>
      <point x="124" y="123" type="line"/>
      <point x="242" y="123" type="line"/>
      <point x="260" y="170" type="line"/>
      <point x="14" y="698" type="line"/>
      <point x="160" y="698" type="line"/>
      <point x="281" y="431" type="line"/>
      <point x="325" y="326" type="line"/>
      <point x="329" y="326" type="line"/>
      <point x="367" y="432" type="line"/>
      <point x="472" y="698" type="line"/>
      <point x="609" y="698" type="line"/>
      <point x="363" y="96" type="line"/>
      <point x="344" y="43"/>
      <point x="275" y="0"/>
    </contour>
  </outline>
</glyph>
<glyph name="afii10038" format="2">
  <advance width="893"/>
  <unicode hex="0424"/>
  <outline>
    <contour>
      <point x="517" y="-41" type="line"/>
      <point x="376" y="-41" type="line"/>
      <point x="376" y="49" type="line"/>
      <point x="337" y="49" type="line" smooth="yes"/>
      <point x="247" y="49"/>
      <point x="113" y="128"/>
      <point x="38" y="263"/>
      <point x="38" y="347" type="qcurve" smooth="yes"/>
      <point x="38" y="440"/>
      <point x="117" y="574"/>
      <point x="253" y="647"/>
      <point x="337" y="647" type="qcurve" smooth="yes"/>
      <point x="376" y="647" type="line"/>
      <point x="376" y="737" type="line"/>
      <point x="517" y="737" type="line"/>
      <point x="517" y="647" type="line"/>
      <point x="556" y="647" type="line" smooth="yes"/>
      <point x="656" y="647"/>
      <point x="723" y="602" type="qcurve"/>
      <point x="792" y="553"/>
      <point x="855" y="417"/>
      <point x="855" y="347" type="qcurve" smooth="yes"/>
      <point x="855" y="258"/>
      <point x="775" y="124"/>
      <point x="640" y="49"/>
      <point x="556" y="49" type="qcurve" smooth="yes"/>
      <point x="517" y="49" type="line"/>
    </contour>
    <contour>
      <point x="379" y="163" type="line"/>
      <point x="379" y="533" type="line"/>
      <point x="337" y="533" type="line" smooth="yes"/>
      <point x="282" y="533"/>
      <point x="213" y="489"/>
      <point x="181" y="419"/>
      <point x="181" y="379" type="qcurve" smooth="yes"/>
      <point x="181" y="317" type="line" smooth="yes"/>
      <point x="181" y="275"/>
      <point x="213" y="205"/>
      <point x="282" y="163"/>
      <point x="337" y="163" type="qcurve" smooth="yes"/>
    </contour>
    <contour>
      <point x="556" y="163" type="line" smooth="yes"/>
      <point x="611" y="163"/>
      <point x="679" y="205"/>
      <point x="711" y="275"/>
      <point x="711" y="317" type="qcurve" smooth="yes"/>
      <point x="711" y="379" type="line" smooth="yes"/>
      <point x="711" y="421"/>
      <point x="679" y="491"/>
      <point x="610" y="533"/>
      <point x="556" y="533" type="qcurve" smooth="yes"/>
      <point x="514" y="533" type="line"/>
      <point x="514" y="163" type="line"/>
    </contour>
  </outline>
</glyph>
<glyph name="u0426" format="2">
  <advance width="764"/>
  <unicode hex="0426"/>
  <outline>
    <contour>
      <point x="736" y="-150" type="line"/>
      <point x="605" y="-150" type="line"/>
      <point x="605" y="0" type="line"/>
      <point x="80" y="0" type="line"/>
      <point x="80" y="698" type="line"/>
      <point x="219" y="698" type="line"/>
      <point x="219" y="123" type="line"/>
      <point x="487" y="123" type="line"/>
      <point x="487" y="698" type="line"/>
      <point x="626" y="698" type="line"/>
      <point x="626" y="123" type="line"/>
      <point x="736" y="123" type="line"/>
    </contour>
  </outline>
</glyph>
<glyph name="Shacyr" format="2">
  <advance width="1016"/>
  <unicode hex="0428"/>
  <outline>
    <contour>
      <point x="936" y="0" type="line"/>
      <point x="80" y="0" type="line"/>
      <point x="80" y="698" type="line"/>
      <point x="219" y="698" type="line"/>
      <point x="219" y="123" type="line"/>
      <point x="439" y="123" type="line"/>
      <point x="439" y="698" type="line"/>
      <point x="578" y="698" type="line"/>
      <point x="578" y="123" type="line"/>
      <point x="797" y="123" type="line"/>
      <point x="797" y="698" type="line"/>
      <point x="936" y="698" type="line"/>
    </contour>
  </outline>
</glyph>
<glyph name="u0429" format="2">
  <advance width="1074"/>
  <unicode hex="0429"/>
  <outline>
    <contour>
      <point x="1046" y="-150" type="line"/>
      <point x="916" y="-150" type="line"/>
      <point x="916" y="0" type="line"/>
      <point x="80" y="0" type="line"/>
      <point x="80" y="698" type="line"/>
      <point x="219" y="698" type="line"/>
      <point x="219" y="123" type="line"/>
      <point x="438" y="123" type="line"/>
      <point x="438" y="698" type="line"/>
      <point x="577" y="698" type="line"/>
      <point x="577" y="123" type="line"/>
      <point x="797" y="123" type="line"/>
      <point x="797" y="698" type="line"/>
      <point x="936" y="698" type="line"/>
      <point x="936" y="123" type="line"/>
      <point x="1046" y="123" type="line"/>
    </contour>
  </outline>
</glyph>
<glyph name="u042A" format="2">
  <advance width="755"/>
  <unicode hex="042A"/>
  <outline>
    <contour>
      <point x="497" y="121" type="line" smooth="yes"/>
      <point x="576" y="121"/>
      <point x="576" y="198" type="qcurve" smooth="yes"/>
      <point x="576" y="243" type="line" smooth="yes"/>
      <point x="576" y="284"/>
      <point x="531" y="320"/>
      <point x="497" y="320" type="qcurve" smooth="yes"/>
      <point x="318" y="320" type="line"/>
      <point x="318" y="121" type="line"/>
    </contour>
    <contour>
      <point x="512" y="0" type="qcurve" smooth="yes"/>
      <point x="179" y="0" type="line"/>
      <point x="179" y="575" type="line"/>
      <point x="22" y="575" type="line"/>
      <point x="22" y="698" type="line"/>
      <point x="318" y="698" type="line"/>
      <point x="318" y="441" type="line"/>
      <point x="512" y="441" type="line" smooth="yes"/>
      <point x="607" y="441"/>
      <point x="721" y="322"/>
      <point x="721" y="220" type="qcurve" smooth="yes"/>
      <point x="721" y="125"/>
      <point x="615" y="0"/>
    </contour>
  </outline>
</glyph>
<glyph name="u042F" format="2">
  <advance width="671"/>
  <unicode hex="042F"/>
  <outline>
    <contour>
      <point x="452" y="382" type="line"/>
      <point x="452" y="577" type="line"/>
      <point x="285" y="577" type="line"/>
      <point x="206" y="575"/>
      <point x="206" y="502" type="qcurve" smooth="yes"/>
      <point x="206" y="457" type="line" smooth="yes"/>
      <point x="206" y="382"/>
      <point x="283" y="382" type="qcurve" smooth="yes"/>
    </contour>
    <contour>
      <point x="591" y="0" type="line"/>
      <point x="452" y="0" type="line"/>
      <point x="452" y="264" type="line"/>
      <point x="348" y="264" type="line"/>
      <point x="231" y="72" type="line"/>
      <point x="207" y="31"/>
      <point x="153" y="0"/>
      <point x="114" y="0" type="qcurve" smooth="yes"/>
      <point x="42" y="0" type="line"/>
      <point x="42" y="123" type="line"/>
      <point x="103" y="123" type="line"/>
      <point x="166" y="227" type="line"/>
      <point x="185" y="268"/>
      <point x="234" y="277" type="qcurve"/>
      <point x="234" y="283" type="line"/>
      <point x="144" y="294"/>
      <point x="62" y="402"/>
      <point x="62" y="480" type="qcurve" smooth="yes"/>
      <point x="62" y="558"/>
      <point x="122" y="654"/>
      <point x="228" y="698"/>
      <point x="297" y="698" type="qcurve" smooth="yes"/>
      <point x="591" y="698" type="line"/>
    </contour>
  </outline>
</glyph>
<glyph name="afii10066" format="2">
  <advance width="567"/>
  <unicode hex="0431"/>
  <outline>
    <contour>
      <point x="286" y="-12" type="qcurve" smooth="yes"/>
      <point x="42" y="-12"/>
      <point x="42" y="322" type="qcurve" smooth="yes"/>
      <point x="42" y="524"/>
      <point x="179" y="723"/>
      <point x="324" y="735" type="qcurve" smooth="yes"/>
      <point x="493" y="751" type="line"/>
      <point x="493" y="621" type="line"/>
      <point x="321" y="604" type="line"/>
      <point x="246" y="601"/>
      <point x="183" y="507"/>
      <point x="183" y="408" type="qcurve"/>
      <point x="188" y="408" type="line"/>
      <point x="222" y="511"/>
      <point x="329" y="511" type="qcurve" smooth="yes"/>
      <point x="383" y="511"/>
      <point x="474" y="454"/>
      <point x="529" y="343"/>
      <point x="529" y="261" type="qcurve" smooth="yes"/>
      <point x="529" y="183"/>
      <point x="475" y="59"/>
      <point x="367" y="-12"/>
    </contour>
    <contour>
      <point x="286" y="96" type="qcurve" smooth="yes"/>
      <point x="341" y="96"/>
      <point x="388" y="163"/>
      <point x="388" y="223" type="qcurve" smooth="yes"/>
      <point x="388" y="287" type="line"/>
      <point x="386" y="347"/>
      <point x="331" y="403"/>
      <point x="286" y="403" type="qcurve" smooth="yes"/>
      <point x="231" y="403"/>
      <point x="184" y="341"/>
      <point x="184" y="294" type="qcurve" smooth="yes"/>
      <point x="184" y="212" type="line"/>
      <point x="187" y="96"/>
    </contour>
  </outline>
</glyph>
<glyph name="vecyr" format="2">
  <advance width="573"/>
  <unicode hex="0432"/>
  <outline>
    <contour>
      <point x="341" y="98" type="line" smooth="yes"/>
      <point x="392" y="98"/>
      <point x="392" y="145" type="qcurve" smooth="yes"/>
      <point x="392" y="175" type="line"/>
      <point x="388" y="224"/>
      <point x="341" y="224" type="qcurve" smooth="yes"/>
      <point x="204" y="224" type="line"/>
      <point x="204" y="98" type="line"/>
    </contour>
    <contour>
      <point x="325" y="307" type="line"/>
      <point x="372" y="309"/>
      <point x="372" y="353" type="qcurve" smooth="yes"/>
      <point x="372" y="380" type="line"/>
      <point x="370" y="426"/>
      <point x="325" y="426" type="qcurve" smooth="yes"/>
      <point x="204" y="426" type="line"/>
      <point x="204" y="307" type="line"/>
    </contour>
    <contour>
      <point x="368" y="0" type="qcurve" smooth="yes"/>
      <point x="72" y="0" type="line"/>
      <point x="72" y="523" type="line"/>
      <point x="364" y="523" type="line" smooth="yes"/>
      <point x="439" y="523"/>
      <point x="509" y="448"/>
      <point x="509" y="391" type="qcurve" smooth="yes"/>
      <point x="509" y="291"/>
      <point x="400" y="278" type="qcurve"/>
      <point x="400" y="273" type="line"/>
      <point x="529" y="261"/>
      <point x="529" y="152" type="qcurve" smooth="yes"/>
      <point x="529" y="75"/>
      <point x="435" y="0"/>
    </contour>
  </outline>
</glyph>
<glyph name="afii10069" format="2">
  <advance width="646"/>
  <unicode hex="0434"/>
  <outline>
    <contour>
      <point x="629" y="-140" type="line"/>
      <point x="507" y="-140" type="line"/>
      <point x="507" y="0" type="line"/>
      <point x="132" y="0" type="line"/>
      <point x="132" y="-140" type="line"/>
      <point x="10" y="-140" type="line"/>
      <point x="10" y="106" type="line"/>
      <point x="77" y="106" type="line"/>
      <point x="132" y="178"/>
      <point x="132" y="374" type="qcurve" smooth="yes"/>
      <point x="132" y="523" type="line"/>
      <point x="540" y="523" type="line"/>
      <point x="540" y="106" type="line"/>
      <point x="629" y="106" type="line"/>
    </contour>
    <contour>
      <point x="405" y="106" type="line"/>
      <point x="405" y="417" type="line"/>
      <point x="261" y="417" type="line"/>
      <point x="261" y="269"/>
      <point x="238" y="141"/>
      <point x="219" y="106" type="qcurve"/>
    </contour>
  </outline>
</glyph>
<glyph name="afii10073" format="2">
  <advance width="525"/>
  <unicode hex="0437"/>
  <outline>
    <contour>
      <point x="248" y="-12" type="qcurve" smooth="yes"/>
      <point x="100" y="-12"/>
      <point x="24" y="84" type="qcurve"/>
      <point x="106" y="164" type="line"/>
      <point x="161" y="95"/>
      <point x="249" y="95" type="qcurve" smooth="yes"/>
      <point x="299" y="95"/>
      <point x="344" y="130"/>
      <point x="344" y="158" type="qcurve" smooth="yes"/>
      <point x="344" y="180"/>
      <point x="340" y="192" type="qcurve" smooth="yes"/>
      <point x="331" y="221"/>
      <point x="262" y="221" type="qcurve" smooth="yes"/>
      <point x="163" y="221" type="line"/>
      <point x="163" y="313" type="line"/>
      <point x="265" y="313" type="line" smooth="yes"/>
      <point x="332" y="313"/>
      <point x="332" y="363" type="qcurve" smooth="yes"/>
      <point x="332" y="374" type="line" smooth="yes"/>
      <point x="332" y="428"/>
      <point x="245" y="428" type="qcurve" smooth="yes"/>
      <point x="161" y="428"/>
      <point x="116" y="363" type="qcurve"/>
      <point x="35" y="435" type="line"/>
      <point x="110" y="535"/>
      <point x="255" y="535" type="qcurve" smooth="yes"/>
      <point x="368" y="535"/>
      <point x="469" y="452"/>
      <point x="469" y="392" type="qcurve" smooth="yes"/>
      <point x="469" y="293"/>
      <point x="360" y="277" type="qcurve"/>
      <point x="360" y="272" type="line"/>
      <point x="481" y="255"/>
      <point x="481" y="155" type="qcurve" smooth="yes"/>
      <point x="481" y="96"/>
      <point x="420" y="23"/>
      <point x="314" y="-12"/>
    </contour>
  </outline>
</glyph>
<glyph name="ishortcyr" format="2">
  <advance width="607"/>
  <unicode hex="0439"/>
  <outline>
    <contour>
      <point x="535" y="0" type="line"/>
      <point x="403" y="0" type="line"/>
      <point x="403" y="225" type="line"/>
      <point x="415" y="348" type="line"/>
      <point x="412" y="348" type="line"/>
      <point x="350" y="236" type="line"/>
      <point x="193" y="0" type="line"/>
      <point x="72" y="0" type="line"/>
      <point x="72" y="523" type="line"/>
      <point x="204" y="523" type="line"/>
      <point x="204" y="298" type="line"/>
      <point x="192" y="176" type="line"/>
      <point x="196" y="176" type="line"/>
      <point x="257" y="287" type="line"/>
      <point x="414" y="523" type="line"/>
      <point x="535" y="523" type="line"/>
    </contour>
    <contour>
      <point x="305" y="582" type="qcurve" smooth="yes"/>
      <point x="186" y="582"/>
      <point x="140" y="688" type="qcurve" smooth="yes"/>
      <point x="119" y="736" type="line"/>
      <point x="226" y="777" type="line"/>
      <point x="258" y="680" type="line"/>
      <point x="275" y="673"/>
      <point x="305" y="673" type="qcurve" smooth="yes"/>
      <point x="334" y="673"/>
      <point x="351" y="680" type="qcurve"/>
      <point x="384" y="777" type="line"/>
      <point x="490" y="736" type="line"/>
      <point x="469" y="688" type="line" smooth="yes"/>
      <point x="423" y="582"/>
    </contour>
  </outline>
</glyph>
<glyph name="afii10076" format="2">
  <advance width="583"/>
  <unicode hex="043A"/>
  <outline>
    <contour>
      <point x="545" y="0" type="line"/>
      <point x="478" y="0" type="line" smooth="yes"/>
      <point x="401" y="0"/>
      <point x="366" y="73" type="qcurve"/>
      <point x="288" y="213" type="line"/>
      <point x="207" y="213" type="line"/>
      <point x="207" y="0" type="line"/>
      <point x="72" y="0" type="line"/>
      <point x="72" y="523" type="line"/>
      <point x="207" y="523" type="line"/>
      <point x="207" y="319" type="line"/>
      <point x="288" y="319" type="line"/>
      <point x="363" y="453" type="line"/>
      <point x="394" y="523"/>
      <point x="474" y="523" type="qcurve" smooth="yes"/>
      <point x="532" y="523" type="line"/>
      <point x="532" y="417" type="line"/>
      <point x="477" y="417" type="line"/>
      <point x="425" y="324" type="line"/>
      <point x="403" y="280"/>
      <point x="367" y="272" type="qcurve"/>
      <point x="367" y="267" type="line"/>
      <point x="403" y="263"/>
      <point x="427" y="220" type="qcurve" smooth="yes"/>
      <point x="490" y="106" type="line"/>
      <point x="545" y="106" type="line"/>
    </contour>
  </outline>
</glyph>
<glyph name="u043D" format="2">
  <advance width="607"/>
  <unicode hex="043D"/>
  <outline>
    <contour>
      <point x="535" y="0" type="line"/>
      <point x="400" y="0" type="line"/>
      <point x="400" y="213" type="line"/>
      <point x="207" y="213" type="line"/>
      <point x="207" y="0" type="line"/>
      <point x="72" y="0" type="line"/>
      <point x="72" y="523" type="line"/>
      <point x="207" y="523" type="line"/>
      <point x="207" y="320" type="line"/>
      <point x="400" y="320" type="line"/>
      <point x="400" y="523" type="line"/>
      <point x="535" y="523" type="line"/>
    </contour>
  </outline>
</glyph>
<glyph name="afii10082" format="2">
  <advance width="603"/>
  <unicode hex="0440"/>
  <outline>
    <contour>
      <point x="207" y="-200" type="line"/>
      <point x="72" y="-200" type="line"/>
      <point x="72" y="523" type="line"/>
      <point x="207" y="523" type="line"/>
      <point x="207" y="436" type="line"/>
      <point x="212" y="436" type="line"/>
      <point x="229" y="484"/>
      <point x="307" y="535"/>
      <point x="355" y="535" type="qcurve" smooth="yes"/>
      <point x="427" y="535"/>
      <point x="517" y="467"/>
      <point x="558" y="344"/>
      <point x="558" y="262" type="qcurve" smooth="yes"/>
      <point x="557" y="-12"/>
      <point x="355" y="-12" type="qcurve" smooth="yes"/>
      <point x="299" y="-12"/>
      <point x="227" y="44"/>
      <point x="212" y="87" type="qcurve"/>
      <point x="207" y="87" type="line"/>
    </contour>
    <contour>
      <point x="311" y="99" type="qcurve" smooth="yes"/>
      <point x="370" y="99"/>
      <point x="417" y="176"/>
      <point x="417" y="228" type="qcurve" smooth="yes"/>
      <point x="417" y="307" type="line" smooth="yes"/>
      <point x="417" y="356"/>
      <point x="363" y="424"/>
      <point x="311" y="424" type="qcurve" smooth="yes"/>
      <point x="257" y="424"/>
      <point x="207" y="371"/>
      <point x="207" y="330" type="qcurve" smooth="yes"/>
      <point x="207" y="180" type="line" smooth="yes"/>
      <point x="207" y="138"/>
      <point x="269" y="99"/>
    </contour>
  </outline>
</glyph>
<glyph name="ucyr" format="2">
  <advance width="527"/>
  <unicode hex="0443"/>
  <outline>
    <contour>
      <point x="159" y="-200" type="qcurve" smooth="yes"/>
      <point x="76" y="-200" type="line"/>
      <point x="76" y="-94" type="line"/>
      <point x="172" y="-94" type="line"/>
      <point x="194" y="-26" type="line"/>
      <point x="8" y="523" type="line"/>
      <point x="142" y="523" type="line"/>
      <point x="237" y="224"/>
      <point x="241" y="205" type="qcurve"/>
      <point x="252" y="161"/>
      <point x="264" y="119" type="qcurve"/>
      <point x="269" y="119" type="line"/>
      <point x="298" y="224" type="line"/>
      <point x="392" y="523" type="line"/>
      <point x="519" y="523" type="line"/>
      <point x="312" y="-88" type="line"/>
      <point x="294" y="-146"/>
      <point x="222" y="-200"/>
    </contour>
  </outline>
</glyph>
<glyph name="u0444" format="2">
  <advance width="794"/>
  <unicode hex="0444"/>
  <outline>
    <contour>
      <point x="531" y="87" type="qcurve" smooth="yes"/>
      <point x="576" y="87"/>
      <point x="612" y="151"/>
      <point x="612" y="226" type="qcurve" smooth="yes"/>
      <point x="612" y="316" type="line" smooth="yes"/>
      <point x="612" y="436"/>
      <point x="535" y="436" type="qcurve" smooth="yes"/>
      <point x="493" y="436"/>
      <point x="464" y="400"/>
      <point x="464" y="359" type="qcurve" smooth="yes"/>
      <point x="464" y="148" type="line" smooth="yes"/>
      <point x="464" y="87"/>
    </contour>
    <contour>
      <point x="262" y="87" type="line" smooth="yes"/>
      <point x="300" y="87"/>
      <point x="330" y="123"/>
      <point x="330" y="164" type="qcurve" smooth="yes"/>
      <point x="330" y="376" type="line" smooth="yes"/>
      <point x="330" y="436"/>
      <point x="262" y="436" type="qcurve" smooth="yes"/>
      <point x="217" y="436"/>
      <point x="181" y="374"/>
      <point x="181" y="298" type="qcurve" smooth="yes"/>
      <point x="181" y="208" type="line" smooth="yes"/>
      <point x="181" y="87"/>
      <point x="258" y="87" type="qcurve" smooth="yes"/>
    </contour>
    <contour>
      <point x="464" y="-200" type="line"/>
      <point x="329" y="-200" type="line"/>
      <point x="329" y="56" type="line"/>
      <point x="325" y="56" type="line"/>
      <point x="289" y="-12"/>
      <point x="211" y="-12" type="qcurve" smooth="yes"/>
      <point x="123" y="-12"/>
      <point x="42" y="117"/>
      <point x="42" y="261" type="qcurve" smooth="yes"/>
      <point x="42" y="405"/>
      <point x="123" y="535"/>
      <point x="211" y="535" type="qcurve" smooth="yes"/>
      <point x="286" y="535"/>
      <point x="325" y="466" type="qcurve"/>
      <point x="329" y="466" type="line"/>
      <point x="329" y="710" type="line"/>
      <point x="464" y="710" type="line"/>
      <point x="464" y="466" type="line"/>
      <point x="469" y="466" type="line"/>
      <point x="506" y="535"/>
      <point x="583" y="535" type="qcurve" smooth="yes"/>
      <point x="671" y="535"/>
      <point x="752" y="405"/>
      <point x="752" y="261" type="qcurve" smooth="yes"/>
      <point x="752" y="122"/>
      <point x="673" y="-12"/>
      <point x="583" y="-12" type="qcurve" smooth="yes"/>
      <point x="504" y="-12"/>
      <point x="469" y="56" type="qcurve"/>
      <point x="464" y="56" type="line"/>
    </contour>
  </outline>
</glyph>
<glyph name="u0445" format="2">
  <advance width="550"/>
  <unicode hex="0445"/>
  <outline>
    <contour>
      <point x="531" y="0" type="line"/>
      <point x="377" y="0" type="line"/>
      <point x="270" y="177" type="line"/>
      <point x="266" y="177" type="line"/>
      <point x="160" y="0" type="line"/>
      <point x="19" y="0" type="line"/>
      <point x="195" y="266" type="line"/>
      <point x="22" y="523" type="line"/>
      <point x="176" y="523" type="line"/>
      <point x="280" y="353" type="line"/>
      <point x="284" y="353" type="line"/>
      <point x="387" y="523" type="line"/>
      <point x="530" y="523" type="line"/>
      <point x="354" y="263" type="line"/>
    </contour>
  </outline>
</glyph>
<glyph name="afii10089" format="2">
  <advance width="570"/>
  <unicode hex="0447"/>
  <outline>
    <contour>
      <point x="498" y="0" type="line"/>
      <point x="363" y="0" type="line"/>
      <point x="363" y="226" type="line"/>
      <point x="358" y="226" type="line"/>
      <point x="318" y="158"/>
      <point x="218" y="158" type="qcurve" smooth="yes"/>
      <point x="129" y="158"/>
      <point x="50" y="248"/>
      <point x="50" y="340" type="qcurve" smooth="yes"/>
      <point x="50" y="523" type="line"/>
      <point x="185" y="523" type="line"/>
      <point x="185" y="347" type="line" smooth="yes"/>
      <point x="185" y="269"/>
      <point x="266" y="269" type="qcurve" smooth="yes"/>
      <point x="363" y="269"/>
      <point x="363" y="324" type="qcurve" smooth="yes"/>
      <point x="363" y="523" type="line"/>
      <point x="498" y="523" type="line"/>
    </contour>
  </outline>
</glyph>
<glyph name="u044B" format="2">
  <advance width="793"/>
  <unicode hex="044B"/>
  <outline>
    <contour>
      <point x="308" y="98" type="line" smooth="yes"/>
      <point x="378" y="98"/>
      <point x="378" y="161" type="qcurve" smooth="yes"/>
      <point x="378" y="201" type="line" smooth="yes"/>
      <point x="378" y="263"/>
      <point x="308" y="263" type="qcurve" smooth="yes"/>
      <point x="207" y="263" type="line"/>
      <point x="207" y="98" type="line"/>
    </contour>
    <contour>
      <point x="721" y="0" type="line"/>
      <point x="586" y="0" type="line"/>
      <point x="586" y="523" type="line"/>
      <point x="721" y="523" type="line"/>
    </contour>
    <contour>
      <point x="336" y="0" type="qcurve" smooth="yes"/>
      <point x="72" y="0" type="line"/>
      <point x="72" y="523" type="line"/>
      <point x="207" y="523" type="line"/>
      <point x="207" y="361" type="line"/>
      <point x="336" y="361" type="line" smooth="yes"/>
      <point x="414" y="361"/>
      <point x="515" y="266"/>
      <point x="515" y="181" type="qcurve" smooth="yes"/>
      <point x="515" y="91"/>
      <point x="412" y="0"/>
    </contour>
  </outline>
</glyph>
<glyph name="afii10097" format="2">
  <advance width="575"/>
  <unicode hex="044F"/>
  <outline>
    <contour>
      <point x="503" y="0" type="line"/>
      <point x="368" y="0" type="line"/>
      <point x="368" y="186" type="line"/>
      <point x="277" y="186" type="line"/>
      <point x="222" y="74" type="line"/>
      <point x="190" y="0"/>
      <point x="110" y="0" type="qcurve" smooth="yes"/>
      <point x="42" y="0" type="line"/>
      <point x="42" y="106" type="line"/>
      <point x="98" y="106" type="line"/>
      <point x="124" y="159" type="line" smooth="yes"/>
      <point x="142" y="197"/>
      <point x="181" y="202" type="qcurve"/>
      <point x="181" y="207" type="line"/>
      <point x="50" y="223"/>
      <point x="50" y="351" type="qcurve" smooth="yes"/>
      <point x="50" y="441"/>
      <point x="163" y="523"/>
      <point x="252" y="523" type="qcurve" smooth="yes"/>
      <point x="503" y="523" type="line"/>
    </contour>
    <contour>
      <point x="368" y="284" type="line"/>
      <point x="368" y="425" type="line"/>
      <point x="257" y="425" type="line" smooth="yes"/>
      <point x="187" y="425"/>
      <point x="187" y="362" type="qcurve" smooth="yes"/>
      <point x="187" y="335"/>
      <point x="191" y="320" type="qcurve" smooth="yes"/>
      <point x="200" y="284"/>
      <point x="271" y="284" type="qcurve" smooth="yes"/>
    </contour>
  </outline>
</glyph>
<glyph name="u045A" format="2">
  <advance width="862"/>
  <unicode hex="045A"/>
  <outline>
    <contour>
      <point x="628" y="98" type="line" smooth="yes"/>
      <point x="697" y="98"/>
      <point x="697" y="161" type="qcurve" smooth="yes"/>
      <point x="697" y="201" type="line" smooth="yes"/>
      <point x="697" y="263"/>
      <point x="628" y="263" type="qcurve" smooth="yes"/>
      <point x="527" y="263" type="line"/>
      <point x="527" y="98" type="line"/>
    </contour>
    <contour>
      <point x="656" y="0" type="qcurve" smooth="yes"/>
      <point x="392" y="0" type="line"/>
      <point x="392" y="213" type="line"/>
      <point x="207" y="213" type="line"/>
      <point x="207" y="0" type="line"/>
      <point x="72" y="0" type="line"/>
      <point x="72" y="523" type="line"/>
      <point x="207" y="523" type="line"/>
      <point x="207" y="320" type="line"/>
      <point x="392" y="320" type="line"/>
      <point x="392" y="523" type="line"/>
      <point x="527" y="523" type="line"/>
      <point x="527" y="361" type="line"/>
      <point x="656" y="361" type="line" smooth="yes"/>
      <point x="743" y="361"/>
      <point x="834" y="258"/>
      <point x="834" y="181" type="qcurve" smooth="yes"/>
      <point x="834" y="91"/>
      <point x="731" y="0"/>
    </contour>
  </outline>
</glyph>
<glyph name="afii10108" format="2">
  <advance width="591"/>
  <unicode hex="045B"/>
  <outline>
    <contour>
      <point x="524" y="0" type="line"/>
      <point x="389" y="0" type="line"/>
      <point x="389" y="317" type="line" smooth="yes"/>
      <point x="389" y="424"/>
      <point x="311" y="424" type="qcurve" smooth="yes"/>
      <point x="272" y="424"/>
      <point x="207" y="386"/>
      <point x="207" y="343" type="qcurve" smooth="yes"/>
      <point x="207" y="0" type="line"/>
      <point x="72" y="0" type="line"/>
      <point x="72" y="593" type="line"/>
      <point x="10" y="593" type="line"/>
      <point x="10" y="686" type="line"/>
      <point x="72" y="686" type="line"/>
      <point x="72" y="740" type="line"/>
      <point x="207" y="740" type="line"/>
      <point x="207" y="686" type="line"/>
      <point x="349" y="686" type="line"/>
      <point x="349" y="593" type="line"/>
      <point x="207" y="593" type="line"/>
      <point x="207" y="435" type="line"/>
      <point x="213" y="435" type="line"/>
      <point x="247" y="535"/>
      <point x="359" y="535" type="qcurve" smooth="yes"/>
      <point x="418" y="535"/>
      <point x="491" y="482"/>
      <point x="524" y="389"/>
      <point x="524" y="329" type="qcurve" smooth="yes"/>
    </contour>
  </outline>
</glyph>
<glyph name="u045E" format="2">
  <advance width="527"/>
  <unicode hex="045E"/>
  <outline>
    <contour>
      <point x="159" y="-200" type="qcurve" smooth="yes"/>
      <point x="76" y="-200" type="line"/>
      <point x="76" y="-94" type="line"/>
      <point x="172" y="-94" type="line"/>
      <point x="194" y="-26" type="line"/>
      <point x="8" y="523" type="line"/>
      <point x="142" y="523" type="line"/>
      <point x="237" y="224"/>
      <point x="241" y="205" type="qcurve"/>
      <point x="252" y="161"/>
      <point x="264" y="119" type="qcurve"/>
      <point x="269" y="119" type="line"/>
      <point x="298" y="224" type="line"/>
      <point x="392" y="523" type="line"/>
      <point x="519" y="523" type="line"/>
      <point x="312" y="-88" type="line"/>
      <point x="294" y="-146"/>
      <point x="222" y="-200"/>
    </contour>
    <contour>
      <point x="268" y="582" type="qcurve" smooth="yes"/>
      <point x="149" y="582"/>
      <point x="103" y="688" type="qcurve" smooth="yes"/>
      <point x="83" y="736" type="line"/>
      <point x="189" y="777" type="line"/>
      <point x="222" y="680" type="line"/>
      <point x="237" y="673"/>
      <point x="268" y="673" type="qcurve" smooth="yes"/>
      <point x="297" y="673"/>
      <point x="314" y="680" type="qcurve"/>
      <point x="347" y="777" type="line"/>
      <point x="453" y="736" type="line"/>
      <point x="433" y="688" type="line" smooth="yes"/>
      <point x="388" y="582"/>
    </contour>
  </outline>
</glyph>
<glyph name="dzhecyr" format="2">
  <advance width="593"/>
  <unicode hex="045F"/>
  <outline>
    <contour>
      <point x="358" y="-140" type="line"/>
      <point x="235" y="-140" type="line"/>
      <point x="235" y="0" type="line"/>
      <point x="72" y="0" type="line"/>
      <point x="72" y="523" type="line"/>
      <point x="207" y="523" type="line"/>
      <point x="207" y="106" type="line"/>
      <point x="386" y="106" type="line"/>
      <point x="386" y="523" type="line"/>
      <point x="521" y="523" type="line"/>
      <point x="521" y="0" type="line"/>
      <point x="358" y="0" type="line"/>
    </contour>
  </outline>
</glyph>
<glyph name="afii10195" format="2">
  <advance width="564"/>
  <unicode hex="0473"/>
  <outline>
    <contour>
      <point x="282" y="-12" type="qcurve" smooth="yes"/>
      <point x="201" y="-12"/>
      <point x="92" y="60"/>
      <point x="38" y="184"/>
      <point x="38" y="262" type="qcurve" smooth="yes"/>
      <point x="38" y="395"/>
      <point x="174" y="535"/>
      <point x="282" y="535" type="qcurve" smooth="yes"/>
      <point x="397" y="535"/>
      <point x="526" y="387"/>
      <point x="526" y="262" type="qcurve" smooth="yes"/>
      <point x="526" y="138"/>
      <point x="398" y="-12"/>
    </contour>
    <contour>
      <point x="393" y="309" type="line"/>
      <point x="393" y="435"/>
      <point x="280" y="435" type="qcurve" smooth="yes"/>
      <point x="171" y="435"/>
      <point x="171" y="309" type="qcurve"/>
    </contour>
    <contour>
      <point x="282" y="88" type="qcurve" smooth="yes"/>
      <point x="334" y="88"/>
      <point x="393" y="146"/>
      <point x="393" y="208" type="qcurve" smooth="yes"/>
      <point x="393" y="218" type="line"/>
      <point x="171" y="218" type="line"/>
      <point x="171" y="88"/>
    </contour>
  </outline>
</glyph>
<glyph name="u0490" format="2">
  <advance width="511"/>
  <unicode hex="0490"/>
  <outline>
    <contour>
      <point x="219" y="0" type="line"/>
      <point x="80" y="0" type="line"/>
      <point x="80" y="698" type="line"/>
      <point x="354" y="698" type="line"/>
      <point x="354" y="848" type="line"/>
      <point x="484" y="848" type="line"/>
      <point x="484" y="575" type="line"/>
      <point x="219" y="575" type="line"/>
    </contour>
  </outline>
</glyph>
<glyph name="u0491" format="2">
  <advance width="442"/>
  <unicode hex="0491"/>
  <outline>
    <contour>
      <point x="207" y="0" type="line"/>
      <point x="72" y="0" type="line"/>
      <point x="72" y="523" type="line"/>
      <point x="299" y="523" type="line"/>
      <point x="299" y="663" type="line"/>
      <point x="422" y="663" type="line"/>
      <point x="422" y="417" type="line"/>
      <point x="207" y="417" type="line"/>
    </contour>
  </outline>
</glyph>
<glyph name="u0495" format="2">
  <advance width="567"/>
  <unicode hex="0495"/>
  <outline>
    <contour>
      <point x="339" y="-200" type="qcurve" smooth="yes"/>
      <point x="276" y="-200" type="line"/>
      <point x="276" y="-94" type="line"/>
      <point x="361" y="-94" type="line"/>
      <point x="385" y="-72"/>
      <point x="385" y="32" type="qcurve" smooth="yes"/>
      <point x="385" y="106" type="line" smooth="yes"/>
      <point x="385" y="158"/>
      <point x="346" y="199"/>
      <point x="300" y="199" type="qcurve" smooth="yes"/>
      <point x="251" y="199"/>
      <point x="207" y="167"/>
      <point x="207" y="144" type="qcurve" smooth="yes"/>
      <point x="207" y="0" type="line"/>
      <point x="72" y="0" type="line"/>
      <point x="72" y="523" type="line"/>
      <point x="422" y="523" type="line"/>
      <point x="422" y="417" type="line"/>
      <point x="207" y="417" type="line"/>
      <point x="207" y="242" type="line"/>
      <point x="212" y="242" type="line"/>
      <point x="253" y="310"/>
      <point x="351" y="310" type="qcurve" smooth="yes"/>
      <point x="520" y="310"/>
      <point x="520" y="126" type="qcurve" smooth="yes"/>
      <point x="520" y="-1" type="line" smooth="yes"/>
      <point x="520" y="-104"/>
      <point x="430" y="-200"/>
    </contour>
  </outline>
</glyph>
<glyph name="Zhedescendercyrillic" format="2">
  <advance width="1021"/>
  <unicode hex="0496"/>
  <outline>
    <contour>
      <point x="1009" y="-150" type="line"/>
      <point x="878" y="-150" type="line"/>
      <point x="878" y="0" type="line"/>
      <point x="803" y="0"/>
      <point x="768" y="84" type="qcurve"/>
      <point x="667" y="292" type="line"/>
      <point x="570" y="292" type="line"/>
      <point x="570" y="0" type="line"/>
      <point x="431" y="0" type="line"/>
      <point x="431" y="292" type="line"/>
      <point x="334" y="292" type="line"/>
      <point x="233" y="84" type="line"/>
      <point x="213" y="40"/>
      <point x="159" y="0"/>
      <point x="117" y="0" type="qcurve" smooth="yes"/>
      <point x="41" y="0" type="line"/>
      <point x="41" y="123" type="line"/>
      <point x="103" y="123" type="line"/>
      <point x="186" y="295" type="line"/>
      <point x="208" y="349"/>
      <point x="260" y="356" type="qcurve"/>
      <point x="260" y="362" type="line"/>
      <point x="216" y="372"/>
      <point x="188" y="428" type="qcurve"/>
      <point x="118" y="575" type="line"/>
      <point x="56" y="575" type="line"/>
      <point x="56" y="698" type="line"/>
      <point x="116" y="698" type="line" smooth="yes"/>
      <point x="201" y="698"/>
      <point x="237" y="617" type="qcurve"/>
      <point x="334" y="415" type="line"/>
      <point x="431" y="415" type="line"/>
      <point x="431" y="698" type="line"/>
      <point x="570" y="698" type="line"/>
      <point x="570" y="415" type="line"/>
      <point x="667" y="415" type="line"/>
      <point x="764" y="617" type="line"/>
      <point x="799" y="698"/>
      <point x="885" y="698" type="qcurve" smooth="yes"/>
      <point x="944" y="698" type="line"/>
      <point x="944" y="575" type="line"/>
      <point x="882" y="575" type="line"/>
      <point x="813" y="428" type="line"/>
      <point x="784" y="372"/>
      <point x="741" y="362" type="qcurve"/>
      <point x="741" y="356" type="line"/>
      <point x="793" y="351"/>
      <point x="825" y="273" type="qcurve"/>
      <point x="898" y="123" type="line"/>
      <point x="1009" y="123" type="line"/>
    </contour>
  </outline>
</glyph>
<glyph name="zetailcyr" format="2">
  <advance width="525"/>
  <unicode hex="0499"/>
  <outline>
    <contour>
      <point x="310" y="-140" type="line"/>
      <point x="188" y="-140" type="line"/>
      <point x="188" y="-7" type="line"/>
      <point x="87" y="9"/>
      <point x="24" y="84" type="qcurve"/>
      <point x="106" y="164" type="line"/>
      <point x="161" y="95"/>
      <point x="249" y="95" type="qcurve" smooth="yes"/>
      <point x="299" y="95"/>
      <point x="344" y="130"/>
      <point x="344" y="158" type="qcurve" smooth="yes"/>
      <point x="344" y="180"/>
      <point x="340" y="192" type="qcurve" smooth="yes"/>
      <point x="331" y="221"/>
      <point x="262" y="221" type="qcurve" smooth="yes"/>
      <point x="163" y="221" type="line"/>
      <point x="163" y="313" type="line"/>
      <point x="265" y="313" type="line" smooth="yes"/>
      <point x="332" y="313"/>
      <point x="332" y="363" type="qcurve" smooth="yes"/>
      <point x="332" y="374" type="line" smooth="yes"/>
      <point x="332" y="428"/>
      <point x="245" y="428" type="qcurve" smooth="yes"/>
      <point x="161" y="428"/>
      <point x="116" y="363" type="qcurve"/>
      <point x="35" y="435" type="line"/>
      <point x="110" y="535"/>
      <point x="255" y="535" type="qcurve" smooth="yes"/>
      <point x="368" y="535"/>
      <point x="469" y="453"/>
      <point x="469" y="392" type="qcurve" smooth="yes"/>
      <point x="469" y="290"/>
      <point x="360" y="277" type="qcurve"/>
      <point x="360" y="272" type="line"/>
      <point x="481" y="255"/>
      <point x="481" y="155" type="qcurve" smooth="yes"/>
      <point x="481" y="19"/>
      <point x="310" y="-8" type="qcurve"/>
    </contour>
  </outline>
</glyph>
<glyph name="u049A" format="2">
  <advance width="693"/>
  <unicode hex="049A"/>
  <outline>
    <contour>
      <point x="680" y="-150" type="line"/>
      <point x="550" y="-150" type="line"/>
      <point x="550" y="0" type="line"/>
      <point x="484" y="0"/>
      <point x="440" y="82" type="qcurve" smooth="yes"/>
      <point x="327" y="292" type="line"/>
      <point x="219" y="292" type="line"/>
      <point x="219" y="0" type="line"/>
      <point x="80" y="0" type="line"/>
      <point x="80" y="698" type="line"/>
      <point x="219" y="698" type="line"/>
      <point x="219" y="415" type="line"/>
      <point x="327" y="415" type="line"/>
      <point x="437" y="617" type="line"/>
      <point x="474" y="698"/>
      <point x="558" y="698" type="qcurve" smooth="yes"/>
      <point x="617" y="698" type="line"/>
      <point x="617" y="575" type="line"/>
      <point x="554" y="575" type="line"/>
      <point x="473" y="425" type="line" smooth="yes"/>
      <point x="446" y="375"/>
      <point x="402" y="362" type="qcurve"/>
      <point x="402" y="356" type="line"/>
      <point x="454" y="348"/>
      <point x="479" y="294" type="qcurve"/>
      <point x="570" y="123" type="line"/>
      <point x="680" y="123" type="line"/>
    </contour>
  </outline>
</glyph>
<glyph name="katailcyr" format="2">
  <advance width="592"/>
  <unicode hex="049B"/>
  <outline>
    <contour>
      <point x="579" y="-140" type="line"/>
      <point x="457" y="-140" type="line"/>
      <point x="457" y="1" type="line"/>
      <point x="404" y="4"/>
      <point x="327" y="143"/>
      <point x="288" y="213" type="qcurve"/>
      <point x="207" y="213" type="line"/>
      <point x="207" y="0" type="line"/>
      <point x="72" y="0" type="line"/>
      <point x="72" y="523" type="line"/>
      <point x="207" y="523" type="line"/>
      <point x="207" y="319" type="line"/>
      <point x="288" y="319" type="line"/>
      <point x="363" y="453" type="line"/>
      <point x="394" y="523"/>
      <point x="474" y="523" type="qcurve" smooth="yes"/>
      <point x="532" y="523" type="line"/>
      <point x="532" y="417" type="line"/>
      <point x="477" y="417" type="line"/>
      <point x="425" y="324" type="line"/>
      <point x="403" y="280"/>
      <point x="367" y="272" type="qcurve"/>
      <point x="367" y="267" type="line"/>
      <point x="403" y="263"/>
      <point x="427" y="220" type="qcurve" smooth="yes"/>
      <point x="490" y="106" type="line"/>
      <point x="579" y="106" type="line"/>
    </contour>
  </outline>
</glyph>
<glyph name="Kaverticalstrokecyr" format="2">
  <advance width="743"/>
  <unicode hex="049C"/>
  <outline>
    <contour>
      <point x="702" y="0" type="line"/>
      <point x="627" y="0" type="line" smooth="yes"/>
      <point x="546" y="0"/>
      <point x="511" y="82" type="qcurve"/>
      <point x="407" y="292" type="line"/>
      <point x="368" y="292" type="line"/>
      <point x="368" y="155" type="line"/>
      <point x="264" y="155" type="line"/>
      <point x="264" y="292" type="line"/>
      <point x="219" y="292" type="line"/>
      <point x="219" y="0" type="line"/>
      <point x="80" y="0" type="line"/>
      <point x="80" y="698" type="line"/>
      <point x="219" y="698" type="line"/>
      <point x="219" y="415" type="line"/>
      <point x="264" y="415" type="line"/>
      <point x="264" y="552" type="line"/>
      <point x="368" y="552" type="line"/>
      <point x="368" y="415" type="line"/>
      <point x="407" y="415" type="line"/>
      <point x="508" y="617" type="line" smooth="yes"/>
      <point x="547" y="698"/>
      <point x="628" y="698" type="qcurve" smooth="yes"/>
      <point x="687" y="698" type="line"/>
      <point x="687" y="575" type="line"/>
      <point x="625" y="575" type="line"/>
      <point x="552" y="428" type="line"/>
      <point x="527" y="375"/>
      <point x="482" y="362" type="qcurve"/>
      <point x="482" y="356" type="line"/>
      <point x="532" y="348"/>
      <point x="559" y="289" type="qcurve"/>
      <point x="641" y="123" type="line"/>
      <point x="702" y="123" type="line"/>
    </contour>
  </outline>
</glyph>
<glyph name="Kabashkcyr" format="2">
  <advance width="771"/>
  <unicode hex="04A0"/>
  <outline>
    <contour>
      <point x="731" y="0" type="line"/>
      <point x="655" y="0" type="line" smooth="yes"/>
      <point x="576" y="0"/>
      <point x="539" y="82" type="qcurve"/>
      <point x="426" y="292" type="line"/>
      <point x="318" y="292" type="line"/>
      <point x="318" y="0" type="line"/>
      <point x="179" y="0" type="line"/>
      <point x="179" y="575" type="line"/>
      <point x="22" y="575" type="line"/>
      <point x="22" y="698" type="line"/>
      <point x="318" y="698" type="line"/>
      <point x="318" y="415" type="line"/>
      <point x="426" y="415" type="line"/>
      <point x="536" y="617" type="line"/>
      <point x="573" y="698"/>
      <point x="657" y="698" type="qcurve" smooth="yes"/>
      <point x="716" y="698" type="line"/>
      <point x="716" y="575" type="line"/>
      <point x="653" y="575" type="line"/>
      <point x="572" y="425" type="line" smooth="yes"/>
      <point x="545" y="375"/>
      <point x="501" y="362" type="qcurve"/>
      <point x="501" y="356" type="line"/>
      <point x="553" y="348"/>
      <point x="578" y="294" type="qcurve"/>
      <point x="669" y="123" type="line"/>
      <point x="731" y="123" type="line"/>
    </contour>
  </outline>
</glyph>
<glyph name="u04A1" format="2">
  <advance width="660"/>
  <unicode hex="04A1"/>
  <outline>
    <contour>
      <point x="621" y="0" type="line"/>
      <point x="554" y="0" type="line" smooth="yes"/>
      <point x="479" y="0"/>
      <point x="443" y="73" type="qcurve"/>
      <point x="365" y="213" type="line"/>
      <point x="284" y="213" type="line"/>
      <point x="284" y="0" type="line"/>
      <point x="149" y="0" type="line"/>
      <point x="149" y="417" type="line"/>
      <point x="20" y="417" type="line"/>
      <point x="20" y="523" type="line"/>
      <point x="284" y="523" type="line"/>
      <point x="284" y="319" type="line"/>
      <point x="365" y="319" type="line"/>
      <point x="440" y="453" type="line"/>
      <point x="473" y="523"/>
      <point x="550" y="523" type="qcurve" smooth="yes"/>
      <point x="608" y="523" type="line"/>
      <point x="608" y="417" type="line"/>
      <point x="554" y="417" type="line"/>
      <point x="502" y="324" type="line" smooth="yes"/>
      <point x="489" y="301"/>
      <point x="462" y="277"/>
      <point x="443" y="272" type="qcurve"/>
      <point x="443" y="267" type="line"/>
      <point x="479" y="263"/>
      <point x="503" y="220" type="qcurve" smooth="yes"/>
      <point x="566" y="106" type="line"/>
      <point x="621" y="106" type="line"/>
    </contour>
  </outline>
</glyph>
<glyph name="entailcyr" format="2">
  <advance width="642"/>
  <unicode hex="04A3"/>
  <outline>
    <contour>
      <point x="625" y="-140" type="line"/>
      <point x="502" y="-140" type="line"/>
      <point x="502" y="0" type="line"/>
      <point x="400" y="0" type="line"/>
      <point x="400" y="213" type="line"/>
      <point x="207" y="213" type="line"/>
      <point x="207" y="0" type="line"/>
      <point x="72" y="0" type="line"/>
      <point x="72" y="523" type="line"/>
      <point x="207" y="523" type="line"/>
      <point x="207" y="320" type="line"/>
      <point x="400" y="320" type="line"/>
      <point x="400" y="523" type="line"/>
      <point x="535" y="523" type="line"/>
      <point x="535" y="106" type="line"/>
      <point x="625" y="106" type="line"/>
    </contour>
  </outline>
</glyph>
<glyph name="Enghecyrillic" format="2">
  <advance width="913"/>
  <unicode hex="04A4"/>
  <outline>
    <contour>
      <point x="621" y="0" type="line"/>
      <point x="482" y="0" type="line"/>
      <point x="482" y="292" type="line"/>
      <point x="219" y="292" type="line"/>
      <point x="219" y="0" type="line"/>
      <point x="80" y="0" type="line"/>
      <point x="80" y="698" type="line"/>
      <point x="219" y="698" type="line"/>
      <point x="219" y="415" type="line"/>
      <point x="482" y="415" type="line"/>
      <point x="482" y="698" type="line"/>
      <point x="886" y="698" type="line"/>
      <point x="886" y="575" type="line"/>
      <point x="621" y="575" type="line"/>
    </contour>
  </outline>
</glyph>
<glyph name="Estailcyr" format="2">
  <advance width="645"/>
  <unicode hex="04AA"/>
  <outline>
    <contour>
      <point x="421" y="-150" type="line"/>
      <point x="291" y="-150" type="line"/>
      <point x="291" y="-7" type="line"/>
      <point x="180" y="12"/>
      <point x="52" y="184"/>
      <point x="52" y="346" type="qcurve" smooth="yes"/>
      <point x="52" y="470"/>
      <point x="130" y="631"/>
      <point x="267" y="710"/>
      <point x="355" y="710" type="qcurve" smooth="yes"/>
      <point x="450" y="710"/>
      <point x="575" y="629"/>
      <point x="612" y="548" type="qcurve"/>
      <point x="493" y="485" type="line"/>
      <point x="465" y="586"/>
      <point x="355" y="586" type="qcurve" smooth="yes"/>
      <point x="288" y="586"/>
      <point x="199" y="499"/>
      <point x="199" y="404" type="qcurve" smooth="yes"/>
      <point x="199" y="294" type="line" smooth="yes"/>
      <point x="199" y="197"/>
      <point x="289" y="112"/>
      <point x="355" y="112" type="qcurve" smooth="yes"/>
      <point x="466" y="112"/>
      <point x="502" y="220" type="qcurve"/>
      <point x="615" y="153" type="line"/>
      <point x="554" y="24"/>
      <point x="421" y="-6" type="qcurve"/>
    </contour>
  </outline>
</glyph>
<glyph name="ustraightcyrillic" format="2">
  <advance width="530"/>
  <unicode hex="04AF"/>
  <outline>
    <contour>
      <point x="332" y="-200" type="line"/>
      <point x="197" y="-200" type="line"/>
      <point x="197" y="0" type="line"/>
      <point x="11" y="523" type="line"/>
      <point x="144" y="523" type="line"/>
      <point x="220" y="297" type="line"/>
      <point x="265" y="135" type="line"/>
      <point x="272" y="135" type="line"/>
      <point x="323" y="320"/>
      <point x="391" y="523" type="qcurve"/>
      <point x="519" y="523" type="line"/>
      <point x="332" y="0" type="line"/>
    </contour>
  </outline>
</glyph>
<glyph name="Ustraightstrokecyr" format="2">
  <advance width="638"/>
  <unicode hex="04B0"/>
  <outline>
    <contour>
      <point x="389" y="0" type="line"/>
      <point x="249" y="0" type="line"/>
      <point x="249" y="169" type="line"/>
      <point x="105" y="169" type="line"/>
      <point x="105" y="274" type="line"/>
      <point x="249" y="274" type="line"/>
      <point x="10" y="698" type="line"/>
      <point x="166" y="698" type="line"/>
      <point x="323" y="409" type="line"/>
      <point x="325" y="409" type="line"/>
      <point x="477" y="698" type="line"/>
      <point x="629" y="698" type="line"/>
      <point x="389" y="274" type="line"/>
      <point x="532" y="274" type="line"/>
      <point x="532" y="169" type="line"/>
      <point x="389" y="169" type="line"/>
    </contour>
  </outline>
</glyph>
<glyph name="ustraightstrokecyrillic" format="2">
  <advance width="530"/>
  <unicode hex="04B1"/>
  <outline>
    <contour>
      <point x="332" y="-200" type="line"/>
      <point x="197" y="-200" type="line"/>
      <point x="197" y="-92" type="line"/>
      <point x="77" y="-92" type="line"/>
      <point x="77" y="0" type="line"/>
      <point x="197" y="0" type="line"/>
      <point x="11" y="523" type="line"/>
      <point x="144" y="523" type="line"/>
      <point x="201" y="353" type="line" smooth="yes"/>
      <point x="212" y="320"/>
      <point x="235" y="241" type="qcurve" smooth="yes"/>
      <point x="265" y="135" type="line"/>
      <point x="272" y="135" type="line"/>
      <point x="315" y="284"/>
      <point x="333" y="343" type="qcurve" smooth="yes"/>
      <point x="391" y="523" type="line"/>
      <point x="519" y="523" type="line"/>
      <point x="332" y="0" type="line"/>
      <point x="453" y="0" type="line"/>
      <point x="453" y="-92" type="line"/>
      <point x="332" y="-92" type="line"/>
    </contour>
  </outline>
</glyph>
<glyph name="Hadescendercyrillic" format="2">
  <advance width="685"/>
  <unicode hex="04B2"/>
  <outline>
    <contour>
      <point x="675" y="-150" type="line"/>
      <point x="545" y="-150" type="line"/>
      <point x="545" y="0" type="line"/>
      <point x="482" y="0" type="line"/>
      <point x="325" y="264" type="line"/>
      <point x="322" y="264" type="line"/>
      <point x="169" y="0" type="line"/>
      <point x="18" y="0" type="line"/>
      <point x="242" y="360" type="line"/>
      <point x="28" y="698" type="line"/>
      <point x="190" y="698" type="line"/>
      <point x="334" y="454" type="line"/>
      <point x="336" y="454" type="line"/>
      <point x="482" y="698" type="line"/>
      <point x="633" y="698" type="line"/>
      <point x="416" y="358" type="line"/>
      <point x="565" y="123" type="line"/>
      <point x="675" y="123" type="line"/>
    </contour>
  </outline>
</glyph>
<glyph name="u04B7" format="2">
  <advance width="605"/>
  <unicode hex="04B7"/>
  <outline>
    <contour>
      <point x="588" y="-140" type="line"/>
      <point x="465" y="-140" type="line"/>
      <point x="465" y="0" type="line"/>
      <point x="363" y="0" type="line"/>
      <point x="363" y="226" type="line"/>
      <point x="358" y="226" type="line"/>
      <point x="318" y="158"/>
      <point x="217" y="158" type="qcurve" smooth="yes"/>
      <point x="130" y="158"/>
      <point x="50" y="248"/>
      <point x="50" y="340" type="qcurve" smooth="yes"/>
      <point x="50" y="523" type="line"/>
      <point x="185" y="523" type="line"/>
      <point x="185" y="370" type="line" smooth="yes"/>
      <point x="185" y="315"/>
      <point x="219" y="269"/>
      <point x="270" y="269" type="qcurve" smooth="yes"/>
      <point x="319" y="269"/>
      <point x="363" y="300"/>
      <point x="363" y="324" type="qcurve" smooth="yes"/>
      <point x="363" y="523" type="line"/>
      <point x="498" y="523" type="line"/>
      <point x="498" y="106" type="line"/>
      <point x="588" y="106" type="line"/>
    </contour>
  </outline>
</glyph>
